<mxfile host="app.diagrams.net" agent="Mozilla/5.0 (Windows NT 10.0; Win64; x64) AppleWebKit/537.36 (KHTML, like Gecko) Chrome/132.0.0.0 Safari/537.36" version="26.0.10">
  <diagram name="Page-1" id="ythl6ALGVFn0nXp_rbZb">
    <mxGraphModel dx="2049" dy="1066" grid="1" gridSize="10" guides="1" tooltips="1" connect="1" arrows="1" fold="1" page="1" pageScale="1" pageWidth="850" pageHeight="1100" math="0" shadow="0">
      <root>
        <mxCell id="0" />
        <mxCell id="1" parent="0" />
        <mxCell id="xz1gaowPOnSmlPnAlLNT-47" style="edgeStyle=orthogonalEdgeStyle;rounded=0;orthogonalLoop=1;jettySize=auto;html=1;exitX=1;exitY=0.5;exitDx=0;exitDy=0;entryX=0;entryY=0.5;entryDx=0;entryDy=0;" parent="1" source="xz1gaowPOnSmlPnAlLNT-3" target="xz1gaowPOnSmlPnAlLNT-6" edge="1">
          <mxGeometry relative="1" as="geometry" />
        </mxCell>
        <mxCell id="xz1gaowPOnSmlPnAlLNT-3" value="" style="shape=image;imageAspect=0;aspect=fixed;verticalLabelPosition=bottom;verticalAlign=top;image=https://i0.wp.com/bikewalkwichita.org/wp-content/uploads/2020/03/strava-logo-png-4.png?ssl=1;" parent="1" vertex="1">
          <mxGeometry x="80" y="120" width="70.13" height="70" as="geometry" />
        </mxCell>
        <mxCell id="xz1gaowPOnSmlPnAlLNT-48" style="edgeStyle=orthogonalEdgeStyle;rounded=0;orthogonalLoop=1;jettySize=auto;html=1;exitX=1;exitY=0.5;exitDx=0;exitDy=0;entryX=0;entryY=0.5;entryDx=0;entryDy=0;" parent="1" source="xz1gaowPOnSmlPnAlLNT-4" target="xz1gaowPOnSmlPnAlLNT-6" edge="1">
          <mxGeometry relative="1" as="geometry" />
        </mxCell>
        <mxCell id="xz1gaowPOnSmlPnAlLNT-4" value="" style="shape=image;imageAspect=0;aspect=fixed;verticalLabelPosition=bottom;verticalAlign=top;image=https://www.garmin.sa/wp-content/uploads/2022/05/cf-lg-132359f0-1413-4848-9eab-5b4527a576ed.jpg;" parent="1" vertex="1">
          <mxGeometry x="80" y="240" width="70" height="70" as="geometry" />
        </mxCell>
        <mxCell id="xz1gaowPOnSmlPnAlLNT-49" style="edgeStyle=orthogonalEdgeStyle;rounded=0;orthogonalLoop=1;jettySize=auto;html=1;exitX=1;exitY=0.5;exitDx=0;exitDy=0;entryX=0;entryY=0.5;entryDx=0;entryDy=0;" parent="1" source="xz1gaowPOnSmlPnAlLNT-5" target="xz1gaowPOnSmlPnAlLNT-6" edge="1">
          <mxGeometry relative="1" as="geometry" />
        </mxCell>
        <mxCell id="xz1gaowPOnSmlPnAlLNT-5" value="" style="shape=image;imageAspect=0;aspect=fixed;verticalLabelPosition=bottom;verticalAlign=top;image=https://i0.wp.com/formosatrail.com/wp-content/uploads/2023/07/COROS-Logo-Vertical-2.png?fit=920%2C600&amp;ssl=1;" parent="1" vertex="1">
          <mxGeometry x="61.379999999999995" y="350" width="107.37" height="70" as="geometry" />
        </mxCell>
        <mxCell id="xz1gaowPOnSmlPnAlLNT-50" style="edgeStyle=orthogonalEdgeStyle;rounded=0;orthogonalLoop=1;jettySize=auto;html=1;exitX=1;exitY=0.5;exitDx=0;exitDy=0;entryX=0;entryY=0.5;entryDx=0;entryDy=0;" parent="1" source="xz1gaowPOnSmlPnAlLNT-6" target="xz1gaowPOnSmlPnAlLNT-7" edge="1">
          <mxGeometry relative="1" as="geometry" />
        </mxCell>
        <mxCell id="xz1gaowPOnSmlPnAlLNT-6" value="" style="shape=image;imageAspect=0;aspect=fixed;verticalLabelPosition=bottom;verticalAlign=top;image=https://avatars.githubusercontent.com/u/89419010?s=200&amp;v=4;" parent="1" vertex="1">
          <mxGeometry x="250" y="230" width="90" height="90" as="geometry" />
        </mxCell>
        <mxCell id="gBmrybwZXi2IvBzh7pCV-3" style="edgeStyle=orthogonalEdgeStyle;rounded=0;orthogonalLoop=1;jettySize=auto;html=1;exitX=1;exitY=0.5;exitDx=0;exitDy=0;entryX=0;entryY=0.5;entryDx=0;entryDy=0;" edge="1" parent="1" source="xz1gaowPOnSmlPnAlLNT-7" target="xz1gaowPOnSmlPnAlLNT-10">
          <mxGeometry relative="1" as="geometry" />
        </mxCell>
        <mxCell id="xz1gaowPOnSmlPnAlLNT-7" value="" style="rounded=1;whiteSpace=wrap;html=1;" parent="1" vertex="1">
          <mxGeometry x="425" y="120" width="130" height="310" as="geometry" />
        </mxCell>
        <mxCell id="xz1gaowPOnSmlPnAlLNT-8" value="BigQuery" style="sketch=0;html=1;verticalAlign=top;labelPosition=center;verticalLabelPosition=bottom;align=center;spacingTop=-6;fontSize=11;fontStyle=1;fontColor=#999999;shape=image;aspect=fixed;imageAspect=0;image=data:image/svg+xml,PHN2ZyB4bWxucz0iaHR0cDovL3d3dy53My5vcmcvMjAwMC9zdmciIHhtbG5zOnY9Imh0dHBzOi8vdmVjdGEuaW8vbmFubyIgd2lkdGg9IjIwLjAwMTA0NTIyNzA1MDc4IiBoZWlnaHQ9IjIwLjAwMTA0NTIyNzA1MDc4IiBmaWxsLXJ1bGU9ImV2ZW5vZGQiIHZpZXdCb3g9IjAgMCAyMC4wMDEwNDUyMjcwNTA3OCAyMC4wMDEwNDUyMjcwNTA3OCI+JiN4YTsJPHN0eWxlIHR5cGU9InRleHQvY3NzIj4mI3hhOwkuc3Qwe2ZpbGw6I2FlY2JmYTt9JiN4YTsJLnN0MXtmaWxsOiM2NjlkZjY7fSYjeGE7CS5zdDJ7ZmlsbDojNDI4NWY0O30mI3hhOwk8L3N0eWxlPiYjeGE7CTxwYXRoIGNsYXNzPSJzdDAiIGQ9Ik00LjczIDguODN2Mi42M2E0LjkxIDQuOTEgMCAwIDAgMS43MSAxLjc0VjguODN6Ii8+JiN4YTsJPHBhdGggY2xhc3M9InN0MSIgZD0iTTcuODkgNi40MXY3LjUzQTcuNjIgNy42MiAwIDAgMCA5IDE0YTggOCAwIDAgMCAxIDBWNi40MXoiLz4mI3hhOwk8cGF0aCBjbGFzcz0ic3QwIiBkPSJNMTEuNjQgOS44NnYzLjI5YTUgNSAwIDAgMCAxLjctMS44MlY5Ljg2eiIvPiYjeGE7CTxwYXRoIGNsYXNzPSJzdDIiIGQ9Ik0xNS43NCAxNC4zMmwtMS40MiAxLjQyYS40Mi40MiAwIDAgMCAwIC42bDMuNTQgMy41NGEuNDIuNDIgMCAwIDAgLjU5IDBsMS40My0xLjQzYS40Mi40MiAwIDAgMCAwLS41OWwtMy41NC0zLjU0YS40Mi40MiAwIDAgMC0uNiAwIi8+JiN4YTsJPHBhdGggY2xhc3M9InN0MSIgZD0iTTkgMGE5IDkgMCAxIDAgMCAxOEE5IDkgMCAxIDAgOSAwbTAgMTUuNjlhNi42OCA2LjY4IDAgMCAxIC4wMDctMTMuMzYgNi42OCA2LjY4IDAgMCAxIDQuNzI3IDExLjQwM0E2LjY4IDYuNjggMCAwIDEgOSAxNS42OSIvPiYjeGE7PC9zdmc+;" parent="1" vertex="1">
          <mxGeometry x="469" y="60" width="42" height="42" as="geometry" />
        </mxCell>
        <mxCell id="xz1gaowPOnSmlPnAlLNT-9" value="raw_data" style="shape=cylinder3;whiteSpace=wrap;html=1;boundedLbl=1;backgroundOutline=1;size=15;" parent="1" vertex="1">
          <mxGeometry x="460" y="235" width="60" height="80" as="geometry" />
        </mxCell>
        <mxCell id="gBmrybwZXi2IvBzh7pCV-4" style="edgeStyle=orthogonalEdgeStyle;rounded=0;orthogonalLoop=1;jettySize=auto;html=1;exitX=1;exitY=0.5;exitDx=0;exitDy=0;entryX=0;entryY=0.5;entryDx=0;entryDy=0;" edge="1" parent="1" source="xz1gaowPOnSmlPnAlLNT-10" target="xz1gaowPOnSmlPnAlLNT-26">
          <mxGeometry relative="1" as="geometry" />
        </mxCell>
        <mxCell id="xz1gaowPOnSmlPnAlLNT-10" value="" style="rounded=1;whiteSpace=wrap;html=1;" parent="1" vertex="1">
          <mxGeometry x="670" y="120" width="350" height="310" as="geometry" />
        </mxCell>
        <mxCell id="xz1gaowPOnSmlPnAlLNT-11" value="BigQuery" style="sketch=0;html=1;verticalAlign=top;labelPosition=center;verticalLabelPosition=bottom;align=center;spacingTop=-6;fontSize=11;fontStyle=1;fontColor=#999999;shape=image;aspect=fixed;imageAspect=0;image=data:image/svg+xml,PHN2ZyB4bWxucz0iaHR0cDovL3d3dy53My5vcmcvMjAwMC9zdmciIHhtbG5zOnY9Imh0dHBzOi8vdmVjdGEuaW8vbmFubyIgd2lkdGg9IjIwLjAwMTA0NTIyNzA1MDc4IiBoZWlnaHQ9IjIwLjAwMTA0NTIyNzA1MDc4IiBmaWxsLXJ1bGU9ImV2ZW5vZGQiIHZpZXdCb3g9IjAgMCAyMC4wMDEwNDUyMjcwNTA3OCAyMC4wMDEwNDUyMjcwNTA3OCI+JiN4YTsJPHN0eWxlIHR5cGU9InRleHQvY3NzIj4mI3hhOwkuc3Qwe2ZpbGw6I2FlY2JmYTt9JiN4YTsJLnN0MXtmaWxsOiM2NjlkZjY7fSYjeGE7CS5zdDJ7ZmlsbDojNDI4NWY0O30mI3hhOwk8L3N0eWxlPiYjeGE7CTxwYXRoIGNsYXNzPSJzdDAiIGQ9Ik00LjczIDguODN2Mi42M2E0LjkxIDQuOTEgMCAwIDAgMS43MSAxLjc0VjguODN6Ii8+JiN4YTsJPHBhdGggY2xhc3M9InN0MSIgZD0iTTcuODkgNi40MXY3LjUzQTcuNjIgNy42MiAwIDAgMCA5IDE0YTggOCAwIDAgMCAxIDBWNi40MXoiLz4mI3hhOwk8cGF0aCBjbGFzcz0ic3QwIiBkPSJNMTEuNjQgOS44NnYzLjI5YTUgNSAwIDAgMCAxLjctMS44MlY5Ljg2eiIvPiYjeGE7CTxwYXRoIGNsYXNzPSJzdDIiIGQ9Ik0xNS43NCAxNC4zMmwtMS40MiAxLjQyYS40Mi40MiAwIDAgMCAwIC42bDMuNTQgMy41NGEuNDIuNDIgMCAwIDAgLjU5IDBsMS40My0xLjQzYS40Mi40MiAwIDAgMCAwLS41OWwtMy41NC0zLjU0YS40Mi40MiAwIDAgMC0uNiAwIi8+JiN4YTsJPHBhdGggY2xhc3M9InN0MSIgZD0iTTkgMGE5IDkgMCAxIDAgMCAxOEE5IDkgMCAxIDAgOSAwbTAgMTUuNjlhNi42OCA2LjY4IDAgMCAxIC4wMDctMTMuMzYgNi42OCA2LjY4IDAgMCAxIDQuNzI3IDExLjQwM0E2LjY4IDYuNjggMCAwIDEgOSAxNS42OSIvPiYjeGE7PC9zdmc+;" parent="1" vertex="1">
          <mxGeometry x="824" y="60" width="42" height="42" as="geometry" />
        </mxCell>
        <mxCell id="xz1gaowPOnSmlPnAlLNT-13" value="Hub" style="swimlane;whiteSpace=wrap;html=1;" parent="1" vertex="1">
          <mxGeometry x="690" y="230" width="90" height="50" as="geometry" />
        </mxCell>
        <mxCell id="xz1gaowPOnSmlPnAlLNT-14" value="Link" style="swimlane;whiteSpace=wrap;html=1;" parent="1" vertex="1">
          <mxGeometry x="800" y="230" width="90" height="50" as="geometry" />
        </mxCell>
        <mxCell id="xz1gaowPOnSmlPnAlLNT-15" value="Hub" style="swimlane;whiteSpace=wrap;html=1;" parent="1" vertex="1">
          <mxGeometry x="910" y="230" width="90" height="50" as="geometry" />
        </mxCell>
        <mxCell id="xz1gaowPOnSmlPnAlLNT-21" style="edgeStyle=orthogonalEdgeStyle;rounded=0;orthogonalLoop=1;jettySize=auto;html=1;exitX=0.5;exitY=0;exitDx=0;exitDy=0;entryX=0.5;entryY=1;entryDx=0;entryDy=0;" parent="1" source="xz1gaowPOnSmlPnAlLNT-16" target="xz1gaowPOnSmlPnAlLNT-13" edge="1">
          <mxGeometry relative="1" as="geometry" />
        </mxCell>
        <mxCell id="xz1gaowPOnSmlPnAlLNT-16" value="Sat" style="swimlane;whiteSpace=wrap;html=1;" parent="1" vertex="1">
          <mxGeometry x="690" y="305" width="90" height="50" as="geometry" />
        </mxCell>
        <mxCell id="xz1gaowPOnSmlPnAlLNT-20" style="edgeStyle=orthogonalEdgeStyle;rounded=0;orthogonalLoop=1;jettySize=auto;html=1;exitX=0.5;exitY=1;exitDx=0;exitDy=0;entryX=0.5;entryY=0;entryDx=0;entryDy=0;" parent="1" source="xz1gaowPOnSmlPnAlLNT-17" target="xz1gaowPOnSmlPnAlLNT-15" edge="1">
          <mxGeometry relative="1" as="geometry" />
        </mxCell>
        <mxCell id="xz1gaowPOnSmlPnAlLNT-17" value="Sat" style="swimlane;whiteSpace=wrap;html=1;" parent="1" vertex="1">
          <mxGeometry x="910" y="160" width="90" height="50" as="geometry" />
        </mxCell>
        <mxCell id="xz1gaowPOnSmlPnAlLNT-22" value="" style="endArrow=none;html=1;rounded=0;exitX=1;exitY=0.5;exitDx=0;exitDy=0;entryX=0;entryY=0.5;entryDx=0;entryDy=0;" parent="1" source="xz1gaowPOnSmlPnAlLNT-13" target="xz1gaowPOnSmlPnAlLNT-14" edge="1">
          <mxGeometry width="50" height="50" relative="1" as="geometry">
            <mxPoint x="770" y="300" as="sourcePoint" />
            <mxPoint x="820" y="250" as="targetPoint" />
          </mxGeometry>
        </mxCell>
        <mxCell id="xz1gaowPOnSmlPnAlLNT-23" value="" style="endArrow=none;html=1;rounded=0;exitX=1;exitY=0.5;exitDx=0;exitDy=0;entryX=0;entryY=0.5;entryDx=0;entryDy=0;" parent="1" source="xz1gaowPOnSmlPnAlLNT-14" target="xz1gaowPOnSmlPnAlLNT-15" edge="1">
          <mxGeometry width="50" height="50" relative="1" as="geometry">
            <mxPoint x="790" y="265" as="sourcePoint" />
            <mxPoint x="810" y="265" as="targetPoint" />
          </mxGeometry>
        </mxCell>
        <mxCell id="xz1gaowPOnSmlPnAlLNT-25" value="Data Vault" style="text;html=1;align=center;verticalAlign=middle;whiteSpace=wrap;rounded=0;" parent="1" vertex="1">
          <mxGeometry x="815" y="390" width="60" height="30" as="geometry" />
        </mxCell>
        <mxCell id="xz1gaowPOnSmlPnAlLNT-52" style="edgeStyle=orthogonalEdgeStyle;rounded=0;orthogonalLoop=1;jettySize=auto;html=1;exitX=1;exitY=0.5;exitDx=0;exitDy=0;entryX=0;entryY=0.5;entryDx=0;entryDy=0;" parent="1" source="xz1gaowPOnSmlPnAlLNT-26" target="xz1gaowPOnSmlPnAlLNT-51" edge="1">
          <mxGeometry relative="1" as="geometry" />
        </mxCell>
        <mxCell id="xz1gaowPOnSmlPnAlLNT-26" value="" style="rounded=1;whiteSpace=wrap;html=1;" parent="1" vertex="1">
          <mxGeometry x="1140" y="120" width="170" height="310" as="geometry" />
        </mxCell>
        <mxCell id="xz1gaowPOnSmlPnAlLNT-27" value="BigQuery" style="sketch=0;html=1;verticalAlign=top;labelPosition=center;verticalLabelPosition=bottom;align=center;spacingTop=-6;fontSize=11;fontStyle=1;fontColor=#999999;shape=image;aspect=fixed;imageAspect=0;image=data:image/svg+xml,PHN2ZyB4bWxucz0iaHR0cDovL3d3dy53My5vcmcvMjAwMC9zdmciIHhtbG5zOnY9Imh0dHBzOi8vdmVjdGEuaW8vbmFubyIgd2lkdGg9IjIwLjAwMTA0NTIyNzA1MDc4IiBoZWlnaHQ9IjIwLjAwMTA0NTIyNzA1MDc4IiBmaWxsLXJ1bGU9ImV2ZW5vZGQiIHZpZXdCb3g9IjAgMCAyMC4wMDEwNDUyMjcwNTA3OCAyMC4wMDEwNDUyMjcwNTA3OCI+JiN4YTsJPHN0eWxlIHR5cGU9InRleHQvY3NzIj4mI3hhOwkuc3Qwe2ZpbGw6I2FlY2JmYTt9JiN4YTsJLnN0MXtmaWxsOiM2NjlkZjY7fSYjeGE7CS5zdDJ7ZmlsbDojNDI4NWY0O30mI3hhOwk8L3N0eWxlPiYjeGE7CTxwYXRoIGNsYXNzPSJzdDAiIGQ9Ik00LjczIDguODN2Mi42M2E0LjkxIDQuOTEgMCAwIDAgMS43MSAxLjc0VjguODN6Ii8+JiN4YTsJPHBhdGggY2xhc3M9InN0MSIgZD0iTTcuODkgNi40MXY3LjUzQTcuNjIgNy42MiAwIDAgMCA5IDE0YTggOCAwIDAgMCAxIDBWNi40MXoiLz4mI3hhOwk8cGF0aCBjbGFzcz0ic3QwIiBkPSJNMTEuNjQgOS44NnYzLjI5YTUgNSAwIDAgMCAxLjctMS44MlY5Ljg2eiIvPiYjeGE7CTxwYXRoIGNsYXNzPSJzdDIiIGQ9Ik0xNS43NCAxNC4zMmwtMS40MiAxLjQyYS40Mi40MiAwIDAgMCAwIC42bDMuNTQgMy41NGEuNDIuNDIgMCAwIDAgLjU5IDBsMS40My0xLjQzYS40Mi40MiAwIDAgMCAwLS41OWwtMy41NC0zLjU0YS40Mi40MiAwIDAgMC0uNiAwIi8+JiN4YTsJPHBhdGggY2xhc3M9InN0MSIgZD0iTTkgMGE5IDkgMCAxIDAgMCAxOEE5IDkgMCAxIDAgOSAwbTAgMTUuNjlhNi42OCA2LjY4IDAgMCAxIC4wMDctMTMuMzYgNi42OCA2LjY4IDAgMCAxIDQuNzI3IDExLjQwM0E2LjY4IDYuNjggMCAwIDEgOSAxNS42OSIvPiYjeGE7PC9zdmc+;" parent="1" vertex="1">
          <mxGeometry x="1204" y="60" width="42" height="42" as="geometry" />
        </mxCell>
        <mxCell id="xz1gaowPOnSmlPnAlLNT-38" value="Activities" style="swimlane;fontStyle=0;childLayout=stackLayout;horizontal=1;startSize=30;horizontalStack=0;resizeParent=1;resizeParentMax=0;resizeLast=0;collapsible=1;marginBottom=0;whiteSpace=wrap;html=1;" parent="1" vertex="1">
          <mxGeometry x="1175" y="150" width="100" height="60" as="geometry" />
        </mxCell>
        <mxCell id="xz1gaowPOnSmlPnAlLNT-42" value="Laps" style="swimlane;fontStyle=0;childLayout=stackLayout;horizontal=1;startSize=30;horizontalStack=0;resizeParent=1;resizeParentMax=0;resizeLast=0;collapsible=1;marginBottom=0;whiteSpace=wrap;html=1;" parent="1" vertex="1">
          <mxGeometry x="1175" y="240" width="100" height="60" as="geometry" />
        </mxCell>
        <mxCell id="xz1gaowPOnSmlPnAlLNT-43" value="Personal records" style="swimlane;fontStyle=0;childLayout=stackLayout;horizontal=1;startSize=30;horizontalStack=0;resizeParent=1;resizeParentMax=0;resizeLast=0;collapsible=1;marginBottom=0;whiteSpace=wrap;html=1;" parent="1" vertex="1">
          <mxGeometry x="1175" y="330" width="100" height="60" as="geometry" />
        </mxCell>
        <mxCell id="xz1gaowPOnSmlPnAlLNT-51" value="" style="shape=image;imageAspect=0;aspect=fixed;verticalLabelPosition=bottom;verticalAlign=top;image=https://tinnhiemmang.vn/storage/photos/shares/tin-tuc/tt2023/04271.PNG;" parent="1" vertex="1">
          <mxGeometry x="1400" y="220" width="213.43" height="110" as="geometry" />
        </mxCell>
        <mxCell id="xz1gaowPOnSmlPnAlLNT-53" value="" style="rounded=0;whiteSpace=wrap;html=1;dashed=1;fillColor=#dae8fc;strokeColor=#6c8ebf;" parent="1" vertex="1">
          <mxGeometry x="40" y="480" width="1570" height="120" as="geometry" />
        </mxCell>
        <mxCell id="gBmrybwZXi2IvBzh7pCV-1" value="" style="shape=image;imageAspect=0;aspect=fixed;verticalLabelPosition=bottom;verticalAlign=top;image=data:image/png,iVBORw0KGgoAAAANSUhEUgAAAUAAAAFACAMAAAD6TlWYAAAC/VBMVEVHcEz/aEj/aEn/aEn/aEn/aEn/aEn/aEn/aEn/aEn/aEn/aEn/aEn/aEn/aEn/Z0j/Z0j/aEn/aEn/aEn/aEn/aEn/aUr/aEn/aEn/aEn/aEn/aEn/aEn/aEn/Z0j/aEn/aEn/aEn/aEr/aEn/aEn/aEn/aEn/aEn/aEn/aEn/aEn/aEn/aEn/aEn/aEn/aEn/aEn/aEn/aEn/aEn/aEn/aEn/aEn/aEn/aEn/aEn/aEn/aEn/aEn/aEn/aEn/aEn/aEn/aEn/aEn/aEn/aEn/aEn/aEj/aEn/aEn/aEn/aEn/aEn/aEn/aEn/aEn/aEn/Z0j/aEn/aEn/aEj/aEn/aEn/aEn/aEn/aEn/aEn/aEn/aEn/aEn/aEn/aEn/aEn/aEn/aEn/Zkf/aEn/aEn/Z0j/aEn/aEn/aEn/aEn/aEn/aEn/Z0j/aEn/aEn/aEkkKDYjJzUkKDb/aEn/aEklKTclKTclKTclKTclKTclKTclKTclKTf/aEn/aEklKTclKTclKTclKTclKTclKTclKTclKTclKTclKTclKTclKTckKDYlKTclKTclKTclKTclKTcmKjglKjglKTgjJzUlKTclKTclKTf/aEkkKDYlKTclKTclKTclKTclKTclKTclKTclKTclKTclKTclKTclKTclKTf/aEn/aEklKTckKDYlKTf/aEklKTcmKDYlKTclKTclKTclKTf/aEklKTcmKTclKTclKTclKTclKTckKDb/aEklKTclKTf/aEn/aEklKTclKTf/aEn/aEn/aEkmKTclKTf/aEklKTf/aEn/aEn/aEn/aEn/aEn/aEkkKDYkKDYkKDclKTclKTclKTclKTclKTclKTclKTclKTclKTclKTclKTckKDYlKTclKTclKTclKTclKTf/aEklKTclKTclKTclKTclKTclKTclKTclKTclKTclKTf/aEklKTclKTckKTclKTclKTclKTclKTclKTf/aEn/aEklKTf/aEn/aEn/aEklKjf/aElNEPXWAAAA/3RSTlMACTl/vOO/fiwwhMK6fDQGCE6t5/3//92HJ9/lpUQFKKH0/9t4Ghx675QfR9PLYA4QZM/+yFXk+LNK7pouM6Dx3DzW4IMiCqjKWmbRmVH2QAO5+wy17I8knNlvFBeMwFhz8gE2qwSBHs0NYRYCsuogBAEFMSokYKM+Gk6XY3WTJqng/P4bU5nV+f+DByloreP9//pOAh7XgGkILGuw5VWd2TBvtOdZoGXBOQ63RkYS0RhLZfz3zxxQ08gM6SDFGaSm3YU41/+Sto+dlsNd97AJEBF7ur93h8vOlW4UxAtbFvJBjWz27/s8RF1+9fPs1DTpEzZ0q7OKcUJIxaKI+zu+qBftAAAOSUlEQVR4AezBBQGAMAAAsCsu/dsSAodt4d0AAAAAAAAAAAAAAAAAAAAAAAAAAAAAAAAAAAAAAAAAACCmXGpt2i4cph/GWqd5WcNGfj0sxhIGYRg+ZpyuGtu2bXsmtnH/69hoZlX5LuBZvM2f/ubmFxYZQARGJld8DKmQKxm8FlVqjZZ6P53eYMS7gclskS5abSZ4EO0OJ+1+LjfgkzEer08a6A8EQ09FCH+j3C8SxReLxaU8dbOJqdhL0aSh2y+hwleDZCot1stkc/BazBeo9vtTxLcGJZuoV6Gz/BPe8oyeCs1+1Rrg2wvVG1XBL79m6z0O2jR/ZzpdfHfdhV5f0MvPNRi+r+VcFPuNxsgymCwt87fSK3ZgwxbmCAbsTZB1sLq2zk/aMCuB3ZrMEAy4GUKODbfmeby8qtthhksK7RAMGAbk3K4+w6Hs7de63A4cHNILOEEeg59HVjbkWL4IfJwT/ycNiBg6ef90d3oWBH5K8ZxewDpeknfXYW0k/wPHP3V3duqu5/S4q7u7y6+nXOoOoS5XIBUWzdBAcT+roRXsrql7ih3cAZUrUO9RoefGrxJ2s8nObDZ8+6Svv/NU3s9OdmZ3dkOo94zJy0CAYujy3ojQ1CpgdVrYIELMio9XGuZbWFc/esXYdQE5OTiAEY5KqDROwxExZvySxcBVZwyDiNVYBbJRrl6zdp1wvfUbNm6CSrOshR0i13s5b2kyffNg8v6fT5Gr3pZNzi6uqg0C9bZu277DjXWHytOyOeKhWppMGdcDERpeG+Tg4enl7aNmMfbdCVwav23b/d1YjNldUHkU3W0QDWZYgC2noP0kRMRmgQLMFhgUHBKqYnE5bkCNX1h4RHk9XMkBodt4RGda/TfagV7jWTaIxPiFYCZlZFR0jAo/xQno6PfFlxG+T+tVekD4qjei06nHhFWg99HXDBLXexyY6xsfFlfgq/8O3L1HX6/yA9pWZxAlZoj9h/DC3n4E0avbgrn2uWEjAffHYixPwLj4hECg1Xcwopb49cRG8Ey7/gwSM7gvmB8wiRtwpz7gATkCag4e2ng4KTkFaDXqwCB6nw1ygmcapiIRzKBGL3lATdoXT09C6fQBoWEzJAEzvMG3zw7B7xixObQTvMwBlVvWHNE+/RqVFHDZURskhc2YT0dBuYm95Z/CiAfcIE9AjyAvbxfXp/UkBoTXxyNpJo0+Vp6m63Fk0rvd4OUNGBWqOoH1eAFln8rwMM2Ovg4wxfQY7r0E4OUdwif1+aQHtK3PL0B3icHeztQnTr3zMgc8LR5Q/qkM7xLD0CamjuB+bcH6AzY6wyDJmNQZJhbEdmfbvQIBoU4NZAbGxBBu3h5ehYCKWjbIIqbZwysRELouQhZx7sNXJCCcv4AsoONEeFUCTr/IINkxbRq/MgFh6Aoku14DQSIHD12ggxwrEQfdpYyMFGUlBJwyyw7JLLGWAugFbjmUGR6SlZ3lvTEnPk1pRkCH1WHfO2fn5uWlR//w47p84YAsrqigECSbfRzJbExXoJbmFe3jy7JPU7BJLs6Xr0gMeOnQEZfnfxJm2auxp6/pRAPGbDyp9xPQuT4NyWrSp/T5dkWoMQfrm+u1X0JAXVh2Ecv7o4pD4j1EAmK2Al+gY1uzE5IRM3oU0AlcE8tiQyVZN6gDeh4pwobYq2uDTATkK5JzSUyvV0OgE7exCAvz2eRAF/BarJEubESYxnIBG02Q8TxCfRl1dbQKG3M1SnOTIuBN7QlsTHGU0mIBYVUrJJvx3Sj7ZbPYuKu3yAPeDvLHJtzJUVosoKIuySHIMEhcoj3l+N3DYlNcdt0hDKg6HWL6j7qb4GipgFC7mXi+zt27zBFP2Go20NCFq7BJ7L0S0oAubti0mGsWC9huNCPW782qAMfGi35s0BSg4ZWEyYkExKLS11sqIPRMFAlzvyoAwFyxgtPOA40gLZYtIAG1u8ZSAZ1mkvQTL5haGygot7PYgKpYe9hfe0/NSgzIusbEphfkaq8K/AE+QSQB3YDeh+OJ+gEce5ORb0v+N/cwD3t3j9fPB/Ov+EWuOVLKSgh44mrIGs8HKSmX/G5k5pZgHtVpjXDAOzti9XKBXqNTyAR9P7GCy9sBOc1JfiJVwYZCeMbhobMbdUA2eWcgPHclyoc/L9SuFg6YnJav9wDoKQYh4zpXhQqqzjFxqJ4BCmlazFUSvh4qKHxUTBlQfcQPKrq2g+V94EfZrsbwvMYQ77PfbGc84GtAYZMr5lCH7wYOTfBdqoCsdz5w3XDBXFk6wYDpKWCmz00E3Ewe8CyQUz4+ITDL4FCeVtME9N8CfJt46+x7kRYK+H8MMmoO+RDuoJA+gu9uAAN+hykC+nqBgcIybil1sGUCzr8oz0nkVCMgFs87R5TpwFCOmjxg3hUwdIh7CLJrNRYJaPuWPNOY8R8CsdssN80tEODpQxxQtQsE5OfxKu+3SMBVzRBRQbHF3EwnIKVxxhwuq0GAsowlDXh1HQjhzZVKPS0S8NNpYkthsqVcYk8gtTsZc+zxACGZKtKAO+JAyC3uuT5pnyUCLusv08UENLodEDrIPYewT0DQNl/SgGVKEPLNVe5ZZI0lAo5sTnA5a8GIzgwS06w2EAoq5X6DBYOgh8WEAdkfQNBqH+7HHlkioH2iXBdU7Y4qgAyvTMk2ELQllPiKNAi64s/9mDtRQPkf/JL96cIbd/nfTYL8tKQBo0BQRh7vq0L+gMsW2CDZ2PVvBETWcQMWXQNBcRGkAYNBUEoy92M/yR+wYWsko8F9pR2BN4lGIH3A3RYPOGoeg+T09YdAgnd2dIsHQVuJj8BHZEP4e9kDfjrpf7I7NZJ7ElFfBkGrQ818TmR9BO9cI3dA+TepNl8F4vinV/aRudOY7SDIkz9dkjmgopoNkhl/hz7Z9GIjCNpWQhgQRytByM07vOmSzAEH9kKy6/EGiNNlY47sQrFLDiIB/eNASLCKu2L+Rt6Ajb+zxBbf+rYgyjGct0UvCAR4RJ8gDXj3GgjQrGVxRVo/wXsikgNO7IjkRf6o/4/cQ8M1GAR4hpp5OcsvAnNkBUK5J9yAh/NBmg/PdUKWcH8l9UwaZ+8GQ4/MvaCaUCI0i+F/M5QGgTS/TEMWYddiGYi5Eos5ir4QmAXGmnlJPz8dc7jtFDz8S26BJC070187INNsLojR8Pcl5PoZfMTdleqmkifwOGaWYI6IrfD/wrh/MFtWCBLM/9zOxJJsRr9O5mz0rQJiDrlhDtWRDODacI/utmZ0HP8PKOV9YrtGcB2Ei7wc5X6X6me/7q1uxgDv+L74GM7DXK7h3ADxWtob6485B7FmmwvmuvMbPHUwAnOVBqcArcV9TI1Sm55ge/04g6T6/UMQk6nCXKrs3wL1a7DMUglbOzbo9Cdgd84BzDlRKcswj1tZWFpKoG6338Mv5HlOjpmgAJg9a6bUhNN+ATFbtAYBir1vee7XBaasv5GZp5ayO+tu9KbIuEuX9qfddN+hMoi0Bp7LUWEe1s0lPSsrV1t8h2oRLHKLcsrkPr2RNJ1bggjH24aN2JKYvOysgoirkre3qe9F5OYecLnDYr4TWZfguZ/vmbs/UNFAZBE8qS+Ue2fJeAZJYTdrCog4mFupGyyLf4MXAkNYMwPWHo5MY/o/C7CS975eUiuGgphDxVjECZYwoIrFItRPHEDv0B2JAcnffdV6ADylqDpvEqLHzBsFIhzcS7BppaSXs9SxbtgkNjofKij0Zs0K2LYfzRgcNXaMHaI2SXwqs/tLFTb9dMcO0iMwk1+Ef4L2BI6HLuYEXDyDQaJSK4zBrrVqMJZ48v+Ks6mCrk8OkgZkvTxjWRP9ciOBZ9Nd+oB0j/ozUysGcPqjI/VU5gMQL/hlifF+4ZfyKW4qrfNnjfbLDgI+ZWaR5IDfLiIL0ILz3s+J5xIRneMjQdTu28VYWNLJDLq7ct8ks0b+pHA/MBSYUywxoKILYYmOAcuggqWbmzOIht2fy0CUJr5AjQ2xWi8d0AWEtI3FAglZ/wQdCNEcymOpAtK/BnlmT26B2v0Hd0IUWjsBgSs5O/gJWZ+TQQAGAf/ivQKUFxCUN535CVUR7qvBGD93LUv/nMiyP8lPqf3suXORdn2pLjEwE+YDCb/grNIXMzlWVVyQGaSBcvnZoT56oS779EM/JILj8rNxeeOnvKssyz59DN3NJyQ4DUxZ/SgrpkT/igB1ce5JEFNnOEWBd52Ay/b6fQYRS3UCMoWRCSfLkmN3HE6O/sHr4W79q6JXcxTqF4L5cRz6UZp/w+vJWu+QEOeNOTtXe4AYnWdYZnhZdkFywZ4jT9Y83C/rjxE0OzpyGfCtHEHxYwR1gZxyd/6V/N1KkIGjg1KpAXJKXUpKiodG7p/DuPi3AgQojpEvTb6eDlZnJunofXs6GDFq7HuEh/Gwj8DqpBLla310IZjw0eYhDCIwxhasTr1O4vk6tpmrANNWnSW42sq0mQJWp67o6EusN7ExiJo/uekkJMLmOlifv1eIvTV/81IgMur9c9NEd51bn8Ymt1QyM8+2B2IffjDM5B/WoR1Yob2DTf4C0HygMfJoL+MJZw4FK8R7VxHvt+QWAyXFwDM9jCS0aTEFrNJK4R/mYlo16AoStGvb54Lw27iXgpX6u7PQT4RPGAASLR77e6LhH/h7e7BabQ2mwReWt20H0i01OJswNduDFZvMvd1rM+b8dDDPyLrDGaTXu81KsGrtK9zjYObYy7FkHXB2xfOEzPHr08HKNW7SdKYdU77u6LxgNshiStUJNWwYxmbw711Gwitg1NAF1Ws0e69Be5DN/IFdvvuj+94PoXL92x4cCAAAAAAA+b82gqqqqqqqqqqqqqqqqqqqqqqqqqqqqqqqqqqqqqqqqqqqCnOx/C1J9IXqAAAAAElFTkSuQmCC;" vertex="1" parent="1">
          <mxGeometry x="580" y="210" width="70" height="70" as="geometry" />
        </mxCell>
        <mxCell id="gBmrybwZXi2IvBzh7pCV-2" value="" style="shape=image;imageAspect=0;aspect=fixed;verticalLabelPosition=bottom;verticalAlign=top;image=data:image/png,iVBORw0KGgoAAAANSUhEUgAAAUAAAAFACAMAAAD6TlWYAAAC/VBMVEVHcEz/aEj/aEn/aEn/aEn/aEn/aEn/aEn/aEn/aEn/aEn/aEn/aEn/aEn/aEn/Z0j/Z0j/aEn/aEn/aEn/aEn/aEn/aUr/aEn/aEn/aEn/aEn/aEn/aEn/aEn/Z0j/aEn/aEn/aEn/aEr/aEn/aEn/aEn/aEn/aEn/aEn/aEn/aEn/aEn/aEn/aEn/aEn/aEn/aEn/aEn/aEn/aEn/aEn/aEn/aEn/aEn/aEn/aEn/aEn/aEn/aEn/aEn/aEn/aEn/aEn/aEn/aEn/aEn/aEn/aEn/aEj/aEn/aEn/aEn/aEn/aEn/aEn/aEn/aEn/aEn/Z0j/aEn/aEn/aEj/aEn/aEn/aEn/aEn/aEn/aEn/aEn/aEn/aEn/aEn/aEn/aEn/aEn/aEn/Zkf/aEn/aEn/Z0j/aEn/aEn/aEn/aEn/aEn/aEn/Z0j/aEn/aEn/aEkkKDYjJzUkKDb/aEn/aEklKTclKTclKTclKTclKTclKTclKTclKTf/aEn/aEklKTclKTclKTclKTclKTclKTclKTclKTclKTclKTclKTclKTckKDYlKTclKTclKTclKTclKTcmKjglKjglKTgjJzUlKTclKTclKTf/aEkkKDYlKTclKTclKTclKTclKTclKTclKTclKTclKTclKTclKTclKTclKTf/aEn/aEklKTckKDYlKTf/aEklKTcmKDYlKTclKTclKTclKTf/aEklKTcmKTclKTclKTclKTclKTckKDb/aEklKTclKTf/aEn/aEklKTclKTf/aEn/aEn/aEkmKTclKTf/aEklKTf/aEn/aEn/aEn/aEn/aEn/aEkkKDYkKDYkKDclKTclKTclKTclKTclKTclKTclKTclKTclKTclKTclKTckKDYlKTclKTclKTclKTclKTf/aEklKTclKTclKTclKTclKTclKTclKTclKTclKTclKTf/aEklKTclKTckKTclKTclKTclKTclKTclKTf/aEn/aEklKTf/aEn/aEn/aEklKjf/aElNEPXWAAAA/3RSTlMACTl/vOO/fiwwhMK6fDQGCE6t5/3//92HJ9/lpUQFKKH0/9t4Ghx675QfR9PLYA4QZM/+yFXk+LNK7pouM6Dx3DzW4IMiCqjKWmbRmVH2QAO5+wy17I8knNlvFBeMwFhz8gE2qwSBHs0NYRYCsuogBAEFMSokYKM+Gk6XY3WTJqng/P4bU5nV+f+DByloreP9//pOAh7XgGkILGuw5VWd2TBvtOdZoGXBOQ63RkYS0RhLZfz3zxxQ08gM6SDFGaSm3YU41/+Sto+dlsNd97AJEBF7ur93h8vOlW4UxAtbFvJBjWz27/s8RF1+9fPs1DTpEzZ0q7OKcUJIxaKI+zu+qBftAAAOSUlEQVR4AezBBQGAMAAAsCsu/dsSAodt4d0AAAAAAAAAAAAAAAAAAAAAAAAAAAAAAAAAAAAAAAAAACCmXGpt2i4cph/GWqd5WcNGfj0sxhIGYRg+ZpyuGtu2bXsmtnH/69hoZlX5LuBZvM2f/ubmFxYZQARGJld8DKmQKxm8FlVqjZZ6P53eYMS7gclskS5abSZ4EO0OJ+1+LjfgkzEer08a6A8EQ09FCH+j3C8SxReLxaU8dbOJqdhL0aSh2y+hwleDZCot1stkc/BazBeo9vtTxLcGJZuoV6Gz/BPe8oyeCs1+1Rrg2wvVG1XBL79m6z0O2jR/ZzpdfHfdhV5f0MvPNRi+r+VcFPuNxsgymCwt87fSK3ZgwxbmCAbsTZB1sLq2zk/aMCuB3ZrMEAy4GUKODbfmeby8qtthhksK7RAMGAbk3K4+w6Hs7de63A4cHNILOEEeg59HVjbkWL4IfJwT/ycNiBg6ef90d3oWBH5K8ZxewDpeknfXYW0k/wPHP3V3duqu5/S4q7u7y6+nXOoOoS5XIBUWzdBAcT+roRXsrql7ih3cAZUrUO9RoefGrxJ2s8nObDZ8+6Svv/NU3s9OdmZ3dkOo94zJy0CAYujy3ojQ1CpgdVrYIELMio9XGuZbWFc/esXYdQE5OTiAEY5KqDROwxExZvySxcBVZwyDiNVYBbJRrl6zdp1wvfUbNm6CSrOshR0i13s5b2kyffNg8v6fT5Gr3pZNzi6uqg0C9bZu277DjXWHytOyOeKhWppMGdcDERpeG+Tg4enl7aNmMfbdCVwav23b/d1YjNldUHkU3W0QDWZYgC2noP0kRMRmgQLMFhgUHBKqYnE5bkCNX1h4RHk9XMkBodt4RGda/TfagV7jWTaIxPiFYCZlZFR0jAo/xQno6PfFlxG+T+tVekD4qjei06nHhFWg99HXDBLXexyY6xsfFlfgq/8O3L1HX6/yA9pWZxAlZoj9h/DC3n4E0avbgrn2uWEjAffHYixPwLj4hECg1Xcwopb49cRG8Ey7/gwSM7gvmB8wiRtwpz7gATkCag4e2ng4KTkFaDXqwCB6nw1ygmcapiIRzKBGL3lATdoXT09C6fQBoWEzJAEzvMG3zw7B7xixObQTvMwBlVvWHNE+/RqVFHDZURskhc2YT0dBuYm95Z/CiAfcIE9AjyAvbxfXp/UkBoTXxyNpJo0+Vp6m63Fk0rvd4OUNGBWqOoH1eAFln8rwMM2Ovg4wxfQY7r0E4OUdwif1+aQHtK3PL0B3icHeztQnTr3zMgc8LR5Q/qkM7xLD0CamjuB+bcH6AzY6wyDJmNQZJhbEdmfbvQIBoU4NZAbGxBBu3h5ehYCKWjbIIqbZwysRELouQhZx7sNXJCCcv4AsoONEeFUCTr/IINkxbRq/MgFh6Aoku14DQSIHD12ggxwrEQfdpYyMFGUlBJwyyw7JLLGWAugFbjmUGR6SlZ3lvTEnPk1pRkCH1WHfO2fn5uWlR//w47p84YAsrqigECSbfRzJbExXoJbmFe3jy7JPU7BJLs6Xr0gMeOnQEZfnfxJm2auxp6/pRAPGbDyp9xPQuT4NyWrSp/T5dkWoMQfrm+u1X0JAXVh2Ecv7o4pD4j1EAmK2Al+gY1uzE5IRM3oU0AlcE8tiQyVZN6gDeh4pwobYq2uDTATkK5JzSUyvV0OgE7exCAvz2eRAF/BarJEubESYxnIBG02Q8TxCfRl1dbQKG3M1SnOTIuBN7QlsTHGU0mIBYVUrJJvx3Sj7ZbPYuKu3yAPeDvLHJtzJUVosoKIuySHIMEhcoj3l+N3DYlNcdt0hDKg6HWL6j7qb4GipgFC7mXi+zt27zBFP2Go20NCFq7BJ7L0S0oAubti0mGsWC9huNCPW782qAMfGi35s0BSg4ZWEyYkExKLS11sqIPRMFAlzvyoAwFyxgtPOA40gLZYtIAG1u8ZSAZ1mkvQTL5haGygot7PYgKpYe9hfe0/NSgzIusbEphfkaq8K/AE+QSQB3YDeh+OJ+gEce5ORb0v+N/cwD3t3j9fPB/Ov+EWuOVLKSgh44mrIGs8HKSmX/G5k5pZgHtVpjXDAOzti9XKBXqNTyAR9P7GCy9sBOc1JfiJVwYZCeMbhobMbdUA2eWcgPHclyoc/L9SuFg6YnJav9wDoKQYh4zpXhQqqzjFxqJ4BCmlazFUSvh4qKHxUTBlQfcQPKrq2g+V94EfZrsbwvMYQ77PfbGc84GtAYZMr5lCH7wYOTfBdqoCsdz5w3XDBXFk6wYDpKWCmz00E3Ewe8CyQUz4+ITDL4FCeVtME9N8CfJt46+x7kRYK+H8MMmoO+RDuoJA+gu9uAAN+hykC+nqBgcIybil1sGUCzr8oz0nkVCMgFs87R5TpwFCOmjxg3hUwdIh7CLJrNRYJaPuWPNOY8R8CsdssN80tEODpQxxQtQsE5OfxKu+3SMBVzRBRQbHF3EwnIKVxxhwuq0GAsowlDXh1HQjhzZVKPS0S8NNpYkthsqVcYk8gtTsZc+zxACGZKtKAO+JAyC3uuT5pnyUCLusv08UENLodEDrIPYewT0DQNl/SgGVKEPLNVe5ZZI0lAo5sTnA5a8GIzgwS06w2EAoq5X6DBYOgh8WEAdkfQNBqH+7HHlkioH2iXBdU7Y4qgAyvTMk2ELQllPiKNAi64s/9mDtRQPkf/JL96cIbd/nfTYL8tKQBo0BQRh7vq0L+gMsW2CDZ2PVvBETWcQMWXQNBcRGkAYNBUEoy92M/yR+wYWsko8F9pR2BN4lGIH3A3RYPOGoeg+T09YdAgnd2dIsHQVuJj8BHZEP4e9kDfjrpf7I7NZJ7ElFfBkGrQ818TmR9BO9cI3dA+TepNl8F4vinV/aRudOY7SDIkz9dkjmgopoNkhl/hz7Z9GIjCNpWQhgQRytByM07vOmSzAEH9kKy6/EGiNNlY47sQrFLDiIB/eNASLCKu2L+Rt6Ajb+zxBbf+rYgyjGct0UvCAR4RJ8gDXj3GgjQrGVxRVo/wXsikgNO7IjkRf6o/4/cQ8M1GAR4hpp5OcsvAnNkBUK5J9yAh/NBmg/PdUKWcH8l9UwaZ+8GQ4/MvaCaUCI0i+F/M5QGgTS/TEMWYddiGYi5Eos5ir4QmAXGmnlJPz8dc7jtFDz8S26BJC070187INNsLojR8Pcl5PoZfMTdleqmkifwOGaWYI6IrfD/wrh/MFtWCBLM/9zOxJJsRr9O5mz0rQJiDrlhDtWRDODacI/utmZ0HP8PKOV9YrtGcB2Ei7wc5X6X6me/7q1uxgDv+L74GM7DXK7h3ADxWtob6485B7FmmwvmuvMbPHUwAnOVBqcArcV9TI1Sm55ge/04g6T6/UMQk6nCXKrs3wL1a7DMUglbOzbo9Cdgd84BzDlRKcswj1tZWFpKoG6338Mv5HlOjpmgAJg9a6bUhNN+ATFbtAYBir1vee7XBaasv5GZp5ayO+tu9KbIuEuX9qfddN+hMoi0Bp7LUWEe1s0lPSsrV1t8h2oRLHKLcsrkPr2RNJ1bggjH24aN2JKYvOysgoirkre3qe9F5OYecLnDYr4TWZfguZ/vmbs/UNFAZBE8qS+Ue2fJeAZJYTdrCog4mFupGyyLf4MXAkNYMwPWHo5MY/o/C7CS975eUiuGgphDxVjECZYwoIrFItRPHEDv0B2JAcnffdV6ADylqDpvEqLHzBsFIhzcS7BppaSXs9SxbtgkNjofKij0Zs0K2LYfzRgcNXaMHaI2SXwqs/tLFTb9dMcO0iMwk1+Ef4L2BI6HLuYEXDyDQaJSK4zBrrVqMJZ48v+Ks6mCrk8OkgZkvTxjWRP9ciOBZ9Nd+oB0j/ozUysGcPqjI/VU5gMQL/hlifF+4ZfyKW4qrfNnjfbLDgI+ZWaR5IDfLiIL0ILz3s+J5xIRneMjQdTu28VYWNLJDLq7ct8ks0b+pHA/MBSYUywxoKILYYmOAcuggqWbmzOIht2fy0CUJr5AjQ2xWi8d0AWEtI3FAglZ/wQdCNEcymOpAtK/BnlmT26B2v0Hd0IUWjsBgSs5O/gJWZ+TQQAGAf/ivQKUFxCUN535CVUR7qvBGD93LUv/nMiyP8lPqf3suXORdn2pLjEwE+YDCb/grNIXMzlWVVyQGaSBcvnZoT56oS779EM/JILj8rNxeeOnvKssyz59DN3NJyQ4DUxZ/SgrpkT/igB1ce5JEFNnOEWBd52Ay/b6fQYRS3UCMoWRCSfLkmN3HE6O/sHr4W79q6JXcxTqF4L5cRz6UZp/w+vJWu+QEOeNOTtXe4AYnWdYZnhZdkFywZ4jT9Y83C/rjxE0OzpyGfCtHEHxYwR1gZxyd/6V/N1KkIGjg1KpAXJKXUpKiodG7p/DuPi3AgQojpEvTb6eDlZnJunofXs6GDFq7HuEh/Gwj8DqpBLla310IZjw0eYhDCIwxhasTr1O4vk6tpmrANNWnSW42sq0mQJWp67o6EusN7ExiJo/uekkJMLmOlifv1eIvTV/81IgMur9c9NEd51bn8Ymt1QyM8+2B2IffjDM5B/WoR1Yob2DTf4C0HygMfJoL+MJZw4FK8R7VxHvt+QWAyXFwDM9jCS0aTEFrNJK4R/mYlo16AoStGvb54Lw27iXgpX6u7PQT4RPGAASLR77e6LhH/h7e7BabQ2mwReWt20H0i01OJswNduDFZvMvd1rM+b8dDDPyLrDGaTXu81KsGrtK9zjYObYy7FkHXB2xfOEzPHr08HKNW7SdKYdU77u6LxgNshiStUJNWwYxmbw711Gwitg1NAF1Ws0e69Be5DN/IFdvvuj+94PoXL92x4cCAAAAAAA+b82gqqqqqqqqqqqqqqqqqqqqqqqqqqqqqqqqqqqqqqqqqqqCnOx/C1J9IXqAAAAAElFTkSuQmCC;" vertex="1" parent="1">
          <mxGeometry x="1040" y="210" width="70" height="70" as="geometry" />
        </mxCell>
        <mxCell id="gBmrybwZXi2IvBzh7pCV-5" value="" style="shape=image;imageAspect=0;aspect=fixed;verticalLabelPosition=bottom;verticalAlign=top;image=data:image/png,iVBORw0KGgoAAAANSUhEUgAABLAAAAB7CAYAAABkQXmrAAAAAXNSR0IArs4c6QAAIABJREFUeF7sPWeAVNXV57zZBWxRY0miMRoTP6MgSFFsidJZEKwQlaJSFqVYF7CADkWBxYI0Zelgia4UAUGaEhM7KIrRJEajsSXRWFHK7rzz+fq979737pvZaTs780PZmVvPPf2ecy5C8VOEQJ5BIB6Pa6+uh2P1hH4SkfYrIDoaEH4BhIchwI8J4MeIehMirREClQKCTgB7EXAPAXyNQF8A4ueg00caau+TlngfEyVv1hx20Fvr1l2zJ8+2W1xOEQJFCBQhUIRAEQJFCBQhUIRAEQJFCBQhUIRAEQJFCCgggPUdQu3/7/ojoVFJk7ruY7/G+tert939eV3HKfZPHgKdm1fspzXa/+wS0s8iwN8CUksA2A9Agp7GVwTmT86v9p/Wl+GfWgB4GwieA9T/rDXSnln1XPwTVad8+v2iM8c3ramJHWOuqST1ldWhqzdpLHz+GCgaKJdf1/7KCcIbaLi3+o8VG+s4SqTu559z70FNsPbMSI3tRiUqBDDAlwBwj8H4t/PJIGgJYzUawB5AfXeC8Iv9qcl/qzYN+TqZvRXbZg8Cg7s/MAJAexs1er5q9ZDvszdz/ZopfsXCJp98gR1YEpKRl0VawQRW0rjm5RnVAz6rX7tP/2pHXPjgzyEWa5HqyCx7oxL68L5HLnsj1bEKvd+Nlz1+fQxwe01N4sV7q3vvKvT9prK/WwasKoOEprl9U1CSYrUl709Y3PUvqcxf7JMcBOJDn9kfa+ns5HqJrekIXB+PtzNsg6x97hy26RDStdPqNGFJCgiaxIR11d9Z/syqnuHSMYkFSpqWxPY+d/20dl/VbZTkek8f8U7jPY2/6Mj3Sp+CbZyygZzOabP/Tm6l6tZIWEuo74lp2m4d9C/1fff97PrbT/wSEQ0zO+8+Sos/71bMLKjn8aMO2FlKHyPAAebX3G7Ctyb8inj5pjemLMnn/RbS2s4/J37Qnu/0Xhrh+QTUHgCa8GeiQE3bgeU5rwQEEMHlOL8MVEHDD2YS5asAsKZU0x5d8eLYt/MdxhecfsdMIhom99WJEOTgo6APBjwBw0ejKd6hyKxAeaS+BoyzUnYuCAhknGKQ41Lo7+3Q6cPjj28WxM8f+2PFYdnAiUvaTWsLpL/ozhXgu/XWEuLctUlBBJ/yACznsE0fFkMNhRAHGjSIyuhBBM6/mQbfA8G7hPCORvCmHtNf0aDm5aUbRv43G/AtziGHwOBuVSfrCK9ZB4c1gPpWAHxW12DdziYH/bm6urdf92ywoBxx4dyf1yRKP6wzfej0zOeN9unU0GF7Xa9HrtABFjoIJdHJDGZiCWvFhwAXTH/s9wNV7Rri7xWXLj8dNXje3vteAHgFCP6ox2DdAb964/l4PK43RLj493zLFWsM2JTKYaHQTr2fv9YTcOqkJd3/XoRp5iBAQDixfPOjOmKvQP7hn95S+m0Fx9Nu9NLdB8ZndPsmc6sVRx43dEu7EsCnU9GvkunjbtbV6cJ2yVsAUvU5FEgeEZj/ClUfRZ7ufONqnEkuwGiu69R29IwzXs7mWVaOfPmnsVr4lJtTqp5b9ooFGrX+zu/B6xGokXPHFwzfQNg4cpYJELH+iXsA6D1EeIdIe0vX4ZVYDF++prLFR9mEs2wutWaQ6xWGzN/uxJHlmgZzTCD7kd39MngAhmC+2rfRvkeu3hYv3j5n+LzPbTPmHCJtKCH0AIImDpOT66hqg9s79iSMbbupNSfXbxsALK5FWrzupXhWBVpUsJsOLKBhol9BDit3d1LwKPqwizKFv9qYEIRQ+AG7M/hEnwiOAFRI3onlnXmg48vRcRA/fzRXDixnmZ6+JUGRQKBwUYq2EIrujAqmj0hoajivApxYsj3s0ADW1yCtOf7ML/5UNKYigThtjQZ1q7qfAK4SL39Mx/B/iGglgr7s598f/0x8S3ZvqdO2yTQN5DiweFaYhNyxadriO/ods1dcMSZNS6uXw1x34SNX6DHLgRUMRY4ZBe6z6MAKRoFRfZYvIoDLZUKVwDS8VoBGy07dXfvH3g3YYZ2MA8snnv3B/28eVFty2silXb6rl4RZDxY9rnzjSECt0lmqmgszuhLT2PhnImcOLHg66iWhX+aEXtzKtCzHeRfJ4pdYVcp+CoeJtH8E+yPcgOHsB0PPpXxxYAkMwjuU1G0WWdaR9LAFW015fKwC6KOPIIcZAr6TAH1DiVb6ZKMv924aUtWmJtusQ72vbK8oifk6nDRyGxC0MruwlrP5d/jWuF8RZm96o3JYElMXmyYBAaOm1StroDeBPgoIjPRATuAHs7HgSXzOYh8CqNFaEiHCTvYtariYdLxn9ctj/5nEVjPeVB6BlYTw4K43QuDL/sTSUoATy+F5nkLhUxhCIGO1FEcIu8HxIqgCIrBYfiBBB5XzykpRzaEDSwk+BX+zfxbTa6NFVCnoQzhNx2nlnn+EqAnnzM2zsNb7ERL8oRb1qoc3XvtOxompgU8wtNes/fd8V/oJoB3BzMBDpA/6nAAWxXR6oGrdkHcbIuj4CCy1jPGzUIN1MvShA2lls1f23dAQYWns2YnAYiHpBkiIAj4QTEZ/vRiBJYXPTVevOTjxzd6PAWAfvoEPfy3x+18EmJ9o0mjO3fO7f9DQ8DLYgZWEfuUB7dE7Fna/pKHBMBv7HVe+pR1A7UZANPO0/PxDcVrWEpkMjtxGYKkhxl60mzLE0k3VHW0FmtPloql/7vgR4kCkpVt89rVkrfz6Be2f09/DT5j9NZ8jsDh9QHV+PgBKrKPw82f0bzWmMMRgj6oWv8KonwPg4zrQnOunttweATnT0kS9t7RMk/5B2p1Y0RY1fFHYgBuK5WdtLt9io0hNRxdqsZYbt9+ZNaCnHxr5O2K3NreeZ0T7/oDczbwTcKhE4nfktiL1PAhhwKGKmR80DCfwBEMg/Ix044caoXbHspfG5oVB7UZguUtmOT2P8+YvoZxPLuqFtEM2+zkZx7C/UJmEJMXlSRRrox8T+p26IJDAJ4R0MOsRWIkX7dxWTskK3n4Ifdg/RVLmeID6MCs5EZG048tMA/U+9k2jkd37FBBWPrhpxJb85W71e2WDus8tJ6A5QfxTevIIOuiwgTSc/c0+P1rbkNLgDAdWrV76YVJp6z4U4emDPothrNWM5X1zHoqfC0xmI7Cc+QWzRsF+nJ+LDiz5CVb0WXEdAt0r/zVAfhj+QMAnNaL79znu9fUNJSpW7sAKVqBc/SpAQBNixZ0Lut2dC9oq1DknDv3jUYlEzVYgONy03RjVUKJeigqwT381+uc+AitMCeU3mLR+ZUdeeRcDKszwceBg88IeKHX6kNUsFu15mQEXvIcSndrekMsUQhYcUvZq6buBYk3oL0jE8AP0paKlgz6CJwySH/hnQLrrmsknr8p07azkrBMV7mfx9w7NK+aBjnzNA3c34dvimhG+smnHlFOzuPQGMVXXNhOOR9o7HQE6u9Y4q6Xa2Whyv4RDdgHnmKpx7rDciHjCWPK1ALgAS/RxuS76zjuw5NwyEHoR983TByOnFLcG3rz2v3w1B2SiiD9/38pZ4RkgDEKJKaC/FcKrFiLZd2DZNbAY/K4X9OHSVTKpg9YtolUTwNqwkAZuGgb4DGmJMQ9uuNap4dIg+Gc2Njmoe9U2AjuC2ToBU1tW3u565P3XWh3GH33qx482BCOXTSEUZFqEAwtIrf3z4S2OapftIsIRlpvxJrIaWFy6s+IamJV+xRRC2XERVvRZYRQUP0E0g4IlIJttRABvoobjpiw+b1mmjZGMI5xiAtGBFaxfMexSwgpcxaMWSes0cVFZ8RImDYc7YsTaxofubfwsAJj2mvx02IkCzHeffpXvEViu2WSUZogin336mAUr5tUr5Vn49DEH2EK/utIHP6Bgtwg6v9quz4sIrPBlRtOvJAxGYRV7wLTlppo+fLQSYH6J6BKwEsbsM/sQvkpAY6+d2nKtEuVSbKAAdYqjZrjbOSdfd5BWW/IRAO7nErdAZApkd4Ct6VdtfP0u3y10hjdQwMP36tUrtvO9EyoQaBwANGaoitu169uwLXQxsIc9P1HZYn0jhg0cIZqKk3jWTYY1uac0qw4GvwOgSYfsS3cv2hLfrWqdid/PO/2OmWjUwFLcPTk5857w869GDV8hNEaxIY7iFAcsVy2YEQJ0D4/evYKIroD28WN+/TyDCN+95U1BgJzVwKqP9JHM7aDnvLIOLUzBsh5boIdqAUb/YeOIevVqaCZ4QDrGvKJH1SmxBHjFTk2CcA0vTsmSmroO/7R+/MsPr+7F566+sqCNXNOBpZd+aMmb5OVHIH0QVM5e2X90Os61Po3hj8AS5QeXc8nrD0LkBS6YVizizsFo5KXLzyYNtnj6kV9AOtqPTfuMzOX0K4szvI4a3T558QUZv1XPFQ7zDqxwBYRN9JCnWTleEvpPqYZt4vO6Ncgoy3Se5bghm6uAaLCJraYzx/5IS7NKzi8Av3PnwDJqYHkabSiDs/ccFZ6plXRgVmPWMWX/ltkPXOw8v3wG1qH0wfTytA/mMtMFD2/PB1FnXjiweFXKUXA5l6v6klAEoNJZw+G3L7NBQJwA+rBFgoT/+0aQWFA+840hz7VAcN21U1umPYtJCZOoBJPNdh1OGmkUsZ4ZmOrEKePyldlNviv9ft8j1v0jPwt2ZxOm6Zjr3Ba3HpkowUcR8EyeMUtMIMeBaD8MIiKiQ2ByFGVvCRkOEVyomqVXN4c8YkK4IzBtjo6A76KGVz3x4thN6YBbMmPIUwglDj4/JDjpwHJYcXbekHAGsr+NUAPLaqk8YLaVbTBL4o0UHCqVFwidCgKqKKyc18BiohSToo/QFzoDdp1O+ohU/8qhWjsazp5fruy4WszXAHjd0o3DFiVDM8W2IgQGdK+ahwQDvaBKHgHCuS9bdZuj9tcoASPmrxv0XCHC3K2BVVf54aMPwztbgthjxvJ+TxYi3IL2xEZg+dgPLz9CgOL0K0ZgiUAa2Wf5wwBwabAGzMgCgf/73zqzGhDBy0gwovLhC7L60lc26CI8hVBuQAeLOq89Ab3U6OhjfhePNzVeOSx+UoDAuCGbBgLBPEtp9GDrl1OBmnBANoDRP69TCG1YWQ47Q1I4lyfRgGg5shiQRTJ5vNRMaVQ8N7VcU3BPKFB/l9OTa5kIwwoGjM9+sBaVVw6sAAeF0nnFmWecfuXuWTh9QYDy/YLNKJ+dxs0dkqXiL1CskB8IuJuAbvvpP9+5J50PhSjMw2hEku1W7U8auQMImgmLN78IV735X3HBph1Tik8vp+EAy1qOPRs1eBQAfhKsMInHE3xaAajJdBBZmhqdncikSBFbvo24N+imn8WUCgsOAP36h7L4YmFUB5aPDzGcKBn6EA3VMFQR6dH+JoLQ9NgtM4NcZrkNvELuAYxW6M8I5gg4n5MUwlD8VvM3lv2J1JAl+ogAW6uJd0DRQ9xNRW6V3ih2xcNPDv0y8lTFhi4EynvNOTDxnfYxILkRzM6PyvRar6HwcIaJusb75oCLY41KRz+wov9/CwnsYg0sNT2x+w+LUCSgLzQsaTVreZ8GUzw7NALLXz9RAmqWvRcdWDyljej12GGNG5d8iASNefEbIv8ZGMsx2/4WSQeAeTE84JZJSzr+r1BoPMorhBz0pPqJHL4EOOfOhWVXFQqssrmP8YM3nUKIzwJQE6tGqBhypebEDu56N7tOn9w5sJCJwFJANHLhdm8c7qGjyJeKHv66Gdzqx8e9MhDsxXkS9CHYK7x6GPlRtpw7sELNqwj2h9CfOY8oRFcX+vARUbj5JRfIEazL5wC0S66pbJGWiFQ13UcBWhbbdGwx+iw9of9JunA2rldSr8cBrksbCKdveqPyxSwuvyCn6tomfglSYjECNAreoO+lA2mUCKfui0P5DlAklnB0ZtPqPAdWBO+KvRLHAGHl5w/PU/+zhKDPipdveyEbhys6sKSsX16tKln6EI5DAV8OAMoDFsAl3EyEc0O3hlJyUVjGtNHq/GQ9Agv0F9li9Wph4AMhQx9yfSUCfVjgsVOk7D9UL6b46CO8wJgfqXw1sEKJiGMA72FJ7OIl665+LRt0V0hzDOg2dxgCzRTvejyVRXlLaDblMZRVeH54ZO4rAhg5f80g69a8AD5uCqGT8prkntQptvRi7WFNf1eVg+eok9xKWprLamB5A6vlB4t9xSLu/JGM6vv4SCKtMqTSlVy/cvm/7Ih5+YEA/yOk6yuXXrA0LQiR40GiOLCcJUrYn0QY818h0ICJC7svzPE269X0d45Ye1jNntJtAHiU67wyRY+oyyi1U59F7vCP3KUQJuHASjKF0JLOTM2sSJY+D6AAXwiDP6L853IoAp0xju7gpw/rb5dnSfsHo6/RPKcOLMHB4N+fl9Yn91/4H6uS61eBEODKOgi8Wk33rsfSUu1Ssj/sWeToZn1LQJ8B0KXXVrbarF5UeItIaF3XSdLZv2OziiU6YD+WBNy0k2DM55ZgHgziXza/McV+GS+dK2xYY3VrOfYqQJgFCFq4K4hBNQlliOQWMhrT3/tndFT2GHP0Pp7iYlE278SiWgSoWPXS7fdl+vTlDqxwgWCuiduqmjUJ0Ffc4MhHVHJBF1yBdxPhS03BieUAQ+3EykkElre81IRIYP/ouJ4KfQQUqI5ADtYBm8Z9ZF+yqyl8BzHsvfSp4RkrEhlhA/WuyaBuVW8QwElMABwXoakgOW+/JkqJrdlvCGA1aDR43qrB/6l3gPIt2HFgmftLKZXDxvMQQCDCtFnL+19f32EVZf2yFEJBD4iIjMUILA/iRIQj+yz/OyD+Wi3pJSdld+JFfrD8QKRltbUlV939SI/Po5x7vraJ6sCSwjSafrVb0/WzJiw+d1u+wiCf1vXYY4/F3t508HoA7MAbcGIUllq7kdsfxre5i8AyamBFY3BOCqHyYkk4QEa/iny4vFUVXtbBs4zYf4Wb4uE6gzGO2D/8hJ1fc+rAkgLAD/Rko7Ds81M9PMVOI/E8KunDr3/bBxBo1/mVdaZhcB9mkQi1SFA+ovLkOjn0lfuKjPNZaNjhNzcfQiW1RuhZE0FeOPNzmB+8KEK4/uk3KqdlYdkFO0W3VrddSaDPR+ZqWW6DStDMJ09EICkYViACBIDboSr7Z/VtOD+OY2A7r6ZJ/TmIixt/kyivfiuesVoHKUVgSUEZTSCYUIjgvBLJzx4/glOCF8oM5+Qkme88VFFBwvZ4BFAqAlbIds6KuKd0A8LKh2zSBxPeTmadOFShDOdR5dArEF/k50cAtUT6wAc3XbOkYBltGjc2uPuCM3SqfU4kn2Tpw0Ew+7zDnzP/XEcYPH/1oJVp3ErWh3JrYCV5G86mq6vpA0kjuHDmyn71GlZRDsdxYLGsylPf1PKDNbN0gAXTi0XcTbBXXLayI6K+MfwMfAJS0I84iyjCUPhv1PUBUx66YF2Us8/HNsEOLFFXcmVWqLzyduniKtG/Shrt2zpe1a5eO/uycX7jyjdVAsBISwf1CxjvTNRGrC/7w6fS5s6BFS0Ci80WYeLVFUfgyedkbR0L3NEvn2UFPFKhD0fdF02O6LZKXjiwHHzlTihZ/cpDetZWiageC3XilAycVefUJh8fESER4PyJBZ8fAd1ybWXLSanyEzXtpzpyBvq1O+nG65G0e5yhzcVLGZsycHpPbP99j1j/QvyLDCyzQQxZ1vK2MtT01QQYC1d1JJTBxJlKVAN/HCUPT09rtW0wAQFC4c87mpNHf5UwQILN+6N+YabqYnmvEHJUIN1zHeiD0bxs+LpnFl2YuCFEISfiww7xidnQ6RRuKElfp8aPVMb41pmTCCwWnZUvH0s36O5CDjrF+XGBUOmnDz8qeI5h6xd1qQafaLT+1BNElz+0ccSDDYL51mGTA7pVGane/S1giwMpa2D58NM/SBDGmC9JIkz5uskBY6qreyfqsIWcdXVqYDHMMem1qOSHfSxf6Rhrff/yPu8lPUE96mDUwKIYLHREi4iSSgboonAxhdA7+Io+y6sB4GI5iQsEzGGMox95fZPQrxB0IBy/769fmxCPx406WfXqE1zEnad4IU2Kh2DwQ0KeubKxxc6dZeksZlyvAB1hseMGb7yIEB8X5IlPQRD1R0HDsL/wXYza3xr989mBxZY9sfSj5HQyvm6vXObzEPPGd+0Hp4HUrPbpY0GPR7mTMAacBA/k5x0qIbjHxkt0anvDjDOy+sBE5ciXfxqrhU9dnSo0eUhxfiIABO4SSj51og9RARdXKzFQmONJWn5YIv7mEVNOnhyBLQhNkqOGVGZIY5/2zSr+CoDHuyQQKFuVRtojm96ovCyNS2tQQ3VvNeYEHdGo+XQgu3ElsjuN7YbBqpTy/AKyjaKhs/cEerT27rL9L3oEnDohvhxrkuiyckv8q3QjBu/AkkPQ3VUggOX7FkSLWDQsnHf6hZTIzaSqnimYXe7PNFHy+oAGgTLS+iFK9JVdByo3EVgMfRjQEOVhhujDhlvd6EOdJuWxAV9NACU58gfrK+mWQE27cPFTQ1elm+YKZbyBveb9mL7TP0aEJnIGmgR9SOg1XDV1LYaNjUpKL5214vJ6V/zZicCqE31E4T+WHrlV23XoWTPWddtTKPjn30dgDayI6cQOuzD4YzGF0IJu/Ionf7qzZs+/AKA0mJ2Gy81gGzma3AGgNXtj0G/aogvSrv9kkhZEB1YE/UoqoCPoVwhTJi7odlMm91Nfx54waOMJuqa9BEAHSPdgI2iw/cAaGr7bckaZck4pbx1Yvg0q9VYfsNjLwWT8Xu4llhLAGaIPV5EIX4Ds17yIwApkr0xNsjDi5Aw4r2F09dizpjhnuzCngGCcsZGS/Aj1kfpGZKZHoGEjKlvOTpZnKWGS7ICZat+h6ah2hOS+2sDWKzMNYGEn4tZceGnQfvPrlc9kaq2FPO4558Sb7PNt7csIeJJJHDaFyOEf4jm3Iz1MWElfuZCgJovwQv8IqMz1Z9VfE4OUx5bU7YeGo1a9MHaqctAkG3gphCzzEdfPGvemzI5IH64+Jl79hK5UHJ49IBG88tUzo4Rvz6195akqwczRbGP+7LVhW8svlkx1IbsOLKaIO+v7S4o+XHqyAOgJsCj47ZKzz8kXIQ80ydtBp2aWe36RNCzm/OwyGF5/szDRd7qGv3tw/fBXkySrBtF8UPe51xHRvR49yIqGWqCIQh8mtjCRmREwzMZJfC8GWtc5a658pz4BPriIu4Q+fPyLTSOMsmer5ok+e/byy4dFaV8f27CvEIbLD/mrY7x2gQumFVMIoaLP8luBYCInP6TaTYB+ZSOSSP8RqNtuYlID4d+wpFHXyYvK3q8vuMk7sDKnX9kcloASF09cdO7y+gKfbKwzPmLtj3BPIyOC5nhhPp/+HmxdOBLM14JR+Vn6yEUR9zuGbmkHYKQQyl0McvVbTYOsPmWlq9vYloJ+5RPvvuOITh+CQiH/wlemV6bgeUsImj0vHFgBClSkV9O5TBfm/CLYp5aRZ/VhM038y/E0vAD6kCW2SYlRghJR5Yf/AIESiNRjxJRWSaWgR6eIbHCvkDk6NBv5BwL4vUuQTmSCAwiGOQW9UGEdF727aUflcWikNBQ/SUOgrM3Ye0GH65zUTf9laeRoEfu85AgYoFxJL1P8CCDfkhhMFK2fTCBEcGRNW/XS2BsMNS5pACs6iDWwgiHoOq6EQxH7sPyE+9VliuGsgiM/VkApOAzjkrB3bi9WcTzcCysymAn9+R0qGV8ua2Axiwtep+8X3wF624+G5+mgD5O7UtQILGtd3G2fOUCQL1k8Pxl+E9BHuB+evGTF8HoX4ZNuXsGPRzioe9VbRPgblzw5WPPKj3ItLlpZeBjIP6QDmX0+0zToNmfVwK3KufKkgReBxe5YyUks+NgGRNL0oeHvZy3r91iegCCtyzAisAisFEJBfiQZhVVMIQSIx0n79u/L30PEo1k9OUAj4r8OlB/qkSz8tk0n19doDvgpUKxsyoM9Xk8r4mRosCgphA7lu0uQkn8E/cqyz78tLY2dGq/q8tcMbaleDWs8PjCufPMyRLhAWHhANoCa+9otQvA7dxFYThH34GNytu1E/UZ/PMTWryI5rkQJ7hPvIXgUIP9D1c5o9GHpguH6q//XvHBgSZDSsVcsSEsbBPgyPfiGq8eMw48583TQh3j4zKj+A2DMN1HASHZg97flxzegx1pdM/Wkd6MyLvX+oo6UwXadm1ccntDxQwJoFIjO7k4UCK/RzZten5pSvmUGt1gvhu7W8tY2gNpLBKT5nYRyRBLUUu7RDcmvjCnk/roLUXuZgP6ChG+jBh9BLfy7pAS+2FNSswdqSvfoMWii1SQOQC12AGpwECbg/wDhBEI4AQhaAMCPLCuCnT551I/guDKUtkmrXrr9lkwd6PmnTTRefBxqjS9CsM704X8BxOU5anjxooypXxLglOBXH8DUQ7i2MqRaGDK5F0ByUsSdOcBo9MFgGtMhSsSdqCRmgz68WbkbKTV6CZ4trgv7h05rFm8a3rN4SeHBesi5DxxXo2sbEOAYjnVwSJAcfUStf8WeOP/oEu1Ewouq1gzckCl+mc5xnRpYFjuLhLA8dCMbEw53N+f4JqZpbaYv61OvotWiwF0egaVkgO7QLH8sphACjO7z2EkJiK0BwF+w2oFoSAQL5GDtWY3vPHrb7Ym+1lA7b9LSnn+MghO5bCNPIeQVEA4+UgGdBATN/trbe2H/tpULzvo2l3vPh7nHDd50MyDcGbgWE14eHsr1I7a3r4UPhZ0/c+fAilbE3dy1b+9Rzsu7NIlSW1TkGC49h14qZpo+gunJWTG7vJw7sEKXm6p+FVHjcHGEbx94fH77MYA+IskPu28S3E8Y1uqL2+D7fc+8ZsZxkUonqKVSFErJcJsOTUePItSnyFiTT0MMLQCOALWNmtBRa1+Z+u8ML7nghicgLGt9+4tIdGpAzp9EpfcH8qXxAAAgAElEQVShs/OnzXlEZHcbfACI1TrFVu7/vf5KXV71K29dXvqh9pMzSrRYVyDoRgDN7fpGSZ+R0oGF2thVL46ZmPTASXQ4/7SJowDRLNDq//jAK2ngPD9sH4A8etnsZ45lD+iek5u36zinTNZ4MAD8WiL+lC8ES87/C0QM9r77uZWPM/uNymDGHRXg+NVjz1Z0jtq6Lu0uaTetLTAphPJHYBQn7OlrOxHxbRl+pGB3M8NEExcI0JgQ90WAQwDAwA/pR4iiUw7PN+Dwx9c3RnjVwo3D5tTlTAqxb3mPOYcmErE2BIm2CNgVEE41rCiLfn01yZQMhqdg9fEJYRrGjHuAsGd9cGLlwoFlJAEjwOuNSpqcfm91712FhJNiDSyGvznWUwgTZ7GvGIHlYUZFv+WHI2htQNfbEkEZILSxJHa4/GDTqkRaVlK3e6cpMbe+1wC75bsTK7gGlrV3AXqCAqOAbwA/JYJlExeW9UJMf8R+feEXtw/Y0Fkr0dYCAPcoFLd+lydYYX7BxrLTS2J/+LQZA1dzkUI4buiWdiVmCmH0T7D9gd8A0N+EkQypbjylYEp3UR236NTXSAIfF5qydBtG8bdGsmCuRTidYL3Q+oU1T6xgLN95WuFoPIroeEXFjNPeig7Vurd0i7gr1XNrrYokgxpC2G60s4+NOULnG2fNzOGyrl3PDpAfvLtlCQUhlALAfgB0MAIeykMng/KDfa+FaNKIypaRgkDUUqnu51unEQzHSYdmI98BwF8FsCXvkMIOxvpt5eYdlWJ4ap1W2DA6l7UZczHoUO0LY+IgLoeElEhcKmZ/JcBnSae72vbUnszUKzY9T423IYRhoOPvf3gVa5+op+fU7JELEYMlaRWrXhp7d9TxCqXdRb+ddBHpYL4W4zFm5i+FluH9bLKi6sf/PLp3ocAmmX2YDizSXzT7KMEXDtQfHBMvPvzMdacnM3+m2vbqOOfAJoldv6GS2GkAcDboZDhNGLqz9qJ0DgdwGhcSPkmGgF9TI63pkjVXf5ypvRXCuFddsOTw2j17uhPABYhURoAlSsOAa2Cfn+38UisUjh3NKZ+7KKZ1m7fyyi35DFOnBpYyfVmyiXD5EbZrV2mcO3tF//J8hk+ya2MdWD4zxJMmEeVHMQIrGPq39F32sxqIdUfSL9QBO6PpJBBuf6Q6mTdqOGV7qU5WD8GJRbBT07TOk5b0MB7/yctPcAohDysJ+/MFo4pIG4jGzg8a3DRxfjfukj4vgZSBRcWvWncM6iVbCfAQtfxw8lV554WyX0BKstGvfkRghe2Qnr5l1tkdMnA0xSEjQIB7hdCnv/P803tAKuRe5tMb7jnliAjTZrzJkqmv7/e//+rHkU6nxTT8LQIZeuKB0sgEBj3lvC6C/PBMn1qAkjbXTGmmTD1X0n3GoaSYoH2zkUYExHp/M27h0l2IKhFCrPvGHZMML3/xkwQEDCdit9ZjdwBBU7dbpDzbYO2TvWAFgPc0hOvWvDJ+dRLLqlPTXqfHf7xLh+sR8Dog2D/UhGD2ajr9HSZlaWqECMOfeOm2pF9QqNMG8qSz4cACHR4XlhMhXcbnvDKGKDqwbECqwSd4bLwHFfLIgeXHi36dp+4H1LgX6WjU0TPSe2UlCyXY7Rry5m9ctF0w/390yYZhl+QJqeT9Mq46d/GRNbRnICAOQoKjQhccwP+Dgzr582MP3To+M52w85w1A/PWwHVqYFmxLNFVp+jOWRbiTISBPRUR9J29ot9DeY9IERfoOLDk5KtQeLk50LilXjC9WMRdCfnRvVb9IlGaGIQIAwHAMpRYUNsELE0HDBqdje1ya6DIzo++jpHW/s4He+blIxtiEXdLwfOnSnMyS5leJQWvT+aZsEoAYNeJC7puUh5iATWIX/FME2hU+xwCtlLKG6YoebQILIkyJcHvfHdgqeQHIj1988yiAytXZGE6sBLwqRsy5ueptrZgoV5AOqCnHuWNA8sPz+kj3mmsN/n2XCC8DhHOcn/3yw82mkoQMHLV3hnC1R8JXxhe2fxMVRmQ6FpYjrCjfbOKZQB4oTM9qwb7HAlWkwDLjwA+OmTHP4+phupEjrZSb6ctaz2mM5DtRPTFmfvMkoA0QmbrfrubcFGsya5rVj1XmZMaAD3b3vETpNpbdYAhANDIf0ihr6UR6YA4eNVLty2ot4dbx4U7EVgeffqclgoO45lpJvEWHVgSvxR/ROqbDKD8icAKQ68+nadfrBFMBcJjXDtAKZG8BnL+z8xISKBppy1Zf7XxqlHxExECvXo9Fjtw19cX/+Ccvx0ATuC6ceQtHpb6+PgWPsXl85JSbHv/8gHvRVxqVps5KYTepMrdWsWtHa2MKeYebeHoqTPmGLiTQD919or+QnpwtPHyq5VRA4tisNBYlef4ZBBMDV7XNCimECZ3tvH4MyW73vnqEh3hNiA4zpXfzOPBFvgF00IURxx+sz9LD/DTkhJqe8fC8z9MbsWZbx2liLuwI/UXAvvkv+Csv89jJaWtx1V1+lfmd5sfM4wr37iAAK/09EfFuvwpY8ptBCtUzi/57MBiH0cwqVFq3xYjsJRokMEGXARWJHsnZDEIn95wd35EYIWB7L5RrxoRf/cC4Ems405ee1dRq4ZRANj+moa9hk1qIQZHMAuLoCJk8OQVQ3dqOeqI2hr9fQQ08jLdj7towZsVxgZx/OYdUwyFvPhJEgJlrcY+AUA93dBBG8sCwS+clBiujgQ6AY1cu23CPUkuJyPNz2sbP5EIHyCA3wZNwAsPqiUt1n/1C2MeyciC6smgrAPL51qQXVz6lDkLg5g7iaIDy9RSLDAFM+eAX2yCzKcUQhUal/eYs+93u/ZO0xAGq9o6EHFNXCUDMmo60dNLNwwvhtergSu0MBxZP/ruq8sQ8Tanzh2PmHJnVOBUvjwj2fH98NLw2zUx7YxFK6/8KoUlZ7QLm0IYZaLUnVcWZEx5Q/adrQ1q4zGT2ppdp1atHvJ9lDXkc5vAFMKAdB//XljsKzqwUjtpw5H13Tvf9AfQxwJaDzzwclxhfPicVwHxBf7Fvb7PAT86Kz673c7UVp2ZXsFF3Pn5/KV4vF8Z56tkiYLd4g7EQp22luj7/Da+qN3uzOwyf0YdP2TzVTrR/c6KlMaoRH4YfYPTsVjnqxcW4j+lfHVgsfLDMrnkECpGYOUWp6UphFL6t2qMBuK5hZh5G4Hl35IhO3686+DbSadb7GJqPrtFoaD7fhbsR6C//+S9v5/Yu7p3YNCRkmfkEjXaN71xDCBOsNbgU5aZzVsF3pw2MoFLOtXqxz799t0f5HI/9XHuLqfHf4x7av+NYBR3Y1CMuamziqLL1EtGu+FriBppd4Of3Dp+fj7BxMgGPPfU8QNiAHdbub6sasK9qrcXQbvkiZfHrMin9ediLWwNLG5+NlJPInvZZ2Wtn00EatgOLKaIuwJ8cjHoOL7qSQQWiy/9O8+8nHSaC1YRyYAPz38c497EnxD+o2l46qKnhr2SC/oohDnLy+eUJj6M3YAajAWg/SxxzAtgVZqD24dJ4fBJBxdUBLTxnW8/6rZlS7w2n+DHR2CxCCeqpak7r2xtB9GO3LKgxMKXgBbNXt7fjVrIJxgls5bgGlhOnRtOAPPixay55mEQAi6YVkwhTAb8XNsRZWsb73PInlEEcDMA7MNHRksFuBc2Z/8c7M6WmW20ep9fbT8/U7VOUwGEmELIcyjO3mL/cMETbk5xvzr80zVXuF/nT1xQNiiVPdSXPvGr154GtaV//OHVQTPrIVJKti9tPUh+2ByUiesUEZR1beWiiPsdQ7e0g5Ai7snJj2IEVi7xnivibiwkwEulxPF65sByYD5t9PYuSGTUQd5fjKR2Wvl4o4R/yuQHUaLXNZWtAqOw8taBFY/HtWcf3/keAB7tR05eEDgIE+bto6c275halkskr69zl7UZOwB0ms+9wSIRJMGI5FjVrDyhsWu3Tcjoa311gXf3U+LHaoCP2C90cQYEAe3WEtpFT2wdW6ylBgB+B5Z7A+uQo4LD+N6SadgOLKaIuwi+MP7GFH63lMG8KeKeDB327TKrK+r6SgBoLPbj9+/CJxC/PAgSQPXSDcMa5OMAycBf1bb83MW/SOg1D6BGZf5CnqxBID0S8TrZ4qsBkxLhxLlrBoxVrSmbvzs1sMJuwwVdxXn41ZaZRFEfLLDw14nC8gMKCQbMXNHPTL+rrx/DgUUACyXuP2mdWHafHnVb/ypGYKUHC24asObYxN6aKgSwo1aVAtx9lNo0XtzLTLVpgQC3TF563qT0rLzuo4SlEArSVxDQ4fJZ4I8KAYYEQyYsLKuq+67yb4Q7Bm36SY0G2wDoSOfl23TLD2/XjP3BOBfY48vXCCxTPhoXGeZLtGH0VHRg5RLLhRpYkqPyXngOOEuPfdSbCCwW5vfdtK016NpGIDiYv0xWGIJy8nQ1QwR6afiUk40HoKQftZTJEWZ0bFbRXQdcIyiErINTKhUkC0botfmNytBcyhxtM++nLWs15g8A8HtroUy1Tp9fSo5IolhCgPWn9NC65dPNm+wQylvPKf009m/jVZjr3b0DfBcjOm/lK7dvzvuDy9ICxQgshmFF0H09ncJs3LAdWEYEFvMJpqnAKx5LzamHEVjOtvt2nHERIjwqf06bh4grKAPjsl3+szcW03++cN01n2WJLAp2GiNKtbzH/KuB9LsINO4VV7UywcuPUKMFQdcJO81bPSCpp8YzCXgrAqvRh2FJK4GKlrR2SdhqvfpXktfCjSV8nwBq+8CK/m9mcs+ZHFvqwPKlCYVDyPu16MBK30kZl8ffvXvytUg0CQAbR8J3N0BdYbBw8g1rifSzpzx4/vPpW33qI0VJIeR2J2VgwVxQ+CVMgCHsIcDf3TG/a0HVbzTSjuDjxEZAOsefrKo8OR8PVTq9uPptQmVp99e8dWBxD/aG4FWxiLsSdTLZQIjACpisUCOwnO3OuPm1MykBGwhgXw9bQ+SBj4CtP8X2jQCbD5nSfIcMrGqdM5MnHzJ2+2YVqwCwBys8PScl8xIcZ7zItkP//XFiv6Oq34rvzdFW6vO0WNZqzH8A4DALt4QKn+7eIhnbCLsRtaZPvhLPyyK9soM699T4VYg4Ewi+I4x1X/PSmD/X5wNN99p5BxZDoY6yEZL0zbMq4y+jiPuoBhkpc0m7aW3BcWDZMBNZebjK5paOqccOLAM/+3WczqSOsxjLi0WJrPOhtwdBQrp+6frh09KN/w11vME9qpqCrq0gpOPY2mSh8PDxBKWpi/CptnvvyQ9suPq/+QDn4BRC9eqSidqyRrMcWFLnlTsd/ZViTU6ZXd07r2oJqaFhtRBfIZTIj5DBWPwpOrCiQj16u5GXrTj5h5diVyCiWRtL9bHSXENqZvkHMJvjvzChnTz54XO/VI2f6d/lDixPgeGkb6jzSq70cDqy+Uc4B0Sgj2KNYq3jD3TJC/6XDvjHyzfeAwTXyx7bUhqjEgdWaE0hP3yZCdi58tmB5aSjeca9eArFGljpwMzUx2joKYQs5GaO2t4vAbQkyBnFQdnH/nwPerlNdcR7r53c/AbZCSl5RurHmnrP3zW74agS0P5p3cLLzTiBcbk78W2J9Kmb37xrVOqrabg9u7W89WhCfN9RqF1nokTuBiMS0xi1WWu3xofXN4ie13ZCN12nz1a/cluxjo7v8OQ1sNgzD62yyVC3iUENOwKLSSFkFRdpio0/0Z4FeT13YMXjpP3juVmbEYxbWucT4M6L4AUxRiCA55duGHZmfeM9+bze685feNDOmtpHALGrWpGwDyppJxYur1o14KJ8gIPnwFIinbDcSDXCxF4efwwG8EOzlvfrmw/wSXYNwTWwfLgSMrBzEgS4YHqxBlayR6Bsf+Olqw/VYrWPImD7sMbu5YnZKDn6QMQHJy/p2U+5mAw3CE4hDHBiSbcqJ1Tpt5GcWPhM7L3GneNb2uVVPcBUjiI+eP0lAJpRmoN/mSL0wRp7pgBvvhrTGF7iU6ScM8lbBxaDX+Hyo5hCmAo+pquPtIi7gGuRCrgbS6qXKYQsLO8b+dpSQOjL87wABUYq6n1UTfDh8MrmRyMgW/bOlTTpOse0jdO+WUUcAENfDBR5v7NpzuAhHfGEZ96o/FvaFteABiprdVsPAH2VhSlO9JVXhTdcePgQ1giH1fUTn3x1YkE8Ad6A0CB0q4YDC3QQ03MVKTMBzK3owGL0NR7wMv7mNGZaGjVI6mkNLHa/fTpMP1FD3G4VdReFX/T0QWtURNA1bZ+fLlw3oJhGmEbmZbxUeOCurx9AwPCiw5z8YNLjgt9WclepaXThA08MzPmDGc4rhJZdoXbZuZpI0umD9vhq68yZYsis5f3qXb0cMQKLQcwk5YcOUHRgpZGu2aGMRxwO/P7wBQgodZSyR8UX8Y26IMM0obLJD573VNQemWgnFnH3ZhGkr0D+wfJZ7rxyvg2P1rLgSXdPXNCtIhN7ztaY8aueaUaJ2hcRgHkExJbNqkW4xp4BCrvKqg2+4AgsBursATDR7c60eenAipg+aOk29PTNM88uvrSswqMM/S7UwLIUBFaYccmsws/sF/XoFcIgcN5f8frhNaj/DRAPCqlob3WXPgAnQoiwpNU1k5u+5p8zuhaWocP3D2soxP97+2XjtcAjpYZL0A5cTuZtCQn+uOnNSuYWP0ubKJBpylqNvQ6A7uW2E5CHHrxl6zwQ4O0nt40/sUBAU9yGDQHHgSVVXCNwF88QNAm46MAK0Ls8hAsHqpXFUT+LuPuJql+nGcYT21fx3zP8XaoJ8IoD+5cO0PfBDcMeKhJvuiFAOLD7/EmIMFpJ8inIDwL4BJvsf2JVde+v073yZMbzamBF7+WkVZl2l+81QfUonqPPUfYC/Ga7NYLTZqzo97p6zPxp4dTAEvSLiFlormYBAEUHVmbP1aiL9f27J98LBNfw52X/lRJ+s69r0vu11KTZXUu7fJfZnQSPHrUGljuC3DMlgIcNGxCzLBXy3B1N//2EBd0fyxVs6jLv5PKNB+4m2gqAv5YZ9hx8VBMlKz/Ysic+fcGBfF46sGw4eJFXwUyx6MBSIU1mf+cisBSObeXFF8KnN9x9yhGZXXHmR58xevtNZNVQDJ1MJE/5rR0S3DK8soXw4IdS38z8VvkZOp44+jxdM16iiuBbFy4x+M1rhP02vjnlwWzvoVDmK2s9dioQMTc/NsCZ/4XrmoyxiVT15NYJQwoFNsV9WBCQphDy+QQCqDwqZW8tTVxp2A4sowaWfSMRfC+rKCpmGMkF4sDq22XWr1HXjehZzUIi1mRlbrmk+eQyONH9SzYMH1qk3cxAoPzc+ZN+eKX1psDRfXwhPAaBtzYQaPac1QOHZWbl0UblUwjVfcwXpGzPVTIphO7LXAJ7DJ3zH9oubD1jXd9v1CvLjxaBKYQRoq/sOAy35lKxBlZ2znRUn5X3AdpOLB9++q4WlAvy0wcB3DVlSc+Ryo4ZaqByYLl6i9zGUqZOuvAR/yHdEccfEXdCLZw2YXHXv2Ro+xkZlohw3JBNK4GgJ586aL3GFtFXbYt/3lxVGq8Bzit/v3x1YDkvEFo6YfBuiw6sjKBu5EG5GliB6rnSdeVkXtf7FEIDcPfGXztI+x7/hUAHsLo7B9Sk5Ac9OWLKyef6D0XJAyKfYpoadjhp5Doi6up57vjYDvcvdvOursuJ0C8P3r/myOoX7t2VpqU1uGHKWo1ZAABXuhtnBELIxYbd3H9AsWvXbotPb3BALPANi0XcjQ0zcaEBGoqlvHh3bzZ7LzqwGOqxIWl+43PdyBVeO8u3UBxYxib7dZ5hPM3b0S8EnZtsTh4ESkcLggiwffGGYS0LnCRzur3B3efNAgS5k5BRwqXiO+T8EKA2oevN5z05OGcp6MkUcWeNcxP7kkwjtPp7AFF3N3JO6LFZy/rZLwbnFA0iTS46sBis8Oel+TRVp+Arox0umFasgRUJ7nVpZDgkRvd7Yj4gXMmIb/eBagZjQ6eR0QcR7cXS2hMmL7goJ4/8yFMIA5IiWe+S3P7wg4eHBxuKZRq9onNGiExC+PveWMmpU6o65TQSNRn8GVe+aSwRjWeUGPufnvPK0BcF815t36nhG8JAWWjnwoF1x9At7QAw8IXdZORH0YGVDEamv220VwgblgPLgPJ9o7fPQ6KBft3d0ofsbGDH3hE8UcIXXwyf0vxQfx2svHJgdW5e8cvaBPwD0Lhx5685Ai8judsMTtjM3LSjckT60bXhjFjWaswjAHCJJXGYGlg+Q0QOEf81ldZn7bb4ww0Heg1jp14NLIk7XREs5N2iu7Bq2A4spoi7eMkbyAF5+VAgNbAcjOjb+b5yJG0Of6HBKAOBEkyUH4Cw5/sfHbZfdXXvRMOgzuzv0kg1+mTrUcsI6HzeH1VH+WEd5+qq1QN6Zn9X1oxmDaxE6YfJOKOcW/QI6isPLjs6Qe24crpZhEA6jZi9st/MXMEomXn5FMI6y4+iAysZ4Neh7WO9HottbVL6JBB2cdR0B08lMj10Ju/lQvuKBukPkxafd2kdlpdyV9GB5SkwgvQVBLRcPoty3LHYeLoNWrRn3jhPksIT4+d1vQBRLGic8sYz1PG2wevLNNDWmBHUAQB0o01Va3ARzLocDYSrO47dwp8NYB9prh1Y44ZuaVcS4sByscN1dAab6kUHlgp5Mvu7UAOLOyoLDx35HxKg5TzgWhARWAbEZ4ze3oUIQusaypN15LheUkI/v/qOkz9mTzOvHFgdmlXcSQA38xYZj3wc43JW72IFsx0qabH5zTvfyCzqFvboZS3HPg5I3gtQvJbCFaaTI5L3LaHea93WiWKx78IGYcHvTkwhtM88Amfx1b8yYNWwHVhGCqFfv/WZteHWgO3mKZAUQmOvl3WbeXSsht5nY9AEdh+qFXgQM1ASqfb/Fm289p2CJ8wcbnBor1n71+xq8jwAncSjL88UBPEtrNnHRCwb7py5qwf8MRfb82pghXjmmYXxNlcEhmj29TQc13kVaTrbAQC0B5DOmrms/9ZcwCiZOR0HFucmUFumLpQ8PZGgmEKYDOTr3jZ+xYqDvk+gIa+O5wvxRjxAN+jISrN1nMJEQISJ0yqXXPBy3VeZ3AhRUgjDPScsjdN7AHisIM+lBox8nSJ/tCp7k45jJi7sckdyu8tu6/jVm46FhL4VCA92ZxYM+yTfq/QY6gcI8HNAjIXvipmQUUv97DQXEVhRHFjWdnn6kO236MDKLm77Z4sSgRXpAsviDQXjwJo+4p3GsM93XwNQY2ktLIbBeRd1wfKDEDtdM7n5Jhb+UbWqjGNI69blpQfuOfBDAPqJp5jw00r9VRw3slsQvLz5zcq2GV90gU9Q1nLsQ4B0mSeAXPi6IePBurVgfFy1duv4OQUOsga3Pf4VQilHCoSJk0boMnfE6sf/NKp3gwOiEebYblpbqKMDyzN4C6OIu4MH/TvN+JgAjhBqZoTaSqJoM75JIJQ9uH5YTl+7agj4PaD7gmNjqL/6QzmEAwX5YX+hNnVFBxYC/GnOqgG/ywUMk3dgBRsfSPAv1PXLdC22BZBKxP1YBdyNLJioUVgufSD8szRR02rayiu/ygWcos4pvELI1iVQaKaOu86plVos4h4V6ulrd+MVj/8mVlu6FZDMl+UkF1Khk3n47TtsgqcmL+1Zlr6VRhsp7BVCa3/MR4qf3pctjj668evvf7AeENxHpNisQWuwcA4o/OqGK5COGnQbP7dsfbSdZbdVvHz1vkCNnwfAFtzMPgCq+b9v3RYjfJX2aGdqjRP/BsADw337/AxB7CWfHVgW/w9nhkUHVnbx2z9bFAdWpHeLC8yBZcBp+sjXngfE06Un5GMAXlylwG3N7og4ZPjk5txry3njwOrQfNTFpOvV/Ebly+P27f7hfYugl2/acdfc3KJ1/Z+9rNXY+QA0wNoJcxbMAahFsAMHGrt224SJ9R8qxR2wEAiMwJLzIIk+w2FQw47AMlIIfWTmAUyh7rE0WUARWMb++3ec8RQhdnFgIef/MroU5QdR4sqlG69ZVKTizENgUI8FlyLpVtp4gDdGbcTYZ8jid4zOmLNi4AuZ3wE/A1/EPVJYFLNtHheJ6F/3r7z86GEXLB5JgJWi3mOnHUR2YnnjW6CiFTOX973IXzMi2zALm0+MwLKFhhopGI3EalyMwMrNyY7sv3IQ6jCXt7EjHiDHFlj6IEjU6i2nPnzB9mzuKiwCS7ojn0OGfXiqxc6dJW81OfCQ2pLEVgI4KripWoPmOY0VhQUE/yMNT5k4r8s/swmjKHPFB29cYpSvFJQ9LnTaSzaNxEkt79//YrXYesz8Dh+ML9/8FSEcqMY0Rn7YC/L3yYUDS1UDy9V1XP4vt4Ut0UpP3zzz7A5RzqbYJv0Q4FIIA45JGYHlICUUTgSWAekZo7bPIaDywNcI7X1HkR8/XAfePnzKyVY9PYaW03+iKYzYvmnFZkBoH7Q073ytFnx4PYc1O/fbC0es+lvltykso9iFgUBZqzHTAOBaLtzKQRwb5ElEYC1bu3X8xUUAFxYE5DWwxKKk/l0H3NY2bAeW/Qohx98EVi2piu/qtHb9fCisCKx+nWbdD0BXcYLLYflJpA+akEO6acn64VMKiwrzdzeDesxbioB93RXa6KuOKgrw5Jo13uCJOasH8DW2sgACswaWXvqhtbJgg8L52dRZAm7QjQisWSv7H20UxR52wdInAKEHj9+K8bn9im2taAO6cdayfvdkATQpTcFHYPk0PFXUgXsGLgMo1sBK6RTq3ml0vxXLAPBCfqRw/I2QXvvI5CU9vej/ui9TOUJQBBbvWrMpX/BIOcNb+Gg4sHpX907cOnD1qaDHnkWAxjzJKuBjN5ZX4XL1q9d2/uibM++9t3fePFQ1bvD6EQQa/1hTAADVzifP2ECiBCGU3T6n40bj2/FDNn1lRGAFH2qA/IKtw8EAACAASURBVHCGZDrmwoGlSiFMpqZc0YGlJO2MNnAdWMYsUvVcrSsw+lHBpBAae7rvptdvRp3uFA5AIE/BwyOeGcLsEZNbcC9RJ6MlZQwJfnfCyONiMfqbbYcx80gUM/8q/E0Q521+o3JwxhbbgAbu2nrsTUg0KUzwRhPDJmV/ud+xfz2surq6WEC5gHCITyFki/1HsvH8jRq2Ays0AstBGh/Fyey+QovA6jwj/kNtlNsNCAhFX0MZkPijhjBh0fphtxUQCeb1VoZdsPiQvTU1fwWAQ82F+hwTSvkhwW8yfTN4YtXqK41xs/bxUgijTxmU/uFEYBkjDez12I8b1+7eBgDHcDWwLIRXfHgAcfSBVIOEv5uxvK9bW081WjZ/54u42zOnlEYIUEwhzObJ8XNd13fZzxph7C0gOEiV7iSo78GOylrQEsdNXnTB+9namaoGlsu+JEaqt0aLYB0HlvHvsZevKdc14yESm/3JavYGbFIgf4F/4uLx87tckS0Yhc0zduCGM2MaPgMApYHtfHmUUdmbDnjzuKoOk51xjQgsQCY9XTohY1EyFyf1pQaWhS9KCBUjsHKM/G4KoURee2UvLASM8NrmpzfcfcoROd5S2qafMWr7lQSwIGhA1lErhQ/bEXHxiMnNOV6npo60bSV4oPbNKqYCQIVfCAjCznZwuosWuTvEMHbahjcmvZSFZRf8FF1bjb0CgRZaG2XCPGy4ByOP/G5FA+yyZtu4DQUPuAa0QT6F0D73CLfnXgC5ASxXpWjYDiy7BlY4XTHIFXBpgYXmwOo4cyQhuGlWrg4cCCj5Dxa4aOqSDcNHNSASzflWy3vOu5x0WOQ4r+TSgdNU7FBC5+VC+zdG7iDBvQ+sHnBDNjfHpxCqZ3ZeILSKXPM46URgOaMMO29JW9DwWQJq5DqhlNoZywC8xj76+BfpiVazVlz+P/WKs9tCdGBFlx+uTmIvuejAyu7Z+Wcb3XfF1YDabDaNTrUi7wVCW7/0dyC4Y/LSnmNU46Trd8+BFSw/HFVYPqfXj3VgGW1vHfDkPCS0npQPNmC4YcVVBNCHhsMmzO0yO11wSGWcO8qf+lkNadsA8GeB/X37lnMvUb9BwOVj57S/mH15cXz5pq8AgyKwGDjJA9a5JeZdBJa7fCWELHQqphCmgrJp6xNUA8up8WuRvISnyPT3Airibux7xsjtvyeEP8iALd5VKTRDhEdHTG5xCTuWUkVK2ykHDFT26xGNdzdu/BGifUPrtmOXxpu7rhBwmJNFxcZ/d2zeUdk802tuKOOXtRl7Juj0Z2u/fHxcgO3skz7On66D4rm128af1VDg1xD2KTqw7F2L5OtTzmx3gtvc7FB0YIWCjwGqhADdXwvMgdWv48zrfrhtvZcTXEoGJJcfiHjPovVDb2wItJk/eyQcdO7855Ap5qk+Psd5Jc851Ag++2mT/X8er+69N1v7TCYCy3ReGfmDDj0rHFhGs+HnL75WRzTS9i2HlxlqZktfQVMLhyAX6AD05IxlfXuwBmC2YBY2j5NCaGsXdp00CQOUDMIWfLW1w2IKYQ4PNR6Pa7v+cfI2QDw5yjJU9GGNQR+9u2vPMdXVvbMStR9cxD3A/hDU22AHVvyKZ5rU4q5nAeAUsxtLoObwPIFLqTsoOpFgLwCdM2FBWdbrAhpbmVO+tfQT+PJpJPB0ewWDZx9kcemfE/BOOhb+tclBjU8dXXkWVxJm/JDNXxHzQIjIHsPlB9s+Fw4sVQ2saPThyIZiDawoPCdTbbgUQld8oXFZ6sl/vwMriD4KzIE1fdT2C394jdpIMefA75RE9fQjKRfwH9myEVNacGWIcu7Aate04jJEeEhErmCGbv4iOOtMhnXt5jcr+fzrTGFtAxi3+1k3Hax/X/KFK3CZ2wyFr1Q8IPs4dYLeT20b7yvW3wCAWaBblNfAEpOB/dv38MdGDOuLogPL9vWKjNn5xhcAbwPS1W3NGkGFVQOrf6fptxBo7rPhcv4fjGGsuADEO5esH3prgZJj3m5rUPeFv0VNf9YJtowsPxzE9qG/8SeSdvEDq69Ylq1NezWwoqtNUVIIvfUTDr3wwWVAcEFAzXvJVkVIyugDEW+a8XifvKr9xkVgsRptlLQZxjSw/1l0YGWLEALmuaXfmi4JqH0qQt6rq7+rUqQIoNuUJT3XZWNrogNLXoEq0P4wF8nXwGLXfeuV649CSLwK5mV9OAcUzRu7mrcpzKT855NYItE6vqj7v7MBK3aO+OCNhs01wts986t/Iz5nXTgnxW9LQTv1lqp2Qqq4EYFFiGYRd/nHpxgxDf19cuHAilIDK8oLhBY6FB1Y2cZ5dj6hBhaHa4YjK4QjivRRUDWwpo96ow+A/qBwPgJ5OoBwtHXxRBHpoeGTT/bqqUapsJBpxGjftMK4lfgtH1YrP3KBWbFKLeDuJqgd8eSOyV9mes0NafxurcZ+QEC/8EdgsWgW8bTsIehbDeH01a9M+EtDgmOh7lWIwFJYpvzPAkU3eAeWWq0N1tdcaBZYBFb/TtMnE2ijHZ4TXkIkGILmLwi3LVk/bEKh0mM+76u8x7w1BNjdWaPaDSRaHdzpEqyes3pAz2ztOZkILMuwsNZvRGKpUgidPZT3euzAUrMeFv5KXf9KoAjPLPYDl7BWi2G76dWX2RHV2YJa8DziK4RimQJ/b7n8KL5CmPvTtFYwut8TTwNAuyjrCaMPpv+jk5f05NJGooydShvLgYWlQWmQcseVnJv5UwidVrdcvroDarH1iBBTOfpE/hhOHwjw7L9jH3SsqhpSk8r+U+kTH7ShLyEYD3WEd3d/9iiYNd/8vY3XU4n0XrfP7SS9oDAisICJwBIn99W/sieQaQf56MDi5AfYL9IGqX5FB1YqqJu2PkEphNYEFsZFpg/CT2+4p03B1MCaPvr1q4FImt7MP1TgwCr4WJBg3vDKFlx9c7UOmbZjFgfq0PTGEwnwL3LeJ2Xf/CAcN8KHNu+o5LxzGVx6gxm6W5uxS0knC64BYc5yJJJ860ms90saaZ1WvRD/R4MBZIFulCvinlIBXsb9iVj9+J9G9S5QUIVu65J209oi6C+G1odVKIkueRacA2vGwwR4KXdHE6b9uoqDKC5+eEzi2sUbhhejdHNAZIO7LzgDNHpOrarIW0jYy+5Y412Hza4etjMb20nFgSVzXpm7s18hlK172IVLWwHR84DYOPz61ultEQNHEnKh/DFqjVrOqO79WTbgpZqDf4VQ/QAIR/+McWDsvFgDSwXt7Px+U/+VHYnQfClO9XHSpBRRWN9+91nJYTPWddujGq+uvwenEFoj++qPS6bziC7IgWV0GjNg3UgAr6ajbN1S8hUtPq6r3ee+8fO7XldXWETpP3bIUy1iuvY8Ae4biadLCrgHRqcQTLl9bsebgtYR6RVCn7dK5B/W6HnpwDL9b1YauipKsRiBFQVbM9cm3IHlUYbS2WJFIRdYBNZ24+EF8/LZz6xMejTrgzq/hEMIEe4ePrkFUytddQWQuTM3R27fdOQ0QLpWVNJkfnJbiNhr4m7hzbQZarfpzbu2ZHjJDW74bq1vGUSkzTWxTCJt5Ccl+Zb5ykbc/0JM67725fjWBgfUAtqwF4HlP2B1fKdndhWLuBsOLGCKuIukphB/zA0jFJgDq1+nGa8AYBtWzPn5P+/bE/mP+w1qFy9ef3XW0s4KiNTTspXB5859DlA7gzV4gkPsGZz3/ZNJ7rlozqorl6dlcYpBknVgmXu0a2H5jRD2FULZtEPPWzwUNW2WItOI6eoByMN12ci4/tCT3ukWj8f1bMAsbA4+Aiu6/OCp2/2rmEKY6wO157+p3xOvEkDLKMuJ5MTSqGzyovOeijJeXdrwRdx5rsThnFTp5eVzmAOLiHDsgKceAwSunouUWt2kRHtShRPLHqPPhPldH64LLFR9J139p4N31+zeCkjHWrw8gn4iEdoyUCLRpt989WXX3iG1z9QRWKyE4XVR/5y5cGCpamCZ8I/oxCo6sFTYmtnfZTWwvBktbItEH0anAquBdd/o7Y8j0UWBriYfWwtzSeka3njtpOb3sKepdApm6uhPP/36fZp8E/sYEQ6Wz8EvzflLVtQUCd7Z+Gbl8UbYaarr7dh81GlAWOX0Dw5vC/DiOB3tn3WEgZu3T34l1fXkS7+ebW/5SU2t9jEAxsw12RBWl6mQGx9sDRQg2EOaNmrtK7fPMO+ki596BwG+BpaDIFFqYElZT4NPIXT5D4cJauWQ5Y+F9ArhFecsbJJotPNrIGzECS6l5OINepc9J+iMJZuH56TYbb0j7gwseNC5Cy5GpGrl8bEGkaSxh++4uGrVlVl5Rt57hdBnHEngpLw1D4nAcoYbeuGSPyDg79XHwJY0t1qHyWckHDtjeZ+J6nEz28KrgcWkRnEKQvD8EoOg6MDK7HFFHn1035X9AXFxWAcVfbB9CfD+KUt6DI28gBQbBkVgsexHnr4uMqgwB5axvFEDnjigMTV6kRBOlC1XGJEtcul7UEnS//sY0unxeWVvpAiK0G5GwX74+AwjHbwsKeOcGTXQoCf4gDDWJl7V7vOwRaQSgcXpD8wfuXBgqWtgcRpd6HkUHViZwPLoYwY7sJJ0XhlTFpoDa9T2DxHg5wI0hWxox63stJQpfXTJiMknPxpEx9FPLA0tOzQfdTkl9EWi4156veHOyG3L/AOBdLjp6b9U1qlA6TnnxEtKvtj1PgAcGQqgyGlSuHDj65MGpAFUOR+irNWYzUbAnLkQRjOOZIT48FIWyEWEG2KA167eFheKNeZ888UFhEKASyF08COkaiGLDhIlpmE7sEh/MSDQkVP9uAPxefatKP3CKeLer9PsswF0N7JW5P9+9AyXH00a7zqsanVFqHJcJPnMQaBXr8caHbz7208I4JDI8sNS7Fzxw7IXIvhszuorf1KXy6uou001Aks2vioCy+gzqucTB+yMfb0VEf8veI28oRONPiChE3SavbzPM1H3nol2XBF3V28NxwqRut32RQdWJg4phTHj5av33b1L/5QAfhTa3Y4wUU5B+MHkpT2OUbarY4NbrlyzF4ivgSWYVaJnyWNOFocy/6tyYBltxgxYdzwQvQyIUjhJKUFxc+ytl96NHdCkTXxaO6NWVFo/8cEbxhHAbdZurVUGlj5QANC3x90Y08667f7221QLjhyB5fMDyWCaCwdWlAgs66gjSMliDSwVumT0dzeFUHJckeiDIyD89Ia7C6MG1oyK139JGr0XCHxpnEMwvqMOrYdPbfEqO56aOjJ09O2ajXwBgU6TDy9flqu88FpMDVDpUZvfvPM/dV1qxxajJwDBGFeXEga016WAmv3z9/tikyNXbo+nXYDUdZ/J9u/WeuxlRPCQk86QtJHtA6gMfARQA6jN1kpKpq55YczHya6x2D43EOAdWEnRhyicG3gNLDaFMBJfZJVD9kajkBxYnWfeB0TXsIqcW0ojkA8Hyo9PFm8Yxl1Q5IZqGvas5T0W3EdA14SoKhaAfPgdJJc1oN/cv2rg3zINVS8CK4ICYNZ2CNlhhAgsYz/XXvRw8xpKvIQATcT98QDi9KNQYJgt/61rjVrOru6d9VfLnKUJDiy1YuGihYcg1r+KNbAyjf3JjT+63xPzAGCgtJeNqMlEYcVi+i/uWHj+h8mtIrnWfAohz34cdsQjYACDiujAMsYaM3Dt+UBopEC7zII3b5g9JEkfRPBk7BddesbjmLZ04QmDN51bQ/oqROMq23phLTAKKxA81lb93JFIGxif235BlFMLj8Dy6aH2jUcQXHPhwAqLwHIeZI1KH8UIrCgYk7k2QTWwLPqwKEQacSijjwKKwJo+avuNAHCXAHmX/1u/MOUgQg6JEvvvc+D+V8Z/uZttlBMHVrumN7RA1La7bnsZN5N4nrnF2lROQMuffvOui9KBnp2bj/mlDjXv+us1estjVsAuRppVaDTAaza8fueMdKwtl2OUt55T+iF8ZHhS3VBAlvbkx2fXzHJQVFIA3tmTBT4XoHt1wkd0gOnrt8U5b2suYVCcWw4B4RVCp1kk+nDUH/v8iw6sF2Xgs77zsWoJAbotCsSB1atXvNE+Xx/yARH8lOUQJr9wNhtw9esp1x70CHHdkvVDuxVpObcQGHLu/NMJ4XlHeVHLD6ceSMBNP2mD5qy+Yn6md5VMBJZT28elZ7/8i+jAMvoPu3DpoB8iw+fy+xMZAEsSkeiD4On/xEo7V4fUmskkTJ0i7u75R45ud7gBW3UAixFYmTysJMcedfmKDqhrm4K6qehD6Idw2eTFPR9JchlJNWdTCGXyg3eoh2vAUSKwnMXdesWaO1CL3cIuVhRv6rIMfH97fYTx8Qu6jEsKEAGNxwzZcFwsgS8D0kGscW7Rr1o/8a+PqxlC9EB8bqero66TjcCSBvyzvMRmMBx/ZCbKhQNLFYFl0odhILuRx8GmetGBFRVrMtNOlkKYMn0UkAPrvlGvvYpuLUQef7mMaFefD3FHIb41YnLzpv4TzI0Dq1nFLAQYGv7Cjm/D/jBVlz/r3Z7ecfe6dKFmp5NGbyCETqK33sf+FJCzq1L8ZcPrk5ula225HKeszdjhQDCDLVERkikmN7gdiyU0dJAbdTuBtqQkQY+uei3+SS73X5xbDgFpDSx1gTRb4WHO2iK4hp1CyBRx96Dt50Q+qmNuM1xfToE4sPp3nnk5ESxyDFzOVyUyaAZBReZsfYO3LN4wdFKRlnMLAaOGyifbjjJSjA4PUcutRcrwm1u+cVGiL5qzeuCVmd5V5Ags50G9kCgsIvjX/Sv7Hx11zcMufHAJAPUT29uYHaAfKV94Jpgwc3kfMx0o2x8uAovVaCXyg3UX8Dt2MajowMr2AYbMV16+tfTgXR99BoAHyppFKt7OcnTEWZMW9xieyS36I7BYueNE/XKXJyyD8hFaMg6sXr0eix1/wP5rAbCzsz9BvKVKH8YDnQQ9x8/v+mRdYDe13/r9vmuCLxDBSXx5QisKK5CPS9UXr2af1Y9eoiOO+F083nRv1DWOL9/0FSEeGEl+BAfzmtPlwoEVpQZWlBcITRwtphBGRZuMtOMcWIJ6rnQU8GsqEAfWjJteO4d0eCa54u2BiciGvThn+JTmV/kPMOsOrM7NK/arTdAnAPijYOVKzhLNxXIMEf/149/889jq6upEujCzY7PRvUEDs1CY6LEXKo8J0/L8GiFB8LvNb0z6U7rWl6txyluXl34IP9kBAMezQlauUEtD0kLEPQttVmux/o1kZAjgn0jTlzVGbcXyl+If5QoOxXl5CAgOrFDHgo98RQbQ4B1YweCTsOogn3oBOLCM6KsmXx/6BpDBb5gYTQV++TGMxVYthqcvWjfUjXIr0nLuIFB+7vwFgCBxOjEHLArgoEf53pqzaoBwO5fu3SUTgWUZFiHmVRIRWMZYFf2W7LfrOzQehTnB2xcPIFE/kkHAp6EYBi5Q2YzH+25IN7xU40lTCBWd/PqV07yYQqiCdvZ/H9VvZfAjBFHrX9nLJqCtU5acd0omd2E5sPgaWIKuGyh/eFpPxoFlzHFz/+WHaLF9tiKCWetLyjkiXQxKUnKQvizVSk8ZW9XByC5J6XP74PWPAOAlbGevvk/IK2uiJ84dwt7jf2Iath7zQIekyoYE18AKlh9B3DgXDqzACCxu+dHM86IDKyWUTlunoCLuSvqQ6DdA+OkN99T/GljTR25/BhDOCQQyE8QSKYVQp0tGTOULuAfyybSdrGSg9k0rBhNAFRfi7tKpQ73ypXHkbFy8EsaffrMyLeGxzlJ7nRhv9GXJLsNBcpjIe5m0uAB70vMhutj50IbXJ/fNJEyzNXb31re1I6JNhKDJWavi/MLBF16w0EV4NC4mXkUNV+tATz750u3bEIsvGGYLB/zzcDWwFCkgPHbICAirH//TqN652ksu572k3bS2CPqLwXcQEp7oY1AuRAvAgdW344wKRJwqy5AXb8FZMyMQgv87du9nP41vidfm8pyLc1sQGNxjXj8EXBIMD/ZlOi+F0GgvuR6poZ/W7FdVNaQmk/BNyoGleAIdk3RgGfsadtGipgCxl4BgP2ufgjPKBE4K9PFZqVba8t7q3kkZkXWFdaADKyCkI0x+FB1YdT2N9Pcf3X/lECB8QDayV6A6PI6f4ew771zc40eZ1PVuueLJvQBU6tEWv3K39qIgikVdJlkHljHk2IFrWxLhcwCwTyoOLFH7ZkehN7TYoafHq9p8n+xJ31a+/nrU8R4xS9BKcwt8UZCdyPWuexwcAWqR9I63ze38x2TXJK+B5YNAgH7kx7hcOLDUEVgifw+EEcJrRDAyWRiq2pcY784nSqAWaqEESqzm5ne1ADH7b9Ugwu9GP0sFM8b0K2POr6Wx2r/ecO8ZWZVHSW/F7qCqgRVIHzLnrhmBVb8dWPeN3t4byQoCCsFZyWVkkMOWahvV1v5syN1thMeXorl4Uz1ZSb92zW7cioStXSYiHKKccCXNdGys/XLTtin/SuPyzKE6tLjpLiQyCpAxQGZAJV2ztwrvZwQi2K03gZ9vfnnS/9K9zlyMV9Z6zF0A6MJGvgYJgJTgC0dFef1Ks89/AGEDEK7XtJJNq166tc7F/HMB1/o6p1cDS3nA7hZZ+vDtu8FHYMm5n/NtiDywncPmKdRzB1a/zvc1I117GRH2cTgwW5PEK3IaBA8p/5m7ZP2w8vpKZ4W27qsvXHBsooYCIgKSlx+xROLE2U8OfjuTcErKgWUvJChVKsorhLK9XH3B4ss11My0WutjwcqhD9dOTCqvx3zL+U+H/O/I9vEt7bLm4OUdWLb8cMRIyPp9bjsLDBosmPaH38uLhmcSKYpjB0Lgln7LmyUgZkTtB6qJTq2YKE6QWGnNMXfMv+iDTIHceoUQSmVRvJx2GmizeCtLxYFl9L5t4DozbV5Af7/QS5Y+rA08NH5el6Qu0+MD1/+ONDReIQ/wWHj8J/RcJABEiN1we1X7e1M5z/BXCJkDsv8ZVv8+Fw4sVQ0sk7NHY+Y+8JnV9Q27k30wPgTE6ZIfzBQR6IOXXvZaGacAgl4+8r4zfXUfU8GUzPcJisDyy+dI9FHPUwjn3LL1Z3tqY9sB4HDlC5pcQluwU4WANlwz5eQuMvhl1YF1TrNRbZB0Iww+AnF5S2MX6eE4rdu8466MFOTtfNLNv9FRf1u+AkZvDGULXm/SqGLja5PvzjwpZX4Go6D7R/ThWkDsGD6bz6EhsFn2C7XzymktRrhxAxv3z9sBcA2Ctrp1d31bPB5P2wssmYdu/ZvBisDCx7kCpyaBq7DD18DiX0UHlpS9BACTUc5Y+sB67MDq1XHOgU1gz/OA2onWnrz0QYf2U5IfRB0XbxxuKOLFT55AoLzH/E8BjAL9AaqJaIe4DXmKQEDCix9YfcWyTG4tuRpYCpmWQgSWs7fhFy6dR4C2s4ZJr2XrYCk1O1G7IaDJM5f1vTmTMGTH9hxYvmi7ZOWHhSfFGljZOriI8xi17nb94+QvAMU6WFFfWPOmMqN9uk1Z0jNt9W7922CLuHOv3jr4yAmgcP01VQeWMeptA9bNJIBhHrNjiDkgwNhhlU4fziHIGVB03fj5Xe+LcoQTr9p85N7axDZE+InYPtQ64pvLeBHhH+JzO14aZR2yNuGvEDIGpm0wivDxRs2FA0sdgaVk4D6w8DuMRl+e88oZzEUv5fS+8w8DsPJBNmYr9gIQqZ47sPx13iRYLPPZ1GMHVjz+l0Y//m7veit1MLpNr26rDRw++STp66RKNE2Vwcj6tW9241wgNF7UsT7S2f2qqffyENtFB/2iZ96823h+NiOfjs1H/wkBzhIe01U8ZcvjpLMX/NuG1+84wazmVACfXq0nH7gTdv4ZASUF6qWOCaks9pAgUDPgC5EJjk8FkQB8CgirkGIrG3+XeLr6rXjkIpEFcExZ2QKXQmgSqPJMQp5NxerH/9xwUwiB9BdF8DnwlGuuksd26m0E1oiy6Y2/rMWnENjceZ88YBWlyPKD3j32jM//r+jMzgpLiDzJ4B7zNiBgJ9HaYcILJOJEZh0hws0PPHHl5MiTp9Aw2Qgs7wZdnCzVCCxjpOt7PbbPXn2PkUp4kl+JCk5zkitdPrvDuLg/d9ayPmtTAE/SXSwHFi7kNLwI8sObiHN8FR1YSZ9A5jvc1P+JPxPBmZzO7xqpyZkfmgbX3LmoZ8Ze9bYisIwaWByGmX8EG/asfPb2UxcHVrzXY40SBxywBQBOl9ofIccmWE9+AkesAdA7TJjXNbQur7EGOuggI7XvNB4Afu5rzRgYECaoL6Zhv2PfXYnTRy7t8l2qGBipBpapj8qkBX/CidJdB8ZndPsm1bWk0k9ZA0tRQzFoTtNxFS0r1x5Col+Fbki0z6PTh3ggAgewBRhCPXNg1YJxGSfBNwWPEwHw6Q13178UQuOy4uDvLliKqF8mck8fQ2VMGRE6AsF+rTUp+fmweNOdMrRMToKkQql2n7K2I360Z2ejjwlwf1fJCpxd/oP3Lf7nV41/dVTVtszVvOjSfHR/HXCx1H2mxEnejWVxeOqw4Y3JT9cBhHnV9dzWt/8iAfQCAh0hLswGUICxyZyj/+0kUdpIkT0a2vJPddLXBLha0/DxQ/ah9Yu2xHfnFUDr6WK4Iu4StJcznYDzw2INLF73UHhrfLqzC9V6GIE1oOf8A/Z8//1yDYGJ7BSVpeD6PrxS6ugSRntCvH7p+qHT6imJFeyyy3vMNyIBrokqP0T2wtHHfXNWXXldJoEV1YEV5YW1VGpgsXu7utfS47WEWdT9AH+UorrWs0VXAdzlf6jVtppefXnaSzP4z0ZIIVTID+9nacOiAyuTyJ/i2KP6r5qLRN6ltW2YR66dxMyrIU66c3GPW1JcirKb/xVCgT4EtAuWz3VxYBkLjQ944ogENNrGRahGcO5y8crS2y1T5f63Rtg6vqBz4Mve8UEbchxMwQAAIABJREFUZxPS1Z7nTsalrRcIHV4itJABkOgrKE2cEp/d9R/KAwlpEB6BxdgfzBhB8iPfIrCs6KmkvFDMKVDo4yGigeV9E33aAPmRBH1Iccbtbzg5638KoVfEXRGrw9ZTIvr0hntOkdjUdaGWzPadM2dr6e5/xBYggp2erHSQBPAMsR8BTLtmSovrg3YQzROQhv23a3rjUAScZQzFGSEcB/Q4HlvzREB2xCmbd1TelIZlBQ7Ro3V83901uz4hAPMZYBMZI9iTshQ3Q1gDaI9tfP3O32dyzdkeu3ubeDOdEsbrRT8TEEkiPHnwsX9J2Jnv5+DIFPmunTxw51c2pJYIvtaQnvjhhbNHvtkPNm0pFnZOGXW4Glg+h4p/UPH8nRZOnHfRgeXyR0VOpojfDLTrmQNrQIfZx9bEEtVA0IpRpxjntsuB+Z996MMyaFd+EH3VhEqPqdo05OuUkbzYMSMQGNxjnqkTSFX1APkRTB/w2JxVAzIqX6M6sExstQWW8eII+7crj+qQQuiMMeKihy/VKfGw9bevihArkFkF2TY5pfqVw6AJXthz6M6zM10U33FguUZ3NL3X1h+dF2FcjavowMoIldZt0NF9V1aA+RgH/1HRh2xWRFw4aXGPAXVbUXBvq4i7UQPLqynn0qtFYr5QrODMgbo6sIzpxg566rekw2ajsLxrf4RsnlO/+NtbITIeAZ7Hr79uF6/uLWQlxAdvuIIAFrreKWfvzNxO7TIPPj7ilan3piGEPeNzO66p6xmG18CyMwF8x8Ov0FtgLhxYqhpYjhPL3IJZz0ptqlsXJ7Y0UDbnD4jDr9BwOlueGVUTOXzwRx+F23fSX5k117sIrIQdgWXDJCX6MBhMPSviPrXi9cMbof4QchfPfoYhIpScPQlIWxND/M3Qyc3fC+IXSjSvK6Nx+rdrWvE6ADR3t5ait9YochQrgeM3bp/6TrrWFjROx+Y3zUKAoTYHYYRX+My8f9r+C2Ev6Y2P2vBG/L+ZXnc2x+9x6phfJmrRyHs9zpuX40QK8AmI4NN0bIZsf+uRQjTU9fh+oHflP0D0CGqwcNVL8TeyCbtCmMuNwGINTsnRiL5f37lbfxZrYAlRyCnQRz1xYBER9u0yqz8S3Yf2RQHPQ3hql951SNmA96WGdOui9cPvLARaK7Q9DOmx4DwCWinuyyc/gqOF2GdWnp2z6sqzMwmjZGtgGc6rIMOjrhFYzj6HX/Tg/URwlWBbC4AQObCji7kXiiyBIdwzo7qP+VhLpj5cCmFd5QcUa2Bl6pzqMu7Ivqsu1ZBsJyvD3U1jO3q0iGkQEj01eWnPsrqsJ6yvPwLLtVVYQuG+FP5wh0+HA8sYbMzAJ69F0qZZlbnt4ZPRr/wpZawtqeGs8VWdh7MwiZdvbkV6wngJsYn5faD6Yf2gLL7vrtVsPy5e1SmejvMbX77pK1ltNWtsrjo0tw3xxBBykUIYpQZWMlGKrMMkirOLoUQLPvY5B0e4B8uPcADL7TSp+W8MZC+g/kdgpUQftgOrfkRgzRy5/dwEUpU0gCVCDSzerSWxz5GqRkw+eUgYv4jmBagjx+lwUsXpug7Pm5Mp7LGggl4eH6Qtm3fc1a6OS4rUvWOLm1oi0asuU4ywfsWrKjdveH1SRut0RNpYmht1bh4/vKQ0YdTNaB14wPYBBh9/gFR2mZqDGUoEcnfnOK+sFznUqE4A2xBgLpY2eXjVc6O/TTOYCnI4IYVQsUvv9GTnXYzACgZfEvRB8OLDz1x3ej4jXJ9OMzvESJ9IiFaNDemH37Nafvjb03++34u/rt4yTJo/n8/waQhrKz9vQVvQ6UV+rwx/9+k0YaowIbxd9cQAu/B/ZqAXKQKLW36wzEmXAyt+xcImn39b8jwRtkyWPgR1hoE3IZIGdMH0x/s8kRloAkhTCFOUHzrAgumPFV8hzNRZpTruqP5PtEMCr3SGTR9h9eFCpMHWSUt6npLqWlT9/DWwBJNKIGeJ0WVPki4HljHcmAHrHkTAPuqHcUIMlABWRECXT5jXdYnR885hmw7Zs1ffCgTHCLCSqh/Wl6EBO04DgLVw5HM90lWHMlINrIjyIxcOrKAILCeyPoq9IuJzKi8Qeifomkih2YseItSFPhxM5fbACLD6HoFl7S8J+nD2Xg8isKbd+NopEINxGoB5mSA6okIQSKLeWTggMJhdRPB/11S2+CiMb6utehXXj/B7u6YVxrPPl3OTSWcOX44t9Ppu3lH5UIRp09KkY/PRryBAG9erH8KxnbNhkde3iPfOuKDxceli4mnZYJoGMVIuE5i4GwivclGaQVYWRUPiKvjVBPQPQHhR5grPyUZFd/wWNVgc0/UZK16O/z1NICrIYbgi7q7HUP5Ag5I+ijWwfMa8gzIBeCvQh/1FnkZgXdl51lG1un4xAfRHhJPVBMFv0K3RIJV34pcaUf9FG4cvVc9TbJELCFx1/sJj9IT+T29uicXB6EIh7iBDjXp/zqoBv8zkPiI5sOwFqAyQdDmwjOlG/P4Pv9Jra19FgB+pi9LIFRjXdmB/JviKtESrmdX9mTNKH4STdWDx58//VXRgpe9c0jnSzX1Wnqhr+BdzTEYBUNGHdA0Ib01e3LNpOtfHjsWmEDrmJ2eKSS12ubGWTgdWvHz1vrW1JS8gopnBEvQJow8X/qKWvIuo9sy/frPzjRMPOmgtEHR2m/j0C76r88paSBSW3R8B3t1VsueUyfef+2W6zk7uwOI1TH+wRJD8yJcUQrYsRCr04aXlKt9ScqQU535QO7B4AhDQQwBwMAIJpGTyB+/8ELB85H2nz00XvmRynMqRL/805kshtNidlWYZqLfIAJinDqypFc8d3gj3PR8I+gHCWeym5PuTfBtOnhykCHDsNVOaT1SdW1SLXjVO4O/dT7rp4F1U+xEQ7CscpnT2UHB8kTh0vyO3ZLEAd6cW/8/ec4BZVVx9zn27FBt2jZpoilFBAQUVOyhF0F3rohJBQFyUpoBUBZ8iTVEpoiwCUlSURalKMSL51QgKAvYYNYmxJWps9N135/f2mTszd+57++rufV8+w7435cyZ0+bMOWeG9QYCMxgyDBTsdAwStRa7jwZ48ept49akjNA871hyxp2XJhLabAByOIczikQFWbHilTlKkCELxQbQI7n9UyF1JIDkadTqjV7++ogaFZ3M821LGTwuhVComXjThwuPNvepjr9CCPoGOfok9CvkD3gngXhj0S+3t9U26o1/J/8xHmSqssqCKD7FxQBVVVbLBEJ9HRP7ACGHIsHjCMKJiHgWEPIH5mAQiiWtBTLGQCD7uxhcN39t37a15eVXFf4L8febr5h/uF5d9R8edmqDKfoONAYBvq5Y3vNXmcRDMg4syx6XEzgh8NmjS7sdmy54+1/5xNU6QKU5o1I98g1k6hUJvEl2fnfetFUD9qQLVmccxoHlT3WSTMbKRwpqTZsz+emyG9MNYzRezTAwvPuq40hiL+MATS3KxLyN/HTCgtLf1wwieW8rAstQYQH8wSloMbOl04FlQHxn+Qu/R/PRBjxItAIxFL7zh3zp/9AA1xEAOf8IRZnjxAo4pAPZWUy0s+6Y1Tat5TmCa2Alpz/yxYHlbE/K/OGkdHIX90EcY9tXQammTHexTuMKwIc77HucxhBw7SjibqnisE4sFwHfaqB3CifjHPvcMNENA9zXS222c9OQRHU9xKJ9EPWDkOBvddCO14jeigCeZBTylpECSxUKA4RnT38q8gdHNCxq3jnehKvP5wc41BEiHDLFrS46afCtuoaTHZhpJmV7cC3cn10gNZz60tv33VoTeJLt2/EP8QOq99n9JSDsG1zU0P9eoQ+17vLIkrXbJlyZLByF1L70zJFHVFfHJgBiVyC/BBv66t87Nra3JgEZUoaC+BwQTLpsMFDyZM4UfQdSDaDNxqJ69yx/bZj05ZZC2qN0wWo5sHCxoua44GeRcVW3UwgBdDcCi1cIvh3LI/5Q05Jn6LovpilZ0mtAN3XLgHD9Gf3xE8b00+atGvCJGraoRa4wUN62ohE0LPpBOL8vmpM+N4r1B/mhYnlP4eEuXetLxoGlukFPZwSWs75+Vz4xlQD0N3EVzB9MA7e9sCqv6TyeNnVxF8FrkTXDrOvAohW8pM4Pbx369AeJamDVbDcy0zve/fkjdyWqrSfmqY+KP/xnA5tGvxg/r+SYzEAK4DmwLAbynamtaUMWYky3A8uYOt5rbaeEnlgBiOxB0lcj0IPexpRC14avY0Vb7NagyvRBgD/FZ7bjaqDVdA95B5ZPQlAyRWg/mABYffLNgWVCFqLkCbMbttMqZftKfvymiMhTEEx6nBTBDAex/M8IA+oPm6AKPQIrNE+5DMRaOOr+/AmBU99BTBbAH7y4EJ/P5bvr8JYcAJa8vfGJcdYmeN6A+5pJslH8mqGmkkTR/8Imt79HANzaFMmmgdB8pWF10z+/89A7GQaZG77dKcPmAEIPJo1QAgR9VBPeSyBUN8DEscu33FfrHSEdT403xlhiDABcYbxlbwlmP+KCtStdu1JgVihJwXuS1mmqPDm7Y/JKBH8EXe+7/M27spbCqlxgjhu4DizHslMo3mD+iCKwQikPas9rxB+mY1lpuUgpLDkjyxrG7BNQjFalntR2HQLG4Pp5q/pGPJpj2aCafmDZooY7dv+8M3DPfQwh5w+ys2J5z31Vc9bk91AOLIqdshmBZayrf8ep9ck+B70KgC0DTEfmJ7U6tlugXjat8vrFNcGfv69XxN34xRYKSv1Bj8LcjEWvEKZzc9I01ohuzx2ik9i3rvXlHrSTPaQbAVjw7cQFpYelCTRuGH8NLMve9H3UX5gdMuHAMsYddePq0b+AdbcMB9yxVqHe+Z8lAleos4OP2Qg45a7H2t6Wif0KroFlzyg+d3Mbmo81sKxL//BnFY+/kuvDvUar7M47TpJUKG5z60Dof2zaGr/wi7hbq0gSnW7EllD2iBjJpy+V8/ly/9TWv0AeULJAbI8lUwOLhQAB7+g3sVnoR5fU662B9LnwpGHnEy3xF5e5vEcGJKM6i3GImIpqQti47p37Awr+1gBQRdeLTxlxVgLJX9Wh+dZAUrK1l0eAjH5x2wTDsVMnPp3OiLcEXR8EAFcbwY4e0dHEK2AF+qVs21Z1MByIOHtY+inaEKLEE6z2c7RyWxoXag0TfZauj4ujB+rErlqL5Iq4h5JdErET1cDaIC6IKFZncl+QQqy7/GHtoTVneFXgPNesdib5GcGW66GnkhhL0v6GkEjMmr9mwE11iAULdql8BBar//0kKTeWTBTkTQSWd2kiJ/RMRGAZSLj52oXHFe2t3gKIB/KEIbevmMOECzYNP/kpgcUtHqnsnLZU+lRqYDGyirV9IwdWHkoCUQRWGP6QLOXLCfNLj87UMq0aWMROIWTP1sH8wWvtptu3F3Wu7JxIN6zxeFxLfNZqGSBcKtKuUv4QiCLe+g4+rHrzWT0V7qtXvsQDL5o5s6U/sSktKAmsgSVJR5bpj3yLwErlYtA5d5r7H9K+Ejqvkija5EzDBBEFF42zz8fuY4P+tCWbNgo9hTAMf8ijpJW2uKvGeftYUWbBPj7bB2sBu7PMKTmf2/0kvwZV/bL2352eHYEgrO7foOklGEc9rJAISephh2PbtWly+5MApIuNNdYeZWwjZ83el6xtAoAa6fXS25NmpwZJzXu1bzrsXYJoFZCUUAm7HRKNYYHyWaPjP/5dZWVl2hVczVeauRFKz4kfldit30gQbkLAX0ukl0fkVExk8pFb1jPNzidZpUAXRDSVtR8AJJ+RGHZa8dpoq0BpHf0YDiyiw2JT6CqkCavwRPxRt1MIkUohFFxNMRTm1Enw6NtPgMGbYTmhMsgfAn6gDSaGnYTylNMAdI1PcXAraut3HvDfDpWVcWXufB1l17xadq/Sx47QiPa1BxRFs/z2+8SLv0F+1cBiUtAJrz8y5cAycDng6icvSxBYgkCkJqoAvT6eErbY8vN+e86eO7fH7nQQElcDSzEosxh/6ClEKYTp2JN0jyGqgWXMoeIPIRyIn06YV5LBGljP2zWwJNqXJUB/6AgDcqYisIxJ4t2XHJiI7fMGADmenjSQPwSSgE05UjZg7Q+7to9jw9OHbgLkSywubhF/pA0l29NLWXIHljGP+ew4c7wQnx8sDOSNA4sSuex5I4xbwnqB0PyEaG7ZYr6UQKU3IOB8bjK1nxrlSW1OJpYbzMORHykfMuWcgi3i7tm61go5p5RCAQvdIwx6qVBWS6C66Jdvvzepaf87tCLNjAreP/dXm91YDpf4P9xAawsWFwaE9+tD9dm9J7b8MRlJoSTZZAaj27ZuET8Ud//8OQDWd2ibijxT1GjgGOVnXd/3qPXvx3P2HHrb5iNuQ508ZFMjhxbWecVxM3+dQ6Bk7bbxK1PFbyH3Kysri+34Z5N2SPSeQKAU0KIRn4Zk9BBLqCHI1t6QVG/7nAO+wvH1PSCULN8w+rVC3o+awC6sgRUsu2xBKzxbVS5+ZVjnmsBTqH2vbTP5TKcGVihad+lbZK+o+cNxgGWYP9ztoBV6GGenv5AubfCIbhgJwvv1oMF5s9f0+l+h0kBdg7tXyWO/1UD71Fq3T4M6f9qkzOtXB1uu1V5nXyEU0U3fq5+YhAQGe7+JMehKCimC/bJEr5i2+Pqb00GrTAqh4vAlta/cH7Q5kxdFRdzTsS/pHIN5hZBiWWWUgd8ctKLi35swv+TkdMJHjzWy+0rj4sONwGKs+ND8YY2YSQeWMf6o8udPgUTsdQAw06aV/CExCRxHRmDWiADhAf32Amht4o9d9NdM7ZMx7j3lf/4BEBtJ5ZtAfxht+cM9Qi5SCO/us75NEeA6ykDyZVH7FqBAphMVL7xsF/a1xnfssnClfZgTvKu1Reqb3RceAHd1/mXaIWSFnkIYiq8CotWUFrxnwAejX0RgdFFqyr6S8UcA+Uii/RTQU5n/dgmTL6EYz+1/b7OkXztW4ilVIdTmpNuHgAb30f3NyQL5kgfHbI7ksXXvTCpPFZZ09LvojBGHaLvJF4DAO1vsCSzoAxZILQ8JrFyzbXxJOmAr5DEubx0/sHqHXkYIdkGA8wn90gFl1HqH1vCC3a66Zfp5wxpMIR1XNMp3Eg2vWfH6qDrpjLzqvPuuAj2xOFx9OBV/RBFYLC+HONUxskcpYBm7gh09nCpIgT9cCB35bwR+hQtzZ2GS6w/8m7YXWs9d3zdjN76FLGPzFfbyTnPOhBihinX6aNBH/mLrwDK7CMIHM5f1dGttZmLNYWpgheWPTEZgGWsvL68orvftfn8BJGfJDhOcdOEQLJY/MQ26TF7UZWFNcew5sMIJhCD7SgeYM3XRNdErhDXdlDT3H9ptWRsk4B7Uw/KHBIzNE+aXBtR3qxnwI3t4EViOJmUOdVL+4OfNtAPLmDF+45prE0BcPuT4Q2E+sNaCQP8H9pdFfGDf+GNtH6nZTqh7SyOwJMcDsXVjfZsLB9bYPuvbAO3AcqwkOzI+2YwRcy/DGVUUcj2suLZVIOoF9hjtFAyhP6SnN7evQ8V6QUdghSrKIVDA4U+3fNiU2oJnPEfMTgfxB+P2pQAUiwfFCuyfqfP817FiaN3n3mZ/U3M930K95hRGNczJi5oM+RsBYENcnbXR2iEMGknsjJfem/BmCqCktUu7piMWApJrZYM6BZGZPHS6MYvthB7Tf/fnzRM/SyuQBTxY6anxo/Qiw5kFZQB4FiBozpUJq5ylBOSt3uFV0zZOnsyT7FMd07FkyZujVhcw+lMC3Svirkx99hUMFxlMkQOL3YRwysDL3lQKWJ4/3G1T8widtpgkf5jzOgXcw9Vp4OERh8jju1C95+L56wZ9kRIBR51yhoHeJY9dRkBbyhCl84fAOhJQBG0+/1/F8h4XZHIxKgdWMvyRaQeWgYdBly389d6ixBYAOMTCC38AEV4Cu0iUyp/thMDpDz/b5cOa4NtLIbThUoigoAdAIgdWTXYic32HXL/8Og2J+QpdMvwhhAhh9YR5pR0zBa1VA8uIwPK4JUX+yHgElgPj6BvXPEiADLS4O0D/K3lLYFMHmh/ebJ7vAefFZ7btnqn9occNTiEU26Iy/ZEvKYQ15Q/XJguRQijSBaoSIGnUH+KpKAOv0F8hpLlRyno+/mJKbKiYyByUHUBpwcuL5gqsA358RZC8MA6UWQZl09m0/jnE9A4Dxp/2vmq5st+Va05l4NYn3d4WNfIiTfAMqoWCUSYtybZ1705qngoc6e7TvunwCwnCS+a4AXWwjHVzUT+C5SHimDVbxhmvikQfHwbanRo/qn5Mv4IAXg6AFyAaxTWlpoUUf2yqVFg0W5uV1CEd8eeYTs5b8sbobWFnqQ3t3CLuksKZ4h2T8Uf0CqHikM6TjC1XWB+twvFFbYrXMrwqSO0W3Rrf0bvhorA8mBjoXKDxZW2fvVfOXTqwzj+mUIiy5KaSWX0QcLoFu4RmKfoWq1z30LaoYnnPazKJB5UDy2WrELfohMBnjy7tdmwm4TXG7nvVk52AkJXoeI9lTiypyJDaZe/s2bO91cwVvX2vSIZfUTIRWLyp7qMGTZsz+ekohTA89rPTctj1S28HxPvp2VKxyay0c/L4+HmlPTMFuewVQvfCJbBWI6s/sxGBZeAhHn+5SP9s958B8QIPPNFhIxhrqoenJB4H70xLYMtP+39/zkMPdd6Vqf2hx032FUK5dZObFEJZBJapCUPoDx+OjdI6TPqVSQEmy9gtUQu9LQLfiKCvfUZya6EpkqtEswc4VBDJ3UOnnPNsaKBz2PC+IW8cGUvAVyLjXGmJe7Ys85xSeB+kVQvLqWlF+Ygk/kiKE8T/9C1DIktsAMXrU6zaIs63AeCSAfc1+7wmWxf+1JLELBc2HlxJEI0X51zT1Pm3uzHciYRrYQlHxP7r3rnv4SSmz1hTI7KsXdPhf0fA34teSGJLnkmog6XML/ceWP/Y9evj1RkDuhYMfHnz+IGJGHQyXl7RES5GIAepKobzB/rkEJGU88q7+/qiCBKtntsYrxFTJgdpblubDiyC3vPqfJq8KwPU/BFFYLFGaMDeKpVPsGjPEX+4C1IHRfqcV66fwro70DSY/tsDDh8Ur+wcFWzPrQhIefbyktlTjJrjnpVASQiKQGhK5vnD/WZKxfIeGXmy3VlgWAeWcwgJQkw2IrCc+ftdMX88aLHh1t9sfDgXDenKb4X8AAAd4PGHF3dJ2aHgRmAphEHw/ru+z+gVwpQ5MXMdh3Zb/hgS0ou5vU863ckqUE0Axk+YVzIyU9BaKYTWK4TMQdBPgBaDB4KRLQeWAcTIXsuOKCL1NwHAMYx8DHOOlL1ArDgJM0XbEb5DrahlfEabf2Zqb/zj8g4sykDw7Y94p7wF5kUEFgd++KM5Iqwb8fD5F2UL99E8LAZEDixlyRqp/8OzhgLx7JM/NLua5M91TpY/nFEk14b2BHJHmw8CenrExdBw140D4q1+qiktheeSkDO1bjzkSETdSItjiiE63d1icdKZmR92NcTY0c+/M+H7kNNnvFn7psNHEIRxsom4wFof3fgpSyPalau3jV2SccBryQStW8eLDtgBZ+satIMEtEeElkzdLHqdZhqhQhP78EK/zhbOicVuMCJu2XtQo7NWrRqwp5agPHAZTAqhWHIy/YNf44gisMSKR7IFwocfFSKdIlenRlwydOreDoZ4ddJTxZ5jQhIIIl2gX3xqCD8SIL3nr+3/TDJwR23zDwM3lcxai4DtWMgo+qVKNrj2g9AwM86T+ogZy26ckMlVhnFgWTeh6pqL2XRgGTrz5IOPfwmQnC9MHfHpTOl++HWl8bcG3acu6jIvFbybDizEx6nHsFT3UuLXnIzJSfQKYSp7kOk+w7ste5UQOMez/xVeFSF/W/pD02DAuLml0zIFsywCy2fAiLiAAymbDixj8nivF1oldO0viFiPq1njQCc4bbL2scCACzAn7ELVOmCs490zL1qbqX0RjRs2Aktx/DKP+vlWAyvUM4IuUgznrr5uxMMXRA6sbBIgNZcsAis5J5Y1oFtUX7YW1hEksYYCEOGLegvDH5z8o+RIUucVgD2IMKT/xOZpk+Fpd2C1Ofn2EUAMBw8vLd3JwjmvjN18Yt0793fNEV0Kp+3QYuSv9GrTQVfkb+CpZnuBCuowiZWQtWu3je+QT2ssJFhKWsQPBYD2JIadgOgdAfBgNkRdEhIUyONh2cLnvLLDaVHDSctev3NIIeExVVjdFMIQDg01f0QRWOw+SOjQRqQ8AjuYfr1sT0YbhiaBcI5dxxj2+M/dfyV7WQ384hMQVugxvc+TqwbUmQjH0JtSgA3LS2YbYfdHeqD7CNtHJ0HGEhK8esaK7hlNOQjjwDLpVh1eaKR2fDY9CymEDm77lS48Cor1rQBwmPMdh0/OtyBmVLoZAbKzqBjPeGhhl/eSJUGvBpY6osWRB46ZLxAQUQRWshuQ4fbxeFzb9XHz/7GvxYXjDx400zHcaeL80lWZAltWxN2dT8gwIkgBmm7fXtS5snMiU7CKxh1dvrY3JPQZrhdYod6dl9Is3hLwuvOV7yhHH7IJIXfcPau99EI/U+uX18DyHoRQWzfWAvPGgeWqP6WBxKAVkUQOrEwRWohx/Q6s0E4oiTxR7r4kCohT3xzslH2lrlglL2pMuTf484q00MNrENN69R/ftEZ1M/1LUuIqxP65TQyF9ZfF2z8GQn7rXaVZBxhh5IXTU5BXaKIa9QvWvfPA/yUDQzbatm82YgkBcjmPTEpk0qdL1vpy8WHe1BLQi3Ry/PPvTLCfE8/GCmrnHMZN8/47tHMAEpcTTbsCCDnWud0Nc6igsUK3F9fr8R+vrTB3ez49ppNWz705OucPD2R6p5kaWIrJGGEj5I/IgeWhkKcvlj5tUrP9Q140VTiHrRMpkg7+ENcDDOSPUJEWbty6b7XLAAAgAElEQVQWkk80LBo2b80tGXVQZJpXovE9DNxy5ZzfJarIJ7wBZH1DF7R1/hYbS9a3sURR40ee7/ZBJnGsdGAx6j/YtMq2A8vAy61lT7VLEH01ENSE0oUV0K4ys3eEQS2l6wxe/qBeg0NOn7Sgw45k8J+6A8shEHo2bc7kRVENrGTwn+m2I7s+d3ICYu848yRXpJqn0Krivcc9MPuqf2UKbtqBlaz88Su0bEdgOTgZ3XP1HEDo4eRcurjiLgOsSFF3b9Q1UVj+Ny5rEZbGK9peiehWWsrU1nDjqoq4M+al8JFTj77yIoWQFmmhHp7y4I8cWFkjO+FEQSmEFocJIrI58cYyqNIx41ySGYdT20BS9qF4PBn+cPW/0r0h9Hh/DUhG/69h89nxOOrp3in1mpOY8YLGgztqCC/QBo/fK8jVXOAkrO3NQvLRuncmneizopKAJnNN2zYfdgkSXEnPQNMj46wTIsDraUdhTVi7bfyIzEFcF0cm2KnVmDNiOrkGgFwHgNRNvwoflDNKySHWBjMvSFj1Gl5dvmHUeaqZCv13N4VQKLtoOnd8ez5nNssflYtfGda50HGSCvzXtpl8JoK+ga3xI88wd8KTvGAPVgKpYEilkC5j7Cr5wmvtPIhA6VoVeE4w9ZeIOHFno29nVFbGo1pXIbBWKE1uKnm8K4I+XyYhaPqmuUDIH0iqyBFV+86c2bsqk+sPdGAl4bwy7c0sR2A5eOl71RN3I+Bov1nCZ9pzLRjUur/a/0CAJ6Ys7pJUtDyTQqiQJ6x6oRq7eI8cWJmk/VTGHtZtaW8gOMM6YHmWfHKp67Z9hbB93NySAzLpLPHXwGK0L2ffBPNHrhxY8e4vN9CL9rwKBFu4eA/YPMFbgt7xLcj8IPg3aLj/GfFpNa9jkwptBdfA8nLPvWhz2Sz5kUKYnHOXPXlGKYSpUFD6+sgcWIGlBAIUsDL10JSnVvF2pxaf2vr3tbDlWbAUcwQ3H67F9/NDQL4HxMmxhsUP9o03MR4ZyMgn9DEkzOxtGg9aCqhdpkwflApGGhzyGmpoO8P42cO/qRAEeYqjIIkBaHcZF7+sKKE1tQ+1UkybG//fRnvr/7ry/eiQFobOkm1j1s3aiR10guUI5FJAkG58Ci+A2ODYYofibILQcfnro1YnC28htb/qvPuuAj2xWFXU1BOFEpFp8kcUgcXuvUBoUOjjbGr1O8jMUzHJ1oez9KaZ9hwqTcq/FmuL5S+4OpYzAvmSIIz+NkaeqCu15AqJ59MBa/mlc+YAkh5Seg+lPl0OeL9iec8m6YAraAxlBFYS/JErB1ZZ2aLYEYmqtYBwofBMziCAlz9S9jXsaR3Lpz173WNh98FzYAlDJCSQiAWgDjBn6qJrbgw7d9Qu8xgY2nX50wjGBaJrItkXfeoacX7oEPHN8fNKzsgk1LIUQkGCiLcgH0AOdebKgWWAc++Nzx+7F2KbANEor5H8i+nUfvH9zRVuR636zHhFp/czuR9BY0sjsILMS25AS77lSwohG0Uf/mgeRWDligqteWkHlpOWm/yrntZ+hzCPbX4W6+ZgTFBFRZOzr7x0wsDzhzn7j0jwbm3f4scy6bjyi6gaU8CFze44mlTvNl6hsGtDCRDsd9JJBAoNnPwWJJjBhb+GeO2GTcDxkZNCpni3GQ4pCrSbENNo3Mhes2bbuEU13ohogEAMlLa88wQ9VjxYI9idgPHijPdJvoA705tOIXQk0dplG0fV6vpmTBH3UPwRZFFFDiyWeAPUmVAXKTfADYNLxVhKO3/IOfX76qo9f1y4/vZvI3FW+zBglBr4cvOvjfpXh/P0bn8j8d0K+QPJ3IplN/qcYenHm8qBRaflqlLWc+XAMrDSp+zxI2N6vbcA4FdC+8pFnVyeSOyrXUTDs6Y9c+22MNj3UgiFr1EIrEOfy40Wj1ER9zAoz1qbivJNxZ/u+vwbAGzk2vN23qkVOBD+gG5a04jTx88r6ZfJBYzs/rwR5WvahJxzV2jSs/qZPt7k0oFlgBq/6c9tdZJYDQRisnstD3rJXnDmh/UFaqQsXtHBe3k6k5siGVvowJIXBZWgwFpP/qQQWvBYMjk8f0QOrBwQIDWl58DyJIBy/4T2jfVlYHyP66BIwYElKeAerOV9FdspBwl/OjH1+F6dYNPb7mv2t2zsSnguUUDT5pTBo0GHu2UGKTOR8FwmBkUoQ91dDgafnZMNuQtajlAtKWJRxaqMgkCN6ZfXbh1/YTY2PZoD4JJWY07S9MSDAHixHx+pRJkwhftcUkOSIOSElRtH/b224jxsDaxw/BE5sHg6EQpLq1kqTizHEHeDHgLGlxBtOvhDrqUtABHJI/PX9u9bW/mmLq+r96Wzz9IR/sqqRAEdUqdI+XnXELbYq2JF99mZxqnKgUUf1FVRirl0YBlw9rnyyTaaBi8igZhb1kFoOQvNVJ59vcKyHzXYf5+W98257GfVflgOLHzcNNlDXC5641EwOf/UtDmTn45qYKlwnq3fh96w5CLUtT+L5ktFfwBClwnzShdmEn5/BBalKiXkKT+z5KKIux83o29cPQwQJwTpWo+TJAcUH/sjIffHZ3UYmsl9CDO2PIVQHGUSdEjPiwgsRqQlF+UeObDCUEzm2vAphNZmJufE8ihUaZG7DZLoQ8d2BZhaoc4fAvVLQ0IAnr/1vuaXZg7jrCVQ43mMsPRv3n/jHwjk16KhzcU5i3atPHpaXrxQtqvli+b6B3uEmF/dAQy6cmpsBS+bq2PlNBcYedZcFoBsjQ67kxRUj9AJEJIgcOJL28Z/VOMNiQYIjYHSM++5nhB4BIDsz1BkEjeEJq3Y9Ol3kBMgo5ZvGH1vaIAKrKGZQkj0wNu48PwRObDCima3hqN7W+wJSAK4B4F8zZJScLo0XRMyDOmbN+i0LCVwOCA0FB5YfPxBi2M5uWM1YOzUBWtvebfAWCICV4GB8pI5UwDIADGt8/pZfky0RiBk70kzV/RO6+s2oiWErYFlWgMqh0yOamDR6+p/9ZN3/hKhMYa57JfnSzEokdpXluH+zJTK665VMYIbgaXClXAg30E1isBSoTurvw/vtvwxQkgvZ1K+KHqw/e63xTQt8Zuxj1/+70wuginizgAg1mpBsOQ6AsuSiwTjvdYsJohX+mFlz1eCvRB/ta5xux/ad+6c3dcVRXhmHVg0sMnrj3xwYNWMP2DdiIfPvyiTvBGNLcdAUBF3aS+fAnV9QoQkdITP1c4v1nkVtD8ak5hI8YdtvxMgByMic/7lXlny+V94lc02QMSL+09svibTdBNeiwRAcn6TQaUxwGVWE8o95wvFtQw7kSj1XsPwI07Y3B0iCScWrUkD1sLPZ1XkDjml+LXFgP4Oodq3oA+s2TLu9kxvejQ+i4HLzx7z+0S1vhQATrZuB5UXwlKC4Oib4NZlG+88tbbinEkhdNg/kL98HEZbUkYNrFeH1tki7gD6BhY7CvEszLwx05E3PPnybWdlk+aubzutBwCZw8/pM5WVGsdThIjw5/lr+7fL5jqiuTKLgbKyRfUO3P3zFwhg1WfhzAFK31L0zab2u8rcOKR9U7GixxEm1Wf4EyYCS+W4ciHPAweWkcr57bt/WIUE24vtG55ZWetObuAhIX2nLO7ySNCWuDWwjEbiDRbce0r1x5zJUQ2sDHNAuOHj5Sv22b1L/4oAHMCzt1IB+LqYFvK/xs8vOS7c7Km3Gtlj5V4g6JaVcC9apPa7nD/ywYFlYGJiz1f3367t2IgAJwnFbVCqGnvI/mxvdVXL8Y93+iZ1DKevp7gGlu910hD6w4AoHxxYrl4Ic3tIodHSNyRyYKWPtJIeia+BZQ2hlHQCAYOAXw18oOVRSQNRgw5Thr51ERAQRssKHVn2XOL12d8ivP+/ht83i8fbVNcANGVXJY6VIwBAm5Nvfx4I6eS1tYalfXLMXglnFSsDZn7XeuLMKK6ZEO6QwsGDRGIsSZDCvejBIYDt6BR8s3BlzvXdnh/qHbP+n/HdYfAetUkfBi45d/hBsaqGywmBc8MeQvwUzpCnAxoBsk914vCFm+O1sp5P8jWw5DnVURF3fYOn+oKeAJIpSJsCCW54KssOLOMw/PGrB28CAMpZywpAL8tIxbee/tCBXPbEi/2Xq3pEvxcGBnpdNudqTSeVYmhd40dsP7idPP1PAObNXN6jezZWH8aBZeryEHZGrlMIHXz1L1t0GOhVRj2sYzyLO6R9JTTw7JEJ7AHUz5la+afNsr3xUgjF1j5vPvngcswzy8EQObCywQQh5hh2/dJugDjP39R7OCvcscOxjwngoxPnl/QJMXWNmjgRWNwxwxnVBVvNH/mQQuiAHS9fc6KeIG+AL8pCWrPXtzwCsIeAdt6Yx9q+WSMEp7GztIi7dZhS6A92Q/PFgZUqf0QphGkkrBSG8kdgqaOnaPrzbm5MtiPw1aAHs+vAMqCZMuQtw8YuYZcv8H/YwR3i0wkrOJDoA/rff9q0FFAauks4TRIw3IUnDT6WIHzqf9nNqQnEiAra4HBPM5x24ISPK5MYaOk/eHQKfw0Zqm5FQzkpMjZ8YYxS2udKW1+UUPVWi3bCoSNsLYgJ4PVrt459MvQORg3ThoGSFvF9SAxfQ4DmzCEksDYItaMShyUBuGr5hlHPpQ3QPBpIVgNLTP4UVwobRCmE3taypzMuMpUODGXqWZlCJOsOLAPu7m2nta4G8jJvPloC0BWhAb45Vj6aEvHj3Qce0aSysrNRYDf6FDgGbiqZ/SoCnMMvgzVF3Hqjtn0njdyO4VUVS3pkRbaqHFj2bbgdwRtsWuWLA8vYh1uuXnheEdHXAToP8NAGiyT2jZLfbg0t/s75U61qd4vJS3v8ICJbr4g7H5qftP6IamDljWQY1nWZ4RDlos4d/vD0gxxk+nIXNNJxwtzLMv6aM5NCqDT/g/VzvkRgORi+s9eqKzWiLXZuyhn8ioqGUwyogdbrrlltM15jMBkCDnRg+QKxxCX2vAXmWxH3UPxhvwZtSmo0IrAuiFIIkyGgNLZVpRCKj4+8ArUlStYjsAxUTB765gmox94BtB6xENZ8Uh3f/PqfwP+0oj1/7Df+zO/SiG5mqJo7sJoMHkMA7pQZpMLbDM4RJT/RcJcerm2lvgVhRlUUeeF9D/Y3/uLtElCd2wzrZ8FOSzDNFP+2kPjqmq3jzsvUhkfjBmPg8lbx43Qd33SfIFYizNpY2t/JHbY0Mm7ZX0ffoRyqABu4EVhS+nZe1bD4Scgf7rojB5ZHAsHyzQlv9WiNVojZj8By4L6+7dQlAHA5uw47JZdIXwAWUL7NVwCgExzyxJ/7TipA9ohApjAgLt7uNKAPhF59I7/69dHV7lj9nYc9Utl3ezYQHeTASvaFznxyYBm463f1U0MRyESviKfavmLsXOZC0lMGCPjclMprrgZBiieTQijZQA8K3kJz5zf+QbQ5kxdFRdyzwQdBcwzvtrQtIfiiv02y/EH1/3nHN0WHTVvVaU+m1+avgeU6ZgMvMD09Rbt68ykCy8HbXb3WjCcAw2k8SqNFnOOPhjPjM9v1zjTukx2fc2DRNx6UAS4/4HqSJR8isFLlD6v+bpRCmCz9pLO9qIi70rHic4y4AT85isAy8DF16NYphOh2bVKf/vepX946EOtnRG1a/4lNqXqn6cR8iDTNoOlatCgv3n/3/v9CgF+pDl7mhgbuKv+jz6T19RcPFmh2hYzA8h++GEMpACGcMuAWwHb26l95LxYYR3wkRSev2TbmvfRudTRaWAyUnHlPHwSYrm7PbrCUvAgsXbZx1BXq8QqvhVnEXdeNm73Aj2fmUc14Bq9c/ErdrYGF4KQQOjgSIJUScLx4sb/JUQSWAXWXdjOO18heQ3YV+x8jDxHEytRQpNb3I2DsjwvW3vLfwuOQCGIHA71LZq8gAJLXaezdlthNQusAYUXFsh6l2cKwOgJLaeS4oOabA8so+Ny/7MkVCNolAQ95sxVOgw00d61EIwOnPdNlsn+fXAdWqIhMAW6p+XWAOVOjGljZYgXpPMO6Ll0HgG1EDSz5H2ih+7ohgAbPTJhbonwQIB0LlxZxF7J18Pkj3yKwjCUYj22d1KjRKgAw60qKzh8sHskb/2uYOH/atMw7D5PdP/ErhCx5KY5f7oE0HxxY5n4kE6LuaRJA1KMIrGQJKI3t+RpYAS8QSsWfzY0EvhqYgxRCAx0P9914SGKf4r//klF4kIUen4wL/lNWB6C6nlbc7ObxTd5PI8op6q/BqG2aDLoKAKkXyCReOGcOxSFXVMCdjaKigQ0eTPhrSAeWN6fAmg7AV2Duq/AsaqUR+vsRglPXbht7aw22JupaAwx07Ni/ftF3h/4dEalXNYUmmV191nbPyDQmgb8t2zjqxBqAlLddk6+BRS2FE+ZRBJaHnQDnla1beF2YeweWAVrXtlMfIgC3cQ96hJL/vpoAjk2K5LEFa/uX5y0jRIAFYqDXZY+dp+na/wU2cm/RrU0PPuoaZdvx6hkruj+bLdSrHVgWgRNClHWw8s2BZcDd94p5h2ha8WZAcqzotpGz7nj5LdwKBNgLOpw/5dnrNtIN3BpYSrngmNMCC9ox1qJXCLPFBtJ5hnVd2gEApal+zgFdZPOKBzXt404T55caTpeMf2rqwKL5Ix8dWAYC4+UrDtUT9TcZPO6kEQrPLQj/RVLdIj6r0+cZR3wKEwhTCJPUH860+efACosQi+IQo1cIw2IsE+0cB5ZXNkniwBK7R1zHj63dcpJC6OBl8pDNAxHwQWG0EXW+FbtSpE79Nf3va35xJnAf0nQQT926yeC1aHvz2RaCo5X/K+7WTbp4K6qd6a8ybQV3iOGu/81lsKPbf4VwfnHpUTRSJJiWKJEf6sXqHb1ic3xnJjY9GlONgZIz7r4XEUOk/dlKBAxjy2Z7H3kSAj8v3ziKe5FHDUX+t1ClEDor8MhfyggG9qIILGbLA3BlE5tHahTR5TACywC/rMODBzdIFP2dABzsSFPudc/AqAvBqhAS1QRbPvVi3635zxURhCwGCJaXzHmNAJwlNzioXwTq3d8PCXxzZIP9jolnsTaayoHlGA+mTlc4sfLRgWXA3//KJ1qBhoajkYqgVFl3nIEmYoB/xSB22kOVnf/n/JhcBJbE5nO+jmpg5VToGI947Pq4+WZAbC4CJNkC1ZYdjp9/vGvXcZWVnRPZWBztwHLOAe68QsElP7PkYwqhs5ZRvda0QIBXAaCB8PyBUE1Qb3/PzIvtepbZwH5yc0gjsHwHOPVJMT9eIUyFPyyMGbVFowis5Kgnva1FRdwDnfRC+8Y+P+YwAsvASjz+Xr2Ddux5FwCOZ5xYAv8N6xIJ5jSdQMlt9zdfmV7M1yCF8MKTh/yeEN0INws6kTo2nbAmmLcYfgjmG/oP94JebgrzyodqK61h5b3kbIuFIPCYfbBGt/5rEa4PAonys7Zc7K1FDXqsfmvc3HRveDReOAxc3mpMa504BallfTznleP1ZJxYVLcDDvhxvwVrJ+0IN3vhtDJTCIlORWHysLP8QHleLIahJEjkwAordHjl4fQ0Ck3lrgaWA8X17abdCgQmmzeEVDiNjD9EVOOqRFt+EgLrF7zYT5ieUjgcU/cg7X3p7G4EwXyVTKx+BQrS58/yYw0JPDRjRc9B2cSmsgaWsTq36LzCPiHw2fSl3Y7NJvxh57r1qvkDdSx6MKg9a5+FtsVWTl50bSkimli67dqF3UkCH08u/VxS1T+qgRV2ezPSbnjXZTcTgEeFg5vRlLa1G5I/bBN67IR5pYL6uhlZAnARWIFnsmCaz9cILAdzo3u92AOBzBFJZAJw+z2z2j+QGSynZ1TWgUWF6zrDh4jgdZrmOgKLTq0lrnkcTF8W7Pb5I4rASg9RpTiKqoi7TCbStr6z27l6hZCG8aGhWy7XCBi1bGkQGQeJ+FEdiYVnLe6j+t83O7n3TKxKEc1qNCYzcJsmgycCwFC+D8t47sbYDYMX7jAlizcWkY5W4dt6LO2xN1Nd22wQ2tjy8hicfRFMSUNj/ewb3+98434Ww0MANq7dOq5VMnsStU0fBow0wuLvDtvpf13TPwP32qaMvOrhb5b9353/Th+E+TGSGYFFcLFzcBORv+NzVvJHHY/AAtA3iKWnQJHYDXlyM1KrYMOTL992Vi4ppLy8onjnp3veRcA/MvuvtMt8GPAJWNTI1fPW9M9a2lgucVgb5jbS0vZWVX8ACIepNbbv+Sj7EOJXv0aVyHqkfuOHV3T5MJs4ChOBxbxeGwBcvkZgWSATHHD1wmcJAFe3kWNftYHHmm+AQ6dUXnu/8WXYIu7s/kvsq8iBlU1WYOYa0v35I7VE9Qe/PGZ1oAqIsPwBgNUNtKLj43M7/lM1Zrp+NxxYSKCYLsbu2jPMxTnTwkff1p/5HIHlAHxXr7WGw/FmH/4W3T2r3bWiRxfShed0jOM5sPwGgtKC8hlTOY7A4sBXGkgsvVmpSetGPHx+9AphOggrhTH4GlgBkUGc+4Kj15ymEDrLnzLkrfUAeAGHDgpcMaUK9LMtLgnC4FsnNg+8GEsW/clxiz16WeN4vW9g++eIxDRK+Y81rHCvuKJWvDJw+kmNJcWVnduP8y4FL9eb1/6XL6fav05ufUGnd8HUXhFFMcHrAKe+uHVclDKTLFWnqX3pmfd8CwCHyIeTHLYFe50g8MeVG0cZEYu16hOUQijmD0oA0Icf899RBJZFHFIJ6P0sDH21EZrjFEKHwK9vN60UCCxz/mbTwIPYwNMfRitf1NY/tL37Np67vsfuWsVItXQxN106az4gdnWoml0mLyFc8hfZD3ZnBFg2Y3lP6qXL7CBP5cByXpIKc0jPbwcWwG2XLzlQL9q1mQD8TmT3yA08lbbEakRsPXnRNa+pUghD6w9LSMyZHBVxzw4j+GYZ3nXpYgJ4lWryZPgDEBZOmFfaRTVmOn93IrCE5wfGppMf3RxdVQgOLCNdiHz+xV8AwLwoJ0je04p/bBV/pHNWXnWtyd5ZDixs5IWF8CFXnHnpTsjuX84isBDXuRe/bhH3wNoKDMo8fjIcWBdEDqyaEFQN+opSCAOHkwgYU9/l8BVCGuaHhmw6TYPYm2A8o+Ea8JYxLo8BUrqTfoCY/scB40/7pgboZnkglYFaN7n9WgSykO/rmRxcZApnwXLeJR9zmpvJipwQSsTFNTW8VUNLiVzW/UQ/y2rC7nNW2Acrem+FOaNsA2o9VgF372cffBb8j67ZOq5PKnsU9ak5BkrOvOcDBBAWX3dqBzD7F0BimqadsuSvdxi5xbXqYzmwYHF6+CNyYPkknv0nb9TQvnVPqeSXA8sA/k9tp65DgDZuGqFSs1sy0amZxchz+w8EbeS8tX3G1ypGqoWL6VUy5zoE8pTY6Amh/x2c+I2mWOzsiiU3vJ5tlIVxYIWFKd8dWMY6+l21sKWG5FUCUN/kScrmcZ3RIgYVIMGnGj8vKtrv1ET19ksJwOM2wzO9xNRBjeJvENXACkt6aW034oblN+q6Pkv4YhUdehvSBneA07TEqePmXpHVy1smhZA7P/jRxht7tMMk31MIndXce/NLR++trt4MgA2KY3D6qIr2BXHJKqyBRe0ZYx8FXfZBjiOwvAMEn70TwKmO88qylSIHVlqFWpKD8UXcJRFYMgVqOSgc/0NeRGAZKJg8ZOvjCKS7e4XsU7+UeSYum8Sm3lj2gw4VA+5v7o/6TBLj4lNS6EHaNBlsFPdrzXbg78sco8cyUGjrh+6pvs1w+xv/sDc7CFjOz0X3MbxiAmcWD579jSMJJc4Jp5+b4+9PI5Q6NayeQS8XIsDP+++td1Tl+/G8vxEJTTwF1LD0zLvfA8DGwbRmF9+zCUFGnkWJ4pOffXP4ewW0/FCgqoq4+/nDGlQiCaMIrA1S0ewTUB5eKQvI/Gd+1MByoOrSbnpzDRKbEVBzSgSp7xI8+nD/RZ8OEH/WseiEJ9b0/ioUkUaNso6BfiXzf7uH7N0CaNySexwvcMXylbFk4sFaxSsVy3uen/UFmQXOHzumWq8nTANnDxRSpe+CXQgOLAPYAVct7EuQPKw234LXzLCviQVttaaRRTqBOeFsOd8IfgEYpRBmnSVGdF98op4o3gQA+6omty6QiXkprbpMRoTV4+eVdlSNme7f/TWwgo8aLL37+aMQIrAc/MVvXHM+AjS6a3aHFenGaabG41IIJdkycqnkCZCcRWABrnPOxcnwB41Tu1+UQpgpQgsxruHAKkrgV05AiuRVTyZY0G/nu/IjTyKwDPimDf3wKJ3s+siU78mcPwQZcq4bhUAiVhQ7rc+4U94OgVplE7Wl5Rui/SmDT6zSyfvyQDL2yGofqawlcbPxZg3DnH7w3UHkYZb8wc4eRH1q8oHnK8ChwJT1s69R8PJc55V0NQYIOvZevW3sTOVORg3SjoHLzrzn3wTgGPnA3garIkxiRUW/f+7VEZ+mHcgcD2gWcdf1xUFPOXj0reKPKAIrVPqgW+hTIi3zJIXQge5PbafO1gB7qoo1W+3D6Q9EnDtvTd8eOSb/aHoBBvqUTd+vaneD14xSMM7PakPDbkEpcJH61Am0fmxFTyPtJeufuhaB5SC439VPLkLAMpY7/V7J0DvsGGR2mR2UVfZnyg8F2leWkRmlEGaRI27rvuTAegncgIAnhJ1W5biy5T/RobrVffOveCPsuOlqR9fAYs4rwrInPL3T3xSSAytd+MvmOHwNLP68FvZ0mVMHFqUgg4IZRLh120evEGaT9Li5vBRCJ4wlRA0sgYAxv8rxK4T+xU0ZuuWuXy6e445pLvWvhDHuXRbFdf0nNktLyqva6vCtqE2TwQ8CgYFieFmRwS3WNxsB3ABA3vKSLNV0aI6p2QSi2+01DUDXAYz/T8PHGcUdHgCMf2vmPFRWKN3AnpcA1EOCvZwNlzy7ZP9sR+/IYLbw9daaLeNapGFZ0RBJYF9/yaQAACAASURBVKDsrIEN9+gH/QwAMXk3lsKDfKR7i2OHr3plZNpyf5NYSkabukXcFbNIDyCscVi5+JWhnTMKcJ4Ofm2byWci6PIILANuh9ykb1HYAjbPHFjXd3joV5Ao+ggR9gtGfxL6A0EvihWdOeeFm40IgOiTJxiIx+PaF5uOeRYQuRpVwcaG7yUp0StSBFZUrOhZmqul1lUHVv8/PXEA7MFNCHi8ZWPb9pfKwPNtFLv/ymfCBJUAqRH8p9MoAitrbLGobFFsU716z6OGHZKZNIwDCxGfHj+v5Lpkxk1X2zt6PL+XECh2VC1PgJQCFkUZUIBEDqx07Yp4HGkKISWg5Idtd4fNwfPCgZVkiq21AqsMDUavEGaW2BSjp5ZCSBv0zOkob1IIDQgr4pv22b0jZkRhHa0oCS5M1KVRR5+PEeHKfhOasy8dprCLSTmwzjprYMMGP2mfA8DBQY4Z/y26G4rrCzWKFeGpL269P6t57ingKOku7ZuP+CsQsF4BC5ainhAKCGFBEjtj9dYxRkG16JMlDJSeEW8JqIXAubXBpnEmD6Xbs3TDHQ3N9+Fq2UeVQugsV3o3wfBHFIHFkodEPFM48/7ptc2HVwj9ZN6t3bRRhMA96osaiRNLjIrX5q/te16+v5hUy1g+cDnll85+mCD0tXOF3LZqQ8PnnKCiDO1/VidiiaazltxkvHaWk0+YFMIwh3TTLCDw2fSl3Y7NyUJSmLRP2ZPNY4CvI4EGRnfeiaV0TwpmVTuxQuuPqAZWCruafBdCCA7vumw2QeghvJSSDBmugDvZC0WxkybMuTQnkep0EXe5k1Zs1PvN/MiBlTxtJdND6MBytoYSUOLjF/ttPjiwnBTCgNgdGWcBRhFYyZBO2tuyRdxTicKySgnZMievHFgGsqYOe6sbITjPAVDOUwGotc0Dykr4lOzct/GAacfvqcmGqO1KavQLTx7clegw3/yK60nfTljeYVeO0G3tXSKAm15+9/7TawJ8vvbt0GxED4J2bQeJU0MZLsrY89rs1VvutaK68uxT1mJCo8rNw3/MM7BqDE7JGfeMRISx8oEoh4Gfvnn++GTZhlF/qDFQeTiAmUJI9MVBoLG07st/iyKwTNQpI7BY8eor4+cTxnkWgWWsr7ykYp9du/d+CAR+LY/elTxqIdVSpku4y7wX+woeFMlDZqnlIPW+dNY4HWCEZR9Q8lG5bl/0FdXdFQ8EH6lY0aOvcqgMNpA5sKyl2vaO+fIMBrzUYwFYaA4sA+YBZU+XE6JXMNubbE1SZ38UJR14N7ZvY/0yIYrAyiDle0MPu37ZZILkVqX9SkFDO3UJMSNGhLf1BGDSxPmlQ7KyEMEkXBF3o01QfQ96jb5HnQqliHuucF3TeVkHllx/yOfxBEiuHVjspYe8PA69FvZ8bRRxPz8tKVk13Ze62N9fA8uSbj4F5bPfPQOBrYOdL68Q0vsYjxPt4B1b3yAILWgnltdG4Ubi2dPEDyIZ3m9C84k1oZmkHFgXNBn0mgZ4dvCE7JD8azVWbx3h5vXvTDKNodr2ad/09n0Bi74wn3kNxHAIM8DqvyOhJY7+8+aJeeUouuS0US0I4moNIb5y0z3Ta9M+lp5xt1GAuLlqTdxrm4L9JojLlr9+Z9affVfBno7fVSmE7OMGAsOVwVcUgRUiZNPdNgt1nGY0Dscbnnz5NisCNI8+f2r3yPUaJBakQ3+4YxD4964DDz+hsrLzrjxaah0DheBNJbPHA4FhpmHm+CGFhosfNQJDj2piU/eXUH+/xjMrO+dU/wkdWJxjOZxJVYgOLGNbBlz91BPG46KeEKJdTbx856UTvf9U3RoJx/DYZG72vF6RAyujMsdIDd75yWkPIegDvInUtG6KAyruXBqhiPDPQ/T6Jw9Z0GFHRhcSMDhdA8ulZG6JDkWL1+58G0VgZXYX2RpYxlzCwqCSRE9KQeU4hTA0f8jko3XAjhxYmSW3wNHpCCzliZ4zd6zIK+eDAHkXgWXANnXgWxeQIlzPpxEGa3j/8YS+tyIAP8f04j/2vb/J16lun1oD2SOff+LAUzRNe1tyeWK3YoU7bdr4+u2ov3u/o1Z9HP8pVcDzvV/75iOnA5A+YjgtPCVF7Kj1W/PWvXnjJLr0jFFn6QlYBQDmK1MEYdiqTWPuy/d9CQNf6enx80HTlIWCaedVIF8Qcs+yjaPvCjN3obUJKuJOizbP2RKUVhs5sKz9l4hlG6HibFWqTx5GYBmrMg5BH7968AZElETe+vSHQjc6zjtEuGvemn73FBrv1AZ4y8oWxQ7c9dOjAHCTZ4XxrlX5cY89TNDk7/RBjF05Y9kNNa6XUFN819UaWDTe+pQt2i9Gqt9EgBOtW2Tj1VNxUT4p+ypedqaMefOf3CMgIh9C5MCqKXlL+5eXVxQ32nn4HA3xeju+MCg0iTmN0aezwPRanXSc8MRlqzO2iBAD0ymEQWpYpp9psowcWCEQXoMmlgPLeOFWcFtiKw754Zb9JWcRWIjrWPBDH8ct8vSedoscWDWgpZp2ZWtgJXOuZ/fb/isvHVgGjiYPfetZBLzSgzp555VffxAgcwZMbH5jqnsQmmNaNxk0DQH7BU9ELY27eaH1Gs556d37UwY61cVms1+HU4c1I7rm1ffyYdpzflgCWBVyiIjvrN4y1n3VKZtr8c91acs7WycIrkCgizKbKxjz/OZ7RucStprPTbD0jDF/AYTzgsain01390/CTQkCHVZuHLW25rDl3wiyGli8aOMYwLM9LAQa/4mKuLtbLCAm5yv3KXLn4V6f/MhTB5axtK5tp58LmHhFfAgIpz8sFDEUtqNerP6Js1bdZNRnjD5ZwsBtlz9+4I7qxFMAYD15T13P0Td1hpHOZ4wJjB/qK6r/czOX97wqS0sKnIZxYPnAl6VFyQZEhM+mP1c4NbDodQy45umTSYJsRCD7eOKKN8Z9N8ssKhQEEkp/GCM6k0Q1sDLCIoOvW3GoFtOfQSAXOjzsHULoDfDtv9D+lx43npgwv7RrRhaQxKBcCiFHwDRV8muhv4kcWEkgPoWmgUXchXHpvkko+ZMzBxbgOgeq5PUHgpGOa6ldIwLrgiiFMAU6SkcX2oHlSEShpGPEB6vhqPN/3jqwpg/f/IdqXXsPjIfqBJkfDC4l5p3XxsWQjrHi0/uNa/xWKnsRyoFlpMRVVZMvAKFRcE645w134HcnoA9fGpz90juTXk8F4ELq06H5iI0E4AwRzO4LEopoC+9nQ2DBOWu3jv1rLnFwyWmjOxAkxm14QwsOn+FC8OmqQ/frtXbtkJyFgtcEP6Vn3H0DIM5Vj2FRuFt8j6JvFiW4R6+qPnjF5vhO9ZiF10KdQuiqaPsfVKg3l+4fObAEAt5jM+FlIydp8zaF0Fnb9e2mViLg1Sy1s4cDd1X88vyWqC2FyJPz1va7vvA4qDAh7n3ZnMYkoS8lAObLdJbzyiZQX/2r4KoetuD0nQ1t6fqVFtvdfMaSW/6bD1hSFXE3jVezxo/arCrUFEJnH/qXLeyOhDyuKvblZ1+XFpKMwvLsDIn+QG3O5KfLavWlaLZ5YEiXJc1R054DIL91z/uuM1opmBm95fCEgD8+g2qt+YSnLv0+2+vzz8dFYPHmrd1F7LyiY0kjB1Zmd5NLIRTqj6BYOQ++XDqwHLXpFHE3VGgY/eFFn5sLjyKwMktugaP7a2AJM6ukvm9LlrjHRwJfDXqw5VE5XE7g1FOHvvUAAA5izykBFp69bnnqoVly4pV+9zW9IJVHztSWFgC0OXlIT9D12eFfkPJ0l2nU0UVZCb738nv3n5yvG5ROuDo0H96LAD4mc/ollUJoAqbNX7Pl3hvSCWMyY3VqOfoyQsgzCFBfsMPuV0jgXSzSr1y58d6/JzN+rtuWthxzAsT0TQC4XzhYfC9OiLnphWUbRl0SbrzCa6VKIXT5XyQ8OKdf5MAKrIHl1BSSRrTY9JPHEVgGhF0ueeR3RXsT7xNXjjh073OG0+wg5C2KgAgSrShx9txVAzYUHhcVDsQECJZfMvsWQDIJAO1LDGr/fOfa4GOuTwBQe4xGmUwC7Was6OneUucaS1EKIbsD/csWPo4A3f0vTor2ydtaiiIU1idLHT5Hp79vlEKYNvYwUr13f9L8Vh3AqGtn2XpuubKQjisfNMIIEwLVhOgXTHzi8pxeyjqg0jWwTPLi7BPnS/GBjSbJyIGVNnIUDjSm90s/EDOF0LMwRXWz+c48/ebMgWWkENrgJxuBZVKie1ESObAyS23Bo/sjsKStOX3HakW7X95GYBnwPTL87YOq9Oq/I+Ah7DrVytxz1fHyE0G7pt/EUxYlu4+hHFitGw9+AwFOT8WBxYBqyY6B696bNDlZQAuxfevG8f3qFe/5EhD2FwnSQFNAoDwRcBdpUHzMmtfj/8s2PjqddldnQN0o4FrszS05rVh6/kdAUv7Cm2OSJspsr82Yr9Pp8SNjiK8gYhKvBfoEkIibkNyw7PXR1sudtfATFIHF07cPQVyDuu7AIhuYmg5+eqFkgjgly+6Q5w4sA8rr2067HxFuD1KCDHkINZWfgMgb89b0bYWIdPJHzrmuT9n0/fZs146fveqWLTkHpgYAlF867zcJqJqhOSmDHH06Bdx5D6vY0BDoD8+gv7diec9RNQA37V0jBxaL0njJin2+a7B9IwIoLyRZ41VcM0sk7lhTl6KiPHNgDe+y8qDqxN6jJz1z5btpJ7wsDji858rf6XurZgIgl5LE6pxQRwcGcn9kCdHhjolPlI7L4vICp7qjx/N7CbHsW9eBJTjAWIPw648cWNnbSbYGlo15lXnJpD15jXPmwKJSCC0HcTI8Zb10a0VsRQ6s7FEeP1PSDiwvDFlU4TGvHVjG6qcMe6s/EpwaZLtzWOLea2FpnRDyr+qqnScNeujspB5jUnLMeSfddloMY5udep1yHhO7Y9xvrZn2YHXx0S99OP67XBJcNuduf+qIGaBDb9nT8YFOLEdPuiFs5hPEg1a/Ne6hbK6hY8tR3RDIHCAY4+cVrID6CgGX149h3+c2xvO2Pk3pOfGjMKGt1nU4JUT2hw8F1mK9gorMzz+RWL1jlr827Ods7lc255LVwHJg8EhBImpYL0VUA8s1jn23FAxPOYYLvdMefvP1FUIa2u6tHzowUVT8d0ByaJAi9OkPAWmz8kdDrdvcNbcoXjrMJocA3HBxRbmG5BEgOL24GkbP/HPvnL6ml+zqjSLO5IvYIIIwCgH2De4vDhOUGxq8/kCEF//202ed1q+PVycLaybbh0khDDt/oacQOuscfN1TJ1ZVw5uqqGV2//3CTPluhfhwRw+a4xTC26979jadkPtBg8kHVOl3xys7bw9LC/nQrn/HF+o3PGTP0F9s9BF8ZKWXISyug6VeAee8IrCi4e/fujwej+vq3tlpQacQSs6YNiACmeUrax9FYGV2z9gUQvvCRBAYJ9Y77P7lgwMrXNqg4PQVvUKYWUILMbrlwMKv6IfZpEl1DkH6BEwh1MByUFFRvql4z0FFbwMhJ3roCXYlKR+esk7RowZMbHpvCJS7TZQOrDaNb58BSHq7PehEb2Ymemd83mRvlqfXvTvpumQALPS2HVqMPI0kyGb/OpTedmZn6D/Ih2u2jGtMlS/NKIo6tbyzN+j4CCBoAvEpfY2GNXTIz0Dwjh37a4/m26HkkpZjT9ZiiZUIcKyxPutGIwxKqfRBZntoYxynLttw561hRivUNmYKIdEX8/RtfcMWfKVaCXFc1yOwdCr9zYcgx+ZyTGipfIC8r4HlUEG39tP6EAL2y6qsZjf/4s8JKgICBPLlzr14QuX6vnlzgOxx8aObAfE0W778FwiM21/bO2PaqgF78pnvjVSif795TOdfZP89ml3rSm6Y8VWbA7fPXLjAkQHkg31i2tmTl/b4Id9wI3NgpXL4qC0OLGOP+l/z5J9Q14zobOFHLOoVBq/Qtgxg/5w6sAgOvu7Z9wHgRMs8Jl8BFo3Zvt+vZ82c2bIq3+iYhiceJ9rOj577E9FidyPAb2Ub6KoftwRZKCPJ4nKfQUUIbGu4//7nxh9pkzcy2oCTK+LO0SBX1d2VYk5TRz5GDqzMUj0TgUXTF1+GUSmVcu3ASkl/2GuOIrAyS2dhRvdqYJmyX/Qkm+/NITYCmZGkBL4amMc1sBx8PDxi66V6gqyw/lY7r/zyUdJnR1UROWHQ2OZfhMG7cuZzThi6f71Y9ZfM7ZpSb3kNmEOIMVsMLlr39qS8qWkRFkk1bde+2YhNgNDCP05yTiyHVH556y+GbVZvund9TeFS9e/UYvStAPpDZtyX/eG3X3DQpgb2/fopgDb2aPLlgpmbZ+bYsCNYevo9N4OGDxBC3FouySkTK4yXfira4WUCUK1pcOLSv476RIXnQv5dXcRdgiCh9IkcWGGUAXuHwF4cmFcHBDY8+fJtZ+U7XcVbx4s+KT70bQBykgerQH84doGYZrhjhg5474K1ffIi/az7xdNPR4y9we8F/uuXhzAmFhfBvJkreufVAw+tW8eL/rjvMVfoSEYCYHMadrX6Z1so2zPGD/k2VoxnPvpcz0/zkXZFDiy6dr1JnuFuPwwe/Wz60sJ8hVC0NwPKFlYAQDlv41jfeDKLogg1cdiRV5TjgK8Ga0+gzZm8KDdF3Idc99wFCdBNe8x3l/UpEJhwQINDFsTnttmdTzRtRFUesOOIMkQyAgHlKaDSi5MQm0c/TOo6FrSvYrHEmWMfv/zf+YQPAxanBhanUIK/EP4aObAyu7tcEXfBAUVMofx5JVG0q1F8WqefMgsxO/rYPuvbAOA68zVzQzqm4Bg2bT1zOVEKYTb3zj+Xk0JoyX+FXOTIz9h/xvrN+xRCB9opQ7f+GQHsVHPJ1abveOI8VmCNweOKIFkwYELzbmH3MxDbrU8efDPo8Kg7lVJnWQ0cnccc7hE+eend+49PpdJ82MXka7t2zUb0RoQZnoy1iFaKTheB/hU5+CVPr94yLqORbJ1a3DmCEBznABlKGfiUSAC5/IMATCyqv+9TuUivu/zMe1okCDHqsJ1LYzjs4YN+AcR9eIvjR5y1bMOdN+UrTaYLLlkElifMTfXMCnY5fUcphBLBTgtW1p3Mh8QWigPLWFPXdlM6AWjP0wpNoj8EJCuVMLuKi+qfNPuFXoaTKKefnp1mzCIEhK+jmS+YEvKdhjgDi7TZs1bc9I9cAtuj45zDimKkKxDSnyA5jnthVgWcV5SDsQPEporvWyTbMVbUvmLJDXn7OrHfgZWq88pyMpNa5cCKd3+5wfc7/vM6AeI6PGnfB8OpihcIPfUgGUHE9jks4j7ousVPAcB1cnsH/0sQHi2OFc+ZuKD0MxUbZfL3Id0XHalVFXfTNeiHBH+trLlIqRd2X9RQ0vxhlVggP2oELxz3RGlKT6arZ6xZCzeFMND+llvu7v4jQNOftxd1ruycqBlEUW8ZBrwILKOF6/1h9E4AP3rmBgHIVQQWIq7zHu5VHq4pVFgEGhVxzw/+oGtghTvX2/tn2H/2EqjdLxgH1iMj32laXV1t1HXVhN4Mn/r21hjImaRag7NuG99sY5jdDXZgNR68BWyDJNzhngLRl1EACCNffnfS+DBA1bY2pScM3X93g6Ivf3m5yX3dzvHU2iHnvOfWQaVL4VTKGiF7EMmvV20Z/00mcNWxxeh7EMgo1zMsffXM5zumCJa+KPWOKpxBuhMJLtFRn7fvbz9YV1lZmUGFT7D0zHtaE2I+AXoJAGFtau+ZnVAoNW9OzOVbOKD5gxDYifXxxGX/d2fe3TKGWlwSjWSvEJqHc+pugbuZoEnBJZC6HoEVsoi76xB0pIfPQVgARdxpEuvabtpaAGhHK0Hn8oMSfz6q5AmIkS5IFs1b0++aJEg57U3L21Y0qioiRjj0vvwLSRx/GNewrwCQJ3RssGLuCz2+TjtAggHLyyoa6bu0iwkhXRCwo/tIB337FPZpb0roi+U/DQCzf7v0mNZp1tIeGY8qrglOaQeWJf89/RfOPvJmR4TPpj9XeyKwjJUNuOrJ40HTNgHAAULxzmy/rX4FFrylDkLoD2c8YwxNmzP56exHYI0oW3TYnpj2b0TnZeYACkM06j2tJ0ie1DRt5aQFV/63JvQYtu/wLk8eVF3UoKOWiHUBIB0IQpFnTTqj+I4Cgg1kWwQfuDn+ANiOqLUfP78kbx3UTBF3sX0SiHIaI1EEVljqTK2dF4FF0S+1AdzxybLSvVhQSkHlyoFlRGC50IeM3KXbO+cPq4j7BdyjC6lhNuqVLAacGlhKFyRDn47zyj4/egZiwTiwDDxNHbrtMQC9F+fAqon+QHy93/hTzgnzGJMU520a334mAX2De/CkJYKwF9vAgd/my+ri+vV+s2bzuK+SJY7a0r5D85GPESC9PHFrGWjSkEMXgVYPy6AzPlYfgjBszVtj70szfrBji1HGmO7rYD4wBNPZ++7zTfH9OOcVMxYi/ocQ8jIBsh407eUX3oh/VNO1dew4tX7Rtz+0AiQdAeEaIHCcbEznAJJMDSxh8XZzk3DEso13Tqgp/IXQX5ZC6O2/hIKEX9d1B5ZTA0sgYAX85UgGP50UUgSWAfuf2k47RUM0LkvsRyIk9eVYiSGvv+fISdTOn7umzyu54qOenSr6EkIeFs2v4A8CSDYjaKsJgb/W16o3PPp8n+/TsY7ykop9CODpekI7G1Bvh4BGFGox/0ATy6Bq9U/dWFHGuNKoA9xDtOrLHltWviYd68vkGOIUQsuRlbQDq5alEDp4H9D5mc5A9Gc8O8eNj6C2xin0H7Z4u+Be209YOaqBdft1i4foAPclzx9EB2IUv4c1gPDXov30DRNndk7L4w7xskX77Syufzpg4mwdoD0Cng0IRbZY9NX4VHCoLQbc8757manmbNMSshzhxkVlp/ELSv+SSf6s6dh0EXe+/qLCfrUndyg1cmDVdDeC+3MphD4GDD63MJ4EyIcUQmXqmQ8djoPfSkGEnwDJ38Qy1yhdbPjN+RLG3tneuDtjceJPEXJGMebQgouTKjee2xuatSyhIbXtOBNQOBv+PGRyq6w59Pw1sIR7yYkP6wvnXO9iv0BqYDlonz7kvSOrseojBNhfvBXsKcXT5MH6gyBeP2BC0ydVxCQdpU3jwXMAoIcxgDlpKH3FNqJkyrKX35t0uQqY2vz7xc2Hn64DvuEKHlkCoZR3LWx6P5OPV20Z+8d0pmQatU8a/pxYCQQ60KmD6qBpqgUFv5hkAgiJsWvxPwDwIQB8BET/O2ixj0Ej3+s6bI/FYHu1Dtv1ensTDavq1U9gvQZE33NoDPBIHeAY0OEkgkZdB3IaAjYIQ1fhDyDs0ZPjD0LeqfcbvWVlZXxvmHkLvU1wCqG1OiaFMFA3RQ6swMrl3LlPfGwqNAeWQSNd206rAMRyhjzUp0KOfej+iPDWcWd9c3quXrrq0XHG2wBwiozH2eXZfwn4gxAgqOEnSMgHaMhEAv8AQv6T0LWvY8X4PWj1d+u7q/Y0KNZ0vR400BN7GySIfgBA8REkoR8Zi2m/0UE/CQmcCAROAETrMCv6CDdAVZnNHshnJITYvu2gw1UzV95oRODl/Sd6hTDcFt1a9vQ0AqSfcP99aaZBIwqtSZn+yIEDixCjePvijwDxD+HMY6l9bFxJ6gTwYw3hQ13XPwQt9g8dyH+Invi6XlHRD/ruot3V9ausOlpFWv3YnkQDLIJGGsEjCGhHApBjCcET0awniMcbrRjcSsVL+MOi3wJVUoM19I8a4GX57rwy1mJEYAGBYndd3KbKd9n9xUZn5MBSUkeNGozp/dIPBLCRf6+CqVm8fzmLwEJcZ8IbNsLZx9Cuug3MW6M7UReDxtdKoSWWV+aIwr7h+cPqH2wh1EB//DBkcquDakRgSXSmUwgDuwXIE+qngorAMtY7ZeiWOxCQfz2Q2kC+7ImS+D7fnYATh0xqtiO8jWC3bN38tgOxSvsCCO7D8IZyTq8BTXwa6iUvvfvgyiRoolY2bd98pJeSKZIAjvSVCAg67dBoqhPSfu3WcS+mE1mtG8f3a9ggsQ4QTlebNr4WPonD91cILOMS3zkLuVIytHR2bvuYEcLjximIGLaHUBnsBiRnLHt99DthRyn0dkFF3Nn99wkPsQKs4zWwjBRC4yOmeb5+sYRDCyyF0Fhxr9LJR+zdXfR3QqybHNe+URYV8DiIky5oyEjotWBt39nZ5rMel0w/G/TYayrly9xIKeW/pBi2M4myv4UhKUoZBPIMqlb/dguqJEnA9n1DIHHJYyvKjSiUgvgEO7AkSluystpWxJ1eZv+OL9TX9vvxVQBoydqPjoJXP/XLWwqU916E6hzUwLq9y7NtdUJc+ys0f1AWSrB1I7GvpGfPYAicQwR7C55R++orIFrHiU+UbCsEBnccWMyFfRIHIBr7kQMrszvOvEIoKNQr5gTx+SNXDiynBpbFl0rpwSDUPH3YQc/hgkvoLJ5k7CtJzIzYfg/cdF9NbNUz04IgSHGUt2DSAnBgsQik/io4B9aDA//dMFb8vw8RyG98RMoYm2zaupreEfCefhOb3qWyobnfL2x8W38dtKlOZZVwEVhig5cAfH5o4zOOq4wKGkL75sP7AOB0twi4SmgxKPX+cMwaDeDZVVvGXp1uVXHJueMP0nfuNELbM+DEcoS1z3CibDXzn5yNqyB4u7+jDALTMwUICx+BRXdmU50IQJ/lG0aZjx7UlY/pwNJxsTqgULB/3FdRBJbUkPHzB2fyUPKhQF4h9PNI14seHgEajKP9MepodanecUjyP9WxxB+fXDUgq68M9eg4Yx4AKF9T8bY1DH9YmEktitcaX2zC+3bCBYrVOcEyjRHATF1d/xGZAPwDiooufmzJDTVOE8+mnI0isMJj+/ayRb/dC/pbCORAzkUSMgqLpVWKPyhZ6EKUgwiswddVVhJA0/5SmuP+NYdznd4B7gAAG8NJREFU8nqHPEHh+2QO6TSALPpEyOT3mZ1e3QcBPqoGvHjSgtKcPkwRnmLZVwhdmuWWGox1Z77IgZUM5pNvy6YQ2ocFwZFCPDK7qblyYFmvEKYagWVbAqGdWPz50fxGycq8tDC6yX0CIfiDGTIYAOGvav2RdQdWUQK/Ut618orQU18eoRacA8sAfdqwLV0IQT7lz2cWOhZswDUqxbJkVwKKT7xtYhPpwydCamvdeNC7CNgkmFBp0SA+RNj8Meal9yaNTl5E1b4ebVsMa6QlNLOorzLnmUGptORmFdHIsZmoLWbAWh+KV+qA54YQSUx9RHPfuU6OKGKOpx49O1/bIVjUCxtq85C+nOX6q+mIcV6FvJBkouGsSI+KFRtH3ayerXa1kKUQstsvoCAhUUUOLI86fAc2mj9sepdZH4WYQmgsr3vrxxskird/CIDHqsPjeQpzojf98ofoOHH+i32GZ4vzbuww6+CEVv05AjSUzZkaf9DUoTgyh9MfLLlJEKg8nDsIN/tbApSP9rCmIoAv1iuKXTd9yQ3fZWs/0jUP58ByjbNQGGLAqM0RWM5Cb+v8zOU60ZeIRX0wzpLmjyw7sIzX/BJ78DMALA61+y5DBPNHcvLfb4MzDMwMJba+lKdXcwzalpPEY7C0jbByt6Z3nTz3ih/SxXvZGMepgZWs/Sra/8iBldkdY1II6Q2gHMMsBPLzR64cWF4EVigJ4uOxZPoIzufK7mIJ7EgY8fnO0f8mB7nwBst/8YHL6SM9jgWHneXEgeVZPz7a99OnT8D48FOQDiwjnX7asG1GBskZltKwcSANtlbbrybHEni6/8Rm18mkCTdK68aDz7VeQ7KgYML+WLqUjMkQrq4XF/1+/dYJ/8ysOCuc0ds1GzEH0agtJnFh0XLWRCUreP29EPHOVW/dOzYTGOjeOt7gPz/pcxFJwGtePhKi/hSTqMJwtbMMFOKPtfMouy3ZSCr2NcEU0git7XnhiOrDL5+5uXdVJvYhn8dUpRAGvk7BkULkwFLd5csNB4olCjQCy1hB1/YPX/tLnaaFrqoJFBcCw8zPLFaTPaAlmsxbNeCTbPBSz44VtxFCHlKFZVigCeSnayXy0IaKvmK6BesPbgYGHOVbZQIAZYYvGqW8Jv7YYP87CzUaW1bE3TRc7RcJ1frH2o+64MAy8DKg88IHkcBAl1D4PGgpSwbyh5/1s+zAGnTNojtA0+6lD1rhzGMxf4iR4Eub9E0Qyr5i2V9ysRggFX0LDKRvBJ3o+ph9/rDtnlzVHayJfDccWBhYA4vfYR963fNS5MCqyU6o+7ophAL6DlCfQn2b6yLu1mqDoRZhxEkjVGOLsg3tx8Dco2VgZ4F9xZ1PxQaX8y0nH53+7tCK8yA3fHB7u3nWHVixBJgP1KUSmOLb/YJ0YBlrmDZkyzkE0SgdIFT3ofDj22+jxjfREuf1H3+qsBwHRw2tTx60AHS83pyMk84qVvFMDjvEcO26dyd1UPWqS7+3bXpHq5hGgp8SZpjbE2wc71uI+1ery4p/lymDwagffMlpd90FQEYB+p+yEB++BNHu9hZLVkBLO8ZjS4s/teDy5lW3tejbewpdffBg2NL8w4pkxZfra99dUvn6Q7vqEh07axVFYHm7LNF20u2p6w4sowZWQAigjTcPfWL+KNQILEuRE7yh/fTXgMBZcgdQsBwR2kYElsxb2/fKzPMowR4Xz3gfEE+UzZU6f1gjhjeSWP5TSF8qoI/V49acIT4+wU9R57cI5KaZK3otDTFK3jbxO7BS1R/m/hHy2fSl3Y7N28WmCbDy8k3FDX74+P+QkFaMVRswfkr8kcUaWPE40X7627OfIMBxSR07JY8cSFFBO/soJpTzoo/DJfY7qz8U+oZaIK93GJvo65gOPcc9WboqTaST9WGMGliEQLF77uEQzX4hsW5MYdn05+1FnaOyKRnbQzMCC7GRyO+TLH/kLgJLW2eUOjH+l8z5w7l0D1v7ytsEW6+HNwSY/XO7ye13psJmEH84lkwQgfDT2COqF54DBxZ+pbSRGMPUe4HQZ18VrAPLWMfUYVufAQKd3fOxZdSn+PKttd+E4KbvGp5yZjyOxnOaHE26X1x0Yt9DElqDzwFIAy8yxSY1oTCXhCw7zi/Ezuveub8yY1KsQAduf+qIt5Gg+zqV0ISgvYe2N1DKIAQvWb313hcyiY5Op8cvJnriCQQ4xBM+vv2nTixi20vB4tTPyrt/gXGWTJE4+vBhMZtS/LCMYy3wBb06UbZic3xnJnGfz2ObDixd52pgOZEiDuzcoZtGt8sAkQMrUKEzjxxITicGLRdwBJax/m4XPXwWieFrSKy3ncX1FihhYyLNR2EC9GhEu+jxtbesyyQ/9eg48wIgifVMDp3PQnGgNY1X+xOOPzzI1U818whQSjhGfpvPc9sfy9hSfigZSs2+siqx+6a5L/T9Wtk/zxvQDqya6w/4bPpztd+BZWzpgLJFv0FIbAHAgymC93ZbYAA5upy9vqMIxK8/NG3O5KfLbswGCQ3qsrgTEng+TfxhSy8f5E6dF1dA8M4TjzsdBzNjQHlBHbb8oSWmyr4STy8+kiKQZ6saxm5+YGbJt9nAf6bmYF4h5NULlxYlP/0ARBFYmdola9wxN7/0AyFAvUKYOn/kyoFl1MDy2DuEfqXFn3n5Tuln5fnFhx8hfdN7FsK+MpozHnxvDrl16hg8VAuBgSfsHz56N+sOLKMGFkPx/gXYMtjdbzsSzkEgZV8VtANr2u3bfks08gEi1Pfo03FgifWHSFL47SsNsUffCU3n+tsyVN2m8aBBBOABq5H1k/w2wtsKYdQAwjeH6vsdU/l+fG9mRVnhjd6h2fB+gNq0QMjdnbE23XII0DtD9ybLV28Zd1mmMdHu1PhRxbHEbCBwMVd/x0ebzp9ikSYQ1lR/VhaHE+yubKvpbUbAhSQr3vHxI6oP710X0wZpPMhSCL39l+wfTyCGtKnjrxDq9iuE/EGEpW+RoeF9V+gOLGMlXds/vBAJXBs2CotTjRx9mV+8vfOAw07LZApbj4tnPAUA16mKo4biD4lAVzuv/PSh0h++THWT/Fi9o5TCPIH+oBMyZPbKXrMyrZeyNb4shTDZB0NM7BKoExFYzt7ces3TlxKdLLeS4twiftKt4/hDZftmMYVw0LWVywCxlLbLkuUPofoTnYD84eyhavwE6A8umjIYcjaq3XK5U/LnOwI48L4FpQuyxYOZnMepgUWJPyr0VEyAsn2MHFiZ3CkAt4h7GvgjP1IIk8NX+Cgs//nRvoxSCiC2QUj7ijuhSqdxxY5Y/vDmW+gXCA0YcubAktfsslHjXdZb/hV+2wvagWUsZ8qwrRORwFBzfVxJIMmq/XiwCcAJLCEAX+3Ufzph2H3n/iw5/RBs3fj2DwDgBLcQK41ztYZ2N8R2qE5a9+6kIcmxZd1ofXnz+IE7Yc+XCMgX+Q3geOkWICSwuPi4VRvjn2cegwQ7tbyrHAhMAIADOZuLE2ESchMBSpV8sNaqJDpvFEVhazlebAGvvMFwRsAqgjB4xYZRwQ7IzG9EXswgK+Ju7Z6zf5RYD1Scdd2BZaQQSj42KnmzwmjPqs3a4MDq0unhY4uq4UMAaCDPqmTlAyctBF8Qndw8/8W+FZlgnh4d5xwGsOffQLC+SnSx8i0sfyheIBSwG33RoJSmTAMFboXy27RWCCKZryMZNmv5Tf/JBJ5zNaYohdDkPkKSiOC19U0dc2AZeBrY+ZkJOpBhqixpjxuS0B9ZcmAN/dOzx1Tp+j8RMOZYKCHvvLiXbYTsqjCogs+dARwu9BkqIKB+9swjEwIdAGdXV2sjH1hY2FFXNLrNCCyA4rD6RmjZ2hsUObAyK6XdIu4+hkiKP2z6zpUDyyjibujnlPRHiEsAdgdsiyOFVwvdk49S4PHyh9sP5otgi4SXTtwBkSMye/icObACqd5ckIcAifQteAfWhGGbGu1DYn8HxMNMfHBlgcJpTEvnGIE7zgUsGd9/QrORQrl7QZNBbZAYDMUGbfschgqp5BFksUZOWvvOA8YBJPoIMHBx8zvmEiA3cPaKNMxKkcSBePfqt+6NZwvZnU6PHwl69YMAeJ3raKLkkVg0KQQWkyKllJa88HKtrJAMQjGH6sBpT/ZxEWhdn9t4p9zRkK0NyJN5giKwVFF6/iVogJWLXhlq5k/Xtc+1bSafiRDgwKJeg2IPeDyt1wYHlrH/Xds/PA4JjBDzpthYsvWl1UVsPX2DDff+ce7SgWl/IavnxRVDCJD7TNoNFnVOfDPrfHTglfSn03KlUVgMAlhVrwDJB7PXWtnPngYRt2jVpP+MVb2EBTcLnadlNbDCp597G1zXIrCMvY/HXy76/r2vXwbAc9POH1mqgTWoS2X8F4v6Lud6Jpyl4TKI0NwLtpUoac/ZR36OCuBUyoGl0h/uqJxzwPzijSKM9R87v+SNQudnP/zCFEJux+Srpqt+RA6szFIH8wqhrS8V6lP6YEquUgiTf4WQ0h/OWScJAcRk8SiVusC+UiKY7SN1Xrn2DdciWD7K0xBck8s+PmfdgRVLJFMDy0KAZPUF78AyVjd1yFu3gKY9Ql8GJFPix8SQ62x16Ap3kyK9cf97m/3DIRSX4to0Gfw0Ic5rc6yXUJCiKpBOHvESgFfWvzfp/MyKsMIevV3zEedowFbslxkODrnTskogt77Y3aj4uPXr49XZxMylLe46V0dipJ2e4b+5UogzFkyKm1nGDhZyLiEzoYrh+lh9rbaKQ4hx4/jo7kYNhq1dO2RHNvGb73MFR2B5+GVOx9LtqesRWEYKocSySII/aosD608dpx6gVWsfIcARNXdiMQ6ZB+eu6TM43bzVo/30syGmjQPAC4KiTFjlK2AGhfgK9RKhT0E4xqvUbmXm5K9pA+1dxA81osd/1fKLykw9JpLuvUplPHEKofnUs0p/+KYz39apUymEDgIGli06Wkd9CxA4LCUnlkSlQJYisAZet+gCJDgOEM6mZbX6PCjMpVBkGlOj+v4puLbgInFFvhdnmNBOLE9YvftL4utdE+eXLkFE55o1FTbK2z7uK4RC+as+bNP2e1TEPbPb7L5CyJ1kBfdWlJ3P2VcIkKsILKMGFn9ID4M3+8ziRGGFcmIx9o+krqh/bkEfmfwNL8l8G6TmK19+gWyDaeCz7sDiamCJUMntk9CJVSscWMZl1cE7D9oKCE3ERdxDEK156eKPUCTP9pvQ7GqG7ds3vf3wqmrybwKknveDOlzP2yOf+o7pN7z89oPzw7BiXW7TofkIwyhoIsQBg1I2GcuRIX4DhWhw+ZpNY5dlG6fmS4Wnx8t+iSyPA8GTTPg4i443nWiF7/7bputQRYPtTk6ooZm/4lVvC4EGtfOKAHkDCem7/I34phAD1rkmMgeWMH2Qxo7Q4q/rDiznFUIfh9OvqYfgj9riwDKwcEP7h8sJgCDlj3ePG+3dAFaf/GQYk5AqUlR88vwXyj/KBMP27FDRhqB+NyCeJxvfAi/AeFOciIVF3+ljJXPg9f6Qmg0OKK4BwBqvknV8DKiPbdfgwAV14cUtxoHl8GTSzisLk4h1p4i7n3YGXv10e10jqwBQC80fHH36embJgeXMOrjL4g5E1+OAWqtQziunoyu/VZJH7Lxy2ZPrHmxf0b9akkcpYMwZCMCHSPDeff5QulD0CpRqFYX0u/sKoU/9sk4PsevQv84oAiuzO89EYAlImf9KwB+2TMldBJZmZzwpJQjP7aFLnnDE7OgfxQaJ9b84I4uGPxx/CA6IDDz88ZGqgWUr0IAF5JcDS4ie2h2BZezN9CHbLk5oZBVr68o1GL2f9Jmekb/Go52YaNN/wqnrXcpufdKgYYBmTSO+xCOv+fyWg/23bT0j/vBT/f2O3lyHX2YLK7o7NB956y91pCZznMvIAPFBTTQHAqxatWVsp7Dzp7tdPB7X3nhBvwZ1GEkAThaLZd+3PsNU7viSQMv1T04ZuEXiXPJ1yflvGoHRS94YVVlbbxzTsf+yFEJPkgTsN6+loiLu/oNFCvxRmxxYZWWLYg1++O8WRHBfbfXoVm6mClSZ3c3qQwBXzl9zS0k6eEA2RveOj7RCwP4A2tVgXw7R2+kpdmoE5blS2SBAPyuPrdSrLRYH8+rfFJTrNMDJv2r5+fO1OeLKv6+yIu7J0ZBFAXUxhZDG062dF44BwDv9uEuZP7LswHLgHnJ95Xm6Dv2JjlcgQhFHCwGvCaotFfrmwrbOxYFccgHiY+Bw9hUab5evxZg2ZcK8ktV1xf4xI7CcGlj8UYjRHw7COfloE3DkwEpOKibb2o3AEtB3cGwHb4/mNgJLLQVo3CSXBkgTsXXAMc877i2fCuuCt0p5AS2xN2x5Zf8a6mIxcCSH/YLxZYOXdQeWkUIoFBk++93/Kp5gNf/f3tXGWFGd4ec5s+xug7hIm2WpFmq1NC3GFli+StOKlV0EShrT9YcIIk3Q1oqa1qXBxN6E1NYPalvYtFlsafyguK2QamTFQtGKCo3SBSNxYyTW2hSWKgUJZVnueZu5M3PvzJ2ZO3OX3XuXuzP/bu45Z8553s/zznnfUxEnsBxSrmvteg5Ec47liuB3+wSWj0tFuuoPdTeaH02ZQkrt+sKJtwl8JtfQdq1jMWu+NEjbrjfXfi9KNJL/geZZqTFy6sy/SNR68MjS2EsA51cYCxDQIiMue64r9W6Z8eX8xnuvocAM0F0Lwv7SWiCYEXhjQYzNmuvUgRWMinE0MasLreOJWcWe6S37hMbPTtaefbLU6Zhlplm/Xh90AitHtRD6hZI1OYHl0wMu9ern7mAgKymAZeJx09y2JqFsz7dP+QybxSdUDXjxUmnO27jjO65x+yUCkZ2Wzd/YQOldAWApgMv6Kx/Fpw767UfByXoAzJ0Ps/scBblZKbWh/U83vxG56ApsMDBF3O1NhB6eKYQOW3S0dBgvU/8ZwJwgOfZufxyDXcC8l6gGVhhb39PScXGvYdyiKUsIfNp2Kqz8Uuexo0fRXordImSzGe4VFfCvAhMqfCMdNmU8rWXD2ie+ebACRbjgkrI1sML9k0Lm2WOekhTCweWezAkssi4oGFOsfJT/BFZmBxIbsGwQKrJLyP4xVj//dDzb0sDZegcODR9EDBTuvsWuQF/yAFZgCqEbAA+JLQBCyFBRAaz1q7omaZH9pHnpSbTlywKTPdkeHG3VghUr779yA6++4q4mrelz4p1rOvNsr4ttg6kjwskvHHywK7Y0DvOGTV9a/RiBG92Eyzo/jnbOxGTifD03WUTd17lvzT1DBdaFU380XitZTI0loJVe6FurLc2OQFshqFDpL+AbRmpmly+ZC14BOEVyiyg88syr9744VLA7H+aRCWBp/Uf/wSGLfp7Ie6hFs1aaFHF3FXEPYP9w98BrDistgGWubsnc9c+ScJ0udaOR0xge/WL+CP7052iXg5f29nwxVbK6gcKb57dPJ/QNIup6QhqcKWb0XYR8OBbAuZXFpx9ckLgLvlvcEUM3+vrjIwqe1cDjxsXp59vbb+k7H3TSYM3RHcCy/KNccCJ+IXfb/A3jFEKHPne3dDScgf47iIwcuB+3/c9Kt9dByOugfvvzzS3fHizaxx1XRNh645Yva40bBNJCwLqJKe/ok3spXu1tv8kdvPIXEQmRZo8A53Rfnn9lc6CjHI8TeEZDnhj5/oEdpdOFcREtXbvQIu62/+3lTx+8nokmJ7AGl25rbt35XxHWWW+xrjmLMJ/ekIGrcbkCWGYNLAel4u2HLetmSlVoyRZvTQGP+vS7Tz7966tIEAZwXPkInEBwgCJQP8ZPmyx/AKvw9tWq7eRC3EWOigpgmUtc98OuX0Fwa7FB2gj/queknJnIr0266ykKr8v3nrOxski/1xNVe23Xmw9NG1zVVVmjN01e9VWK8WK49vVGa0PPF+UIdng8PzW+/fWht9lY0Ji6QkQWklgAyiwIDWfd/gsm+hetDdjKBjIMgZMktqcVn1aqZuvTL6/6qLI4qzSrCa+B5ZyFsxVIjM25AMM8hdCpgeXfiBQjHxUZwFrQ9nn2yQHASdPxh/NsV7bADYSeFta+UmHl7zq/u6400pJ7i5lu/d7fGqYIMI/CZkJmCmilIAXY3Fg3EAb6gsXZD0IOAmqbKNV5Se0Fu1N/uN68Wj55AAxMCqFFYFLea9uydMJwB/bOlk1XC9XzAIz8AIH1O579KFUR92LolUqJOvbWU9OqqJoBmQdmLrrJ+DzR3o3dwlb80Zk/IdG9fPjMgqWEWXt1m1B3Hv/Y+Ffa2xuHdWDaoWl4DSy3UvZ64FlVneffJCewipGU4ttaKYSocwLD8YNXeTuoshdxj9xgB4Bj2g/n8pAo7CxkPKmHDjsXTFYp4F8FTjlY/4TJR5QG9OlHdyp2dCCr/AEshyz5C8li7vXLXFSsuADWgz/YX19jiJnld6HHphdg3TiXG5B8iHMmfb8ZtB3nKFmI+F8o77zwxtq3znGY4dadTZNXz6M4aXYxl2+6e2lXW5f7p6qqX+rcmzoRc6SyNFs0u3UUekfOTFN/BeAMiL6S5DjvZOIr91zRt9DlfAjidUB2GzT+2ntR3audnSt7y7L4Cnppy1UPNKTTeqq5JM8OxLVGk02t/xymDW6pIP9+8qXWfRUET+ylLLvq4dGnidlWhyDhzqEYOSjl2Oa/3PFKZLvzrMHiuetmVylj9EBOW6fl+GM7bts9kGP2Z6zli34zSvr0NIqeDmIGyUaBXOIeK9TlcTtLnpd7nUqfNiX+A2A/BHsosuesVO3d2Ln8aH/mPxz6pJZtrD1yourrA7FWEfnfr7cuzX6BH4gxz9cx7mzZNAvgmJwBybcP0bpPqP75i99/ywxwD9lnVUtHXXqEMQ0iMwScTqJRgE/6t4r2LidgT1g48JUn4Vag7Ci0dEFxj5B7qqj3/uTR6z4YsiCVcWKrl2+7FlShFwsUM7UfP9K8bbjUDisGl4Fqu2bFziZlcMRAjNc3lttTqTklvb39vtt2fFx09Uzv/Av7x4a/wl6me/osEPZfUfiEOfB5g0R7p85ETUhDJl3UxIprLJS+1odnmh9FSvL88va3a9I1x68515eZuIpSp+94YMrOcx1rqPVff/drU7QyMvv7aO7I5xmbj/LEQ5+FWbMweRIEhgYC35ia+gSUmpSGvlSJnqCpJijJpBeMATFGgNGE1AhRTagRFE1NnqHIGYBmGuAHAnxIQQ8p/0iD75LqnTTSBzr3pt4fGqtMZpEgkCCQIBCNwPJF94+q0qM/23dWPkfycio1ToseqwT1IOshuEAUayBSqzJ6MRPG74XwNCi9FJ4S4CiJIwLpAXGEWh8iq7urq43utq03JRvZaDIkLRIEBg2B2xc/fmFVunaiYXCiaF6uiHFC1ENkLIB6gCMFUkughlQ1ZooiiV4RnAZNWc+UP+gx5ZvkEYgcJoxDALuVqO6fblp4bNAmnwycIJAgkCCQIJAgUCYE/g8eNpyF+Ut0/gAAAABJRU5ErkJggg==;" vertex="1" parent="1">
          <mxGeometry x="648.78" y="520" width="392.45" height="40" as="geometry" />
        </mxCell>
      </root>
    </mxGraphModel>
  </diagram>
</mxfile>
